  0
SECTION
  2
HEADER
  9
$ANGBASE
  50
0.0
  9
$ANGDIR
  70
1
  9
$MEASUREMENT
  70
0
  0
ENDSEC
  0
SECTION
  2
TABLES
  0
TABLE
  2
LTYPE
  70
4
  0
LTYPE
  5
40F
  2
CONTINUOUS
  70
0
  3
Solid line
  72
65
  73
0
  40
0.0
  0
LTYPE
  5
410
  2
DASHDOT
 70
0
  3
Dash Dot ____ _ ____ _
 72
65
 73
4
 40
2.0
 49
1.25
 49
-0.25
 49
0.25
 49
-0.25
  0
LTYPE
  5
411
  2
DASHED
 70
0
  3
Dashed __ __ __ __ __
 72
65
 73
2
 40
0.75
 49
0.5
 49
-0.25
  0
LTYPE
  5
43B
  2
DOTTED
 70
0
  3
Dotted .  .  .  .
 72
65
 73
2
 40
0.2
 49
0.0
 49
-0.2
  0
ENDTAB
  0
TABLE
  2
STYLE
  70
4
  0
STYLE
  2
KICAD
  70
0
  40
0
  41
1
  42
1
  50
0
  71
0
  3
isocp.shx
  0
STYLE
  2
KICADB
  70
0
  40
0
  41
1
  42
1
  50
0
  71
0
  3
isocp.shx
  0
STYLE
  2
KICADI
  70
0
  40
0
  41
1
  42
1
  50
15
  71
0
  3
isocp.shx
  0
STYLE
  2
KICADBI
  70
0
  40
0
  41
1
  42
1
  50
15
  71
0
  3
isocp.shx
  0
ENDTAB
  0
TABLE
  2
LAYER
  70
1
  0
LAYER
  2
BLACK
  70
0
  62
7
  6
CONTINUOUS
  0
ENDTAB
  0
ENDSEC
  0
SECTION
  2
ENTITIES
0
LINE
8
BLACK
6
CONTINUOUS
10
13.5744
20
-7.22638
11
13.5751
21
-7.2238
0
LINE
8
BLACK
6
CONTINUOUS
10
13.5751
20
-7.2238
11
13.577
21
-7.22192
0
LINE
8
BLACK
6
CONTINUOUS
10
13.577
20
-7.22192
11
13.5795
21
-7.22123
0
LINE
8
BLACK
6
CONTINUOUS
10
13.5795
20
-7.22123
11
13.5821
21
-7.22192
0
LINE
8
BLACK
6
CONTINUOUS
10
13.5821
20
-7.22192
11
13.584
21
-7.2238
0
LINE
8
BLACK
6
CONTINUOUS
10
13.584
20
-7.2238
11
13.5847
21
-7.22638
0
LINE
8
BLACK
6
CONTINUOUS
10
13.5847
20
-7.22638
11
13.584
21
-7.22895
0
LINE
8
BLACK
6
CONTINUOUS
10
13.584
20
-7.22895
11
13.5821
21
-7.23083
0
LINE
8
BLACK
6
CONTINUOUS
10
13.5821
20
-7.23083
11
13.5795
21
-7.23152
0
LINE
8
BLACK
6
CONTINUOUS
10
13.5795
20
-7.23152
11
13.577
21
-7.23083
0
LINE
8
BLACK
6
CONTINUOUS
10
13.577
20
-7.23083
11
13.5751
21
-7.22895
0
LINE
8
BLACK
6
CONTINUOUS
10
13.5751
20
-7.22895
11
13.5744
21
-7.22638
0
LINE
8
BLACK
6
CONTINUOUS
10
13.5791
20
-7.22638
11
13.5792
21
-7.2267
0
LINE
8
BLACK
6
CONTINUOUS
10
13.5792
20
-7.2267
11
13.5795
21
-7.22683
0
LINE
8
BLACK
6
CONTINUOUS
10
13.5795
20
-7.22683
11
13.5799
21
-7.2267
0
LINE
8
BLACK
6
CONTINUOUS
10
13.5799
20
-7.2267
11
13.58
21
-7.22638
0
LINE
8
BLACK
6
CONTINUOUS
10
13.58
20
-7.22638
11
13.5799
21
-7.22606
0
LINE
8
BLACK
6
CONTINUOUS
10
13.5799
20
-7.22606
11
13.5795
21
-7.22592
0
LINE
8
BLACK
6
CONTINUOUS
10
13.5795
20
-7.22592
11
13.5792
21
-7.22606
0
LINE
8
BLACK
6
CONTINUOUS
10
13.5792
20
-7.22606
11
13.5791
21
-7.22638
0
LINE
8
BLACK
6
CONTINUOUS
10
12.8244
20
-7.22638
11
12.8251
21
-7.2238
0
LINE
8
BLACK
6
CONTINUOUS
10
12.8251
20
-7.2238
11
12.827
21
-7.22192
0
LINE
8
BLACK
6
CONTINUOUS
10
12.827
20
-7.22192
11
12.8295
21
-7.22123
0
LINE
8
BLACK
6
CONTINUOUS
10
12.8295
20
-7.22123
11
12.8321
21
-7.22192
0
LINE
8
BLACK
6
CONTINUOUS
10
12.8321
20
-7.22192
11
12.834
21
-7.2238
0
LINE
8
BLACK
6
CONTINUOUS
10
12.834
20
-7.2238
11
12.8347
21
-7.22638
0
LINE
8
BLACK
6
CONTINUOUS
10
12.8347
20
-7.22638
11
12.834
21
-7.22895
0
LINE
8
BLACK
6
CONTINUOUS
10
12.834
20
-7.22895
11
12.8321
21
-7.23083
0
LINE
8
BLACK
6
CONTINUOUS
10
12.8321
20
-7.23083
11
12.8295
21
-7.23152
0
LINE
8
BLACK
6
CONTINUOUS
10
12.8295
20
-7.23152
11
12.827
21
-7.23083
0
LINE
8
BLACK
6
CONTINUOUS
10
12.827
20
-7.23083
11
12.8251
21
-7.22895
0
LINE
8
BLACK
6
CONTINUOUS
10
12.8251
20
-7.22895
11
12.8244
21
-7.22638
0
LINE
8
BLACK
6
CONTINUOUS
10
12.8291
20
-7.22638
11
12.8292
21
-7.2267
0
LINE
8
BLACK
6
CONTINUOUS
10
12.8292
20
-7.2267
11
12.8295
21
-7.22683
0
LINE
8
BLACK
6
CONTINUOUS
10
12.8295
20
-7.22683
11
12.8299
21
-7.2267
0
LINE
8
BLACK
6
CONTINUOUS
10
12.8299
20
-7.2267
11
12.83
21
-7.22638
0
LINE
8
BLACK
6
CONTINUOUS
10
12.83
20
-7.22638
11
12.8299
21
-7.22606
0
LINE
8
BLACK
6
CONTINUOUS
10
12.8299
20
-7.22606
11
12.8295
21
-7.22592
0
LINE
8
BLACK
6
CONTINUOUS
10
12.8295
20
-7.22592
11
12.8292
21
-7.22606
0
LINE
8
BLACK
6
CONTINUOUS
10
12.8292
20
-7.22606
11
12.8291
21
-7.22638
0
LINE
8
BLACK
6
CONTINUOUS
10
12.0744
20
-7.22638
11
12.0751
21
-7.2238
0
LINE
8
BLACK
6
CONTINUOUS
10
12.0751
20
-7.2238
11
12.077
21
-7.22192
0
LINE
8
BLACK
6
CONTINUOUS
10
12.077
20
-7.22192
11
12.0795
21
-7.22123
0
LINE
8
BLACK
6
CONTINUOUS
10
12.0795
20
-7.22123
11
12.0821
21
-7.22192
0
LINE
8
BLACK
6
CONTINUOUS
10
12.0821
20
-7.22192
11
12.084
21
-7.2238
0
LINE
8
BLACK
6
CONTINUOUS
10
12.084
20
-7.2238
11
12.0847
21
-7.22638
0
LINE
8
BLACK
6
CONTINUOUS
10
12.0847
20
-7.22638
11
12.084
21
-7.22895
0
LINE
8
BLACK
6
CONTINUOUS
10
12.084
20
-7.22895
11
12.0821
21
-7.23083
0
LINE
8
BLACK
6
CONTINUOUS
10
12.0821
20
-7.23083
11
12.0795
21
-7.23152
0
LINE
8
BLACK
6
CONTINUOUS
10
12.0795
20
-7.23152
11
12.077
21
-7.23083
0
LINE
8
BLACK
6
CONTINUOUS
10
12.077
20
-7.23083
11
12.0751
21
-7.22895
0
LINE
8
BLACK
6
CONTINUOUS
10
12.0751
20
-7.22895
11
12.0744
21
-7.22638
0
LINE
8
BLACK
6
CONTINUOUS
10
12.0791
20
-7.22638
11
12.0792
21
-7.2267
0
LINE
8
BLACK
6
CONTINUOUS
10
12.0792
20
-7.2267
11
12.0795
21
-7.22683
0
LINE
8
BLACK
6
CONTINUOUS
10
12.0795
20
-7.22683
11
12.0799
21
-7.2267
0
LINE
8
BLACK
6
CONTINUOUS
10
12.0799
20
-7.2267
11
12.08
21
-7.22638
0
LINE
8
BLACK
6
CONTINUOUS
10
12.08
20
-7.22638
11
12.0799
21
-7.22606
0
LINE
8
BLACK
6
CONTINUOUS
10
12.0799
20
-7.22606
11
12.0795
21
-7.22592
0
LINE
8
BLACK
6
CONTINUOUS
10
12.0795
20
-7.22592
11
12.0792
21
-7.22606
0
LINE
8
BLACK
6
CONTINUOUS
10
12.0792
20
-7.22606
11
12.0791
21
-7.22638
0
LINE
8
BLACK
6
CONTINUOUS
10
11.3244
20
-7.22638
11
11.3251
21
-7.2238
0
LINE
8
BLACK
6
CONTINUOUS
10
11.3251
20
-7.2238
11
11.327
21
-7.22192
0
LINE
8
BLACK
6
CONTINUOUS
10
11.327
20
-7.22192
11
11.3295
21
-7.22123
0
LINE
8
BLACK
6
CONTINUOUS
10
11.3295
20
-7.22123
11
11.3321
21
-7.22192
0
LINE
8
BLACK
6
CONTINUOUS
10
11.3321
20
-7.22192
11
11.334
21
-7.2238
0
LINE
8
BLACK
6
CONTINUOUS
10
11.334
20
-7.2238
11
11.3347
21
-7.22638
0
LINE
8
BLACK
6
CONTINUOUS
10
11.3347
20
-7.22638
11
11.334
21
-7.22895
0
LINE
8
BLACK
6
CONTINUOUS
10
11.334
20
-7.22895
11
11.3321
21
-7.23083
0
LINE
8
BLACK
6
CONTINUOUS
10
11.3321
20
-7.23083
11
11.3295
21
-7.23152
0
LINE
8
BLACK
6
CONTINUOUS
10
11.3295
20
-7.23152
11
11.327
21
-7.23083
0
LINE
8
BLACK
6
CONTINUOUS
10
11.327
20
-7.23083
11
11.3251
21
-7.22895
0
LINE
8
BLACK
6
CONTINUOUS
10
11.3251
20
-7.22895
11
11.3244
21
-7.22638
0
LINE
8
BLACK
6
CONTINUOUS
10
11.3291
20
-7.22638
11
11.3292
21
-7.2267
0
LINE
8
BLACK
6
CONTINUOUS
10
11.3292
20
-7.2267
11
11.3295
21
-7.22683
0
LINE
8
BLACK
6
CONTINUOUS
10
11.3295
20
-7.22683
11
11.3299
21
-7.2267
0
LINE
8
BLACK
6
CONTINUOUS
10
11.3299
20
-7.2267
11
11.33
21
-7.22638
0
LINE
8
BLACK
6
CONTINUOUS
10
11.33
20
-7.22638
11
11.3299
21
-7.22606
0
LINE
8
BLACK
6
CONTINUOUS
10
11.3299
20
-7.22606
11
11.3295
21
-7.22592
0
LINE
8
BLACK
6
CONTINUOUS
10
11.3295
20
-7.22592
11
11.3292
21
-7.22606
0
LINE
8
BLACK
6
CONTINUOUS
10
11.3292
20
-7.22606
11
11.3291
21
-7.22638
0
LINE
8
BLACK
6
CONTINUOUS
10
10.5744
20
-7.22638
11
10.5751
21
-7.2238
0
LINE
8
BLACK
6
CONTINUOUS
10
10.5751
20
-7.2238
11
10.577
21
-7.22192
0
LINE
8
BLACK
6
CONTINUOUS
10
10.577
20
-7.22192
11
10.5795
21
-7.22123
0
LINE
8
BLACK
6
CONTINUOUS
10
10.5795
20
-7.22123
11
10.5821
21
-7.22192
0
LINE
8
BLACK
6
CONTINUOUS
10
10.5821
20
-7.22192
11
10.584
21
-7.2238
0
LINE
8
BLACK
6
CONTINUOUS
10
10.584
20
-7.2238
11
10.5847
21
-7.22638
0
LINE
8
BLACK
6
CONTINUOUS
10
10.5847
20
-7.22638
11
10.584
21
-7.22895
0
LINE
8
BLACK
6
CONTINUOUS
10
10.584
20
-7.22895
11
10.5821
21
-7.23083
0
LINE
8
BLACK
6
CONTINUOUS
10
10.5821
20
-7.23083
11
10.5795
21
-7.23152
0
LINE
8
BLACK
6
CONTINUOUS
10
10.5795
20
-7.23152
11
10.577
21
-7.23083
0
LINE
8
BLACK
6
CONTINUOUS
10
10.577
20
-7.23083
11
10.5751
21
-7.22895
0
LINE
8
BLACK
6
CONTINUOUS
10
10.5751
20
-7.22895
11
10.5744
21
-7.22638
0
LINE
8
BLACK
6
CONTINUOUS
10
10.5791
20
-7.22638
11
10.5792
21
-7.2267
0
LINE
8
BLACK
6
CONTINUOUS
10
10.5792
20
-7.2267
11
10.5795
21
-7.22683
0
LINE
8
BLACK
6
CONTINUOUS
10
10.5795
20
-7.22683
11
10.5799
21
-7.2267
0
LINE
8
BLACK
6
CONTINUOUS
10
10.5799
20
-7.2267
11
10.58
21
-7.22638
0
LINE
8
BLACK
6
CONTINUOUS
10
10.58
20
-7.22638
11
10.5799
21
-7.22606
0
LINE
8
BLACK
6
CONTINUOUS
10
10.5799
20
-7.22606
11
10.5795
21
-7.22592
0
LINE
8
BLACK
6
CONTINUOUS
10
10.5795
20
-7.22592
11
10.5792
21
-7.22606
0
LINE
8
BLACK
6
CONTINUOUS
10
10.5792
20
-7.22606
11
10.5791
21
-7.22638
0
LINE
8
BLACK
6
CONTINUOUS
10
9.35563
20
-7.22638
11
9.35632
21
-7.2238
0
LINE
8
BLACK
6
CONTINUOUS
10
9.35632
20
-7.2238
11
9.35821
21
-7.22192
0
LINE
8
BLACK
6
CONTINUOUS
10
9.35821
20
-7.22192
11
9.36078
21
-7.22123
0
LINE
8
BLACK
6
CONTINUOUS
10
9.36078
20
-7.22123
11
9.36335
21
-7.22192
0
LINE
8
BLACK
6
CONTINUOUS
10
9.36335
20
-7.22192
11
9.36524
21
-7.2238
0
LINE
8
BLACK
6
CONTINUOUS
10
9.36524
20
-7.2238
11
9.36593
21
-7.22638
0
LINE
8
BLACK
6
CONTINUOUS
10
9.36593
20
-7.22638
11
9.36524
21
-7.22895
0
LINE
8
BLACK
6
CONTINUOUS
10
9.36524
20
-7.22895
11
9.36335
21
-7.23083
0
LINE
8
BLACK
6
CONTINUOUS
10
9.36335
20
-7.23083
11
9.36078
21
-7.23152
0
LINE
8
BLACK
6
CONTINUOUS
10
9.36078
20
-7.23152
11
9.35821
21
-7.23083
0
LINE
8
BLACK
6
CONTINUOUS
10
9.35821
20
-7.23083
11
9.35632
21
-7.22895
0
LINE
8
BLACK
6
CONTINUOUS
10
9.35632
20
-7.22895
11
9.35563
21
-7.22638
0
LINE
8
BLACK
6
CONTINUOUS
10
9.36032
20
-7.22638
11
9.36046
21
-7.2267
0
LINE
8
BLACK
6
CONTINUOUS
10
9.36046
20
-7.2267
11
9.36078
21
-7.22683
0
LINE
8
BLACK
6
CONTINUOUS
10
9.36078
20
-7.22683
11
9.3611
21
-7.2267
0
LINE
8
BLACK
6
CONTINUOUS
10
9.3611
20
-7.2267
11
9.36124
21
-7.22638
0
LINE
8
BLACK
6
CONTINUOUS
10
9.36124
20
-7.22638
11
9.3611
21
-7.22606
0
LINE
8
BLACK
6
CONTINUOUS
10
9.3611
20
-7.22606
11
9.36078
21
-7.22592
0
LINE
8
BLACK
6
CONTINUOUS
10
9.36078
20
-7.22592
11
9.36046
21
-7.22606
0
LINE
8
BLACK
6
CONTINUOUS
10
9.36046
20
-7.22606
11
9.36032
21
-7.22638
0
LINE
8
BLACK
6
CONTINUOUS
10
9.63776
20
-7.01042
11
9.63834
21
-7.01181
0
LINE
8
BLACK
6
CONTINUOUS
10
9.63834
20
-7.01181
11
9.63834
21
-7.16929
0
LINE
8
BLACK
6
CONTINUOUS
10
9.63834
20
-7.16929
11
9.63776
21
-7.17068
0
LINE
8
BLACK
6
CONTINUOUS
10
9.63776
20
-7.17068
11
9.63637
21
-7.17126
0
LINE
8
BLACK
6
CONTINUOUS
10
9.63637
20
-7.17126
11
9.63498
21
-7.17068
0
LINE
8
BLACK
6
CONTINUOUS
10
9.63498
20
-7.17068
11
9.6344
21
-7.16929
0
LINE
8
BLACK
6
CONTINUOUS
10
9.6344
20
-7.16929
11
9.6344
21
-7.01181
0
LINE
8
BLACK
6
CONTINUOUS
10
9.6344
20
-7.01181
11
9.63498
21
-7.01042
0
LINE
8
BLACK
6
CONTINUOUS
10
9.63498
20
-7.01042
11
9.63637
21
-7.00984
0
LINE
8
BLACK
6
CONTINUOUS
10
9.63637
20
-7.00984
11
9.63776
21
-7.01042
0
LINE
8
BLACK
6
CONTINUOUS
10
8.04313
20
-7.22638
11
8.04382
21
-7.2238
0
LINE
8
BLACK
6
CONTINUOUS
10
8.04382
20
-7.2238
11
8.04571
21
-7.22192
0
LINE
8
BLACK
6
CONTINUOUS
10
8.04571
20
-7.22192
11
8.04828
21
-7.22123
0
LINE
8
BLACK
6
CONTINUOUS
10
8.04828
20
-7.22123
11
8.05085
21
-7.22192
0
LINE
8
BLACK
6
CONTINUOUS
10
8.05085
20
-7.22192
11
8.05274
21
-7.2238
0
LINE
8
BLACK
6
CONTINUOUS
10
8.05274
20
-7.2238
11
8.05343
21
-7.22638
0
LINE
8
BLACK
6
CONTINUOUS
10
8.05343
20
-7.22638
11
8.05274
21
-7.22895
0
LINE
8
BLACK
6
CONTINUOUS
10
8.05274
20
-7.22895
11
8.05085
21
-7.23083
0
LINE
8
BLACK
6
CONTINUOUS
10
8.05085
20
-7.23083
11
8.04828
21
-7.23152
0
LINE
8
BLACK
6
CONTINUOUS
10
8.04828
20
-7.23152
11
8.04571
21
-7.23083
0
LINE
8
BLACK
6
CONTINUOUS
10
8.04571
20
-7.23083
11
8.04382
21
-7.22895
0
LINE
8
BLACK
6
CONTINUOUS
10
8.04382
20
-7.22895
11
8.04313
21
-7.22638
0
LINE
8
BLACK
6
CONTINUOUS
10
8.04782
20
-7.22638
11
8.04796
21
-7.2267
0
LINE
8
BLACK
6
CONTINUOUS
10
8.04796
20
-7.2267
11
8.04828
21
-7.22683
0
LINE
8
BLACK
6
CONTINUOUS
10
8.04828
20
-7.22683
11
8.0486
21
-7.2267
0
LINE
8
BLACK
6
CONTINUOUS
10
8.0486
20
-7.2267
11
8.04874
21
-7.22638
0
LINE
8
BLACK
6
CONTINUOUS
10
8.04874
20
-7.22638
11
8.0486
21
-7.22606
0
LINE
8
BLACK
6
CONTINUOUS
10
8.0486
20
-7.22606
11
8.04828
21
-7.22592
0
LINE
8
BLACK
6
CONTINUOUS
10
8.04828
20
-7.22592
11
8.04796
21
-7.22606
0
LINE
8
BLACK
6
CONTINUOUS
10
8.04796
20
-7.22606
11
8.04782
21
-7.22638
0
LINE
8
BLACK
6
CONTINUOUS
10
6.54313
20
-7.22638
11
6.54382
21
-7.2238
0
LINE
8
BLACK
6
CONTINUOUS
10
6.54382
20
-7.2238
11
6.54571
21
-7.22192
0
LINE
8
BLACK
6
CONTINUOUS
10
6.54571
20
-7.22192
11
6.54828
21
-7.22123
0
LINE
8
BLACK
6
CONTINUOUS
10
6.54828
20
-7.22123
11
6.55085
21
-7.22192
0
LINE
8
BLACK
6
CONTINUOUS
10
6.55085
20
-7.22192
11
6.55274
21
-7.2238
0
LINE
8
BLACK
6
CONTINUOUS
10
6.55274
20
-7.2238
11
6.55343
21
-7.22638
0
LINE
8
BLACK
6
CONTINUOUS
10
6.55343
20
-7.22638
11
6.55274
21
-7.22895
0
LINE
8
BLACK
6
CONTINUOUS
10
6.55274
20
-7.22895
11
6.55085
21
-7.23083
0
LINE
8
BLACK
6
CONTINUOUS
10
6.55085
20
-7.23083
11
6.54828
21
-7.23152
0
LINE
8
BLACK
6
CONTINUOUS
10
6.54828
20
-7.23152
11
6.54571
21
-7.23083
0
LINE
8
BLACK
6
CONTINUOUS
10
6.54571
20
-7.23083
11
6.54382
21
-7.22895
0
LINE
8
BLACK
6
CONTINUOUS
10
6.54382
20
-7.22895
11
6.54313
21
-7.22638
0
LINE
8
BLACK
6
CONTINUOUS
10
6.54782
20
-7.22638
11
6.54796
21
-7.2267
0
LINE
8
BLACK
6
CONTINUOUS
10
6.54796
20
-7.2267
11
6.54828
21
-7.22683
0
LINE
8
BLACK
6
CONTINUOUS
10
6.54828
20
-7.22683
11
6.5486
21
-7.2267
0
LINE
8
BLACK
6
CONTINUOUS
10
6.5486
20
-7.2267
11
6.54874
21
-7.22638
0
LINE
8
BLACK
6
CONTINUOUS
10
6.54874
20
-7.22638
11
6.5486
21
-7.22606
0
LINE
8
BLACK
6
CONTINUOUS
10
6.5486
20
-7.22606
11
6.54828
21
-7.22592
0
LINE
8
BLACK
6
CONTINUOUS
10
6.54828
20
-7.22592
11
6.54796
21
-7.22606
0
LINE
8
BLACK
6
CONTINUOUS
10
6.54796
20
-7.22606
11
6.54782
21
-7.22638
0
LINE
8
BLACK
6
CONTINUOUS
10
5.04313
20
-7.22638
11
5.04382
21
-7.2238
0
LINE
8
BLACK
6
CONTINUOUS
10
5.04382
20
-7.2238
11
5.04571
21
-7.22192
0
LINE
8
BLACK
6
CONTINUOUS
10
5.04571
20
-7.22192
11
5.04828
21
-7.22123
0
LINE
8
BLACK
6
CONTINUOUS
10
5.04828
20
-7.22123
11
5.05085
21
-7.22192
0
LINE
8
BLACK
6
CONTINUOUS
10
5.05085
20
-7.22192
11
5.05274
21
-7.2238
0
LINE
8
BLACK
6
CONTINUOUS
10
5.05274
20
-7.2238
11
5.05343
21
-7.22638
0
LINE
8
BLACK
6
CONTINUOUS
10
5.05343
20
-7.22638
11
5.05274
21
-7.22895
0
LINE
8
BLACK
6
CONTINUOUS
10
5.05274
20
-7.22895
11
5.05085
21
-7.23083
0
LINE
8
BLACK
6
CONTINUOUS
10
5.05085
20
-7.23083
11
5.04828
21
-7.23152
0
LINE
8
BLACK
6
CONTINUOUS
10
5.04828
20
-7.23152
11
5.04571
21
-7.23083
0
LINE
8
BLACK
6
CONTINUOUS
10
5.04571
20
-7.23083
11
5.04382
21
-7.22895
0
LINE
8
BLACK
6
CONTINUOUS
10
5.04382
20
-7.22895
11
5.04313
21
-7.22638
0
LINE
8
BLACK
6
CONTINUOUS
10
5.04782
20
-7.22638
11
5.04796
21
-7.2267
0
LINE
8
BLACK
6
CONTINUOUS
10
5.04796
20
-7.2267
11
5.04828
21
-7.22683
0
LINE
8
BLACK
6
CONTINUOUS
10
5.04828
20
-7.22683
11
5.0486
21
-7.2267
0
LINE
8
BLACK
6
CONTINUOUS
10
5.0486
20
-7.2267
11
5.04874
21
-7.22638
0
LINE
8
BLACK
6
CONTINUOUS
10
5.04874
20
-7.22638
11
5.0486
21
-7.22606
0
LINE
8
BLACK
6
CONTINUOUS
10
5.0486
20
-7.22606
11
5.04828
21
-7.22592
0
LINE
8
BLACK
6
CONTINUOUS
10
5.04828
20
-7.22592
11
5.04796
21
-7.22606
0
LINE
8
BLACK
6
CONTINUOUS
10
5.04796
20
-7.22606
11
5.04782
21
-7.22638
0
LINE
8
BLACK
6
CONTINUOUS
10
4.19938
20
-7.22638
11
4.20007
21
-7.2238
0
LINE
8
BLACK
6
CONTINUOUS
10
4.20007
20
-7.2238
11
4.20195
21
-7.22192
0
LINE
8
BLACK
6
CONTINUOUS
10
4.20195
20
-7.22192
11
4.20453
21
-7.22123
0
LINE
8
BLACK
6
CONTINUOUS
10
4.20453
20
-7.22123
11
4.2071
21
-7.22192
0
LINE
8
BLACK
6
CONTINUOUS
10
4.2071
20
-7.22192
11
4.20898
21
-7.2238
0
LINE
8
BLACK
6
CONTINUOUS
10
4.20898
20
-7.2238
11
4.20967
21
-7.22638
0
LINE
8
BLACK
6
CONTINUOUS
10
4.20967
20
-7.22638
11
4.20898
21
-7.22895
0
LINE
8
BLACK
6
CONTINUOUS
10
4.20898
20
-7.22895
11
4.2071
21
-7.23083
0
LINE
8
BLACK
6
CONTINUOUS
10
4.2071
20
-7.23083
11
4.20453
21
-7.23152
0
LINE
8
BLACK
6
CONTINUOUS
10
4.20453
20
-7.23152
11
4.20195
21
-7.23083
0
LINE
8
BLACK
6
CONTINUOUS
10
4.20195
20
-7.23083
11
4.20007
21
-7.22895
0
LINE
8
BLACK
6
CONTINUOUS
10
4.20007
20
-7.22895
11
4.19938
21
-7.22638
0
LINE
8
BLACK
6
CONTINUOUS
10
4.20407
20
-7.22638
11
4.2042
21
-7.2267
0
LINE
8
BLACK
6
CONTINUOUS
10
4.2042
20
-7.2267
11
4.20453
21
-7.22683
0
LINE
8
BLACK
6
CONTINUOUS
10
4.20453
20
-7.22683
11
4.20485
21
-7.2267
0
LINE
8
BLACK
6
CONTINUOUS
10
4.20485
20
-7.2267
11
4.20498
21
-7.22638
0
LINE
8
BLACK
6
CONTINUOUS
10
4.20498
20
-7.22638
11
4.20485
21
-7.22606
0
LINE
8
BLACK
6
CONTINUOUS
10
4.20485
20
-7.22606
11
4.20453
21
-7.22592
0
LINE
8
BLACK
6
CONTINUOUS
10
4.20453
20
-7.22592
11
4.2042
21
-7.22606
0
LINE
8
BLACK
6
CONTINUOUS
10
4.2042
20
-7.22606
11
4.20407
21
-7.22638
0
LINE
8
BLACK
6
CONTINUOUS
10
3.44938
20
-7.22638
11
3.45007
21
-7.2238
0
LINE
8
BLACK
6
CONTINUOUS
10
3.45007
20
-7.2238
11
3.45195
21
-7.22192
0
LINE
8
BLACK
6
CONTINUOUS
10
3.45195
20
-7.22192
11
3.45453
21
-7.22123
0
LINE
8
BLACK
6
CONTINUOUS
10
3.45453
20
-7.22123
11
3.4571
21
-7.22192
0
LINE
8
BLACK
6
CONTINUOUS
10
3.4571
20
-7.22192
11
3.45898
21
-7.2238
0
LINE
8
BLACK
6
CONTINUOUS
10
3.45898
20
-7.2238
11
3.45967
21
-7.22638
0
LINE
8
BLACK
6
CONTINUOUS
10
3.45967
20
-7.22638
11
3.45898
21
-7.22895
0
LINE
8
BLACK
6
CONTINUOUS
10
3.45898
20
-7.22895
11
3.4571
21
-7.23083
0
LINE
8
BLACK
6
CONTINUOUS
10
3.4571
20
-7.23083
11
3.45453
21
-7.23152
0
LINE
8
BLACK
6
CONTINUOUS
10
3.45453
20
-7.23152
11
3.45195
21
-7.23083
0
LINE
8
BLACK
6
CONTINUOUS
10
3.45195
20
-7.23083
11
3.45007
21
-7.22895
0
LINE
8
BLACK
6
CONTINUOUS
10
3.45007
20
-7.22895
11
3.44938
21
-7.22638
0
LINE
8
BLACK
6
CONTINUOUS
10
3.45407
20
-7.22638
11
3.4542
21
-7.2267
0
LINE
8
BLACK
6
CONTINUOUS
10
3.4542
20
-7.2267
11
3.45453
21
-7.22683
0
LINE
8
BLACK
6
CONTINUOUS
10
3.45453
20
-7.22683
11
3.45485
21
-7.2267
0
LINE
8
BLACK
6
CONTINUOUS
10
3.45485
20
-7.2267
11
3.45498
21
-7.22638
0
LINE
8
BLACK
6
CONTINUOUS
10
3.45498
20
-7.22638
11
3.45485
21
-7.22606
0
LINE
8
BLACK
6
CONTINUOUS
10
3.45485
20
-7.22606
11
3.45453
21
-7.22592
0
LINE
8
BLACK
6
CONTINUOUS
10
3.45453
20
-7.22592
11
3.4542
21
-7.22606
0
LINE
8
BLACK
6
CONTINUOUS
10
3.4542
20
-7.22606
11
3.45407
21
-7.22638
0
LINE
8
BLACK
6
CONTINUOUS
10
2.51188
20
-7.22638
11
2.51257
21
-7.2238
0
LINE
8
BLACK
6
CONTINUOUS
10
2.51257
20
-7.2238
11
2.51445
21
-7.22192
0
LINE
8
BLACK
6
CONTINUOUS
10
2.51445
20
-7.22192
11
2.51703
21
-7.22123
0
LINE
8
BLACK
6
CONTINUOUS
10
2.51703
20
-7.22123
11
2.5196
21
-7.22192
0
LINE
8
BLACK
6
CONTINUOUS
10
2.5196
20
-7.22192
11
2.52148
21
-7.2238
0
LINE
8
BLACK
6
CONTINUOUS
10
2.52148
20
-7.2238
11
2.52217
21
-7.22638
0
LINE
8
BLACK
6
CONTINUOUS
10
2.52217
20
-7.22638
11
2.52148
21
-7.22895
0
LINE
8
BLACK
6
CONTINUOUS
10
2.52148
20
-7.22895
11
2.5196
21
-7.23083
0
LINE
8
BLACK
6
CONTINUOUS
10
2.5196
20
-7.23083
11
2.51703
21
-7.23152
0
LINE
8
BLACK
6
CONTINUOUS
10
2.51703
20
-7.23152
11
2.51445
21
-7.23083
0
LINE
8
BLACK
6
CONTINUOUS
10
2.51445
20
-7.23083
11
2.51257
21
-7.22895
0
LINE
8
BLACK
6
CONTINUOUS
10
2.51257
20
-7.22895
11
2.51188
21
-7.22638
0
LINE
8
BLACK
6
CONTINUOUS
10
2.51657
20
-7.22638
11
2.5167
21
-7.2267
0
LINE
8
BLACK
6
CONTINUOUS
10
2.5167
20
-7.2267
11
2.51703
21
-7.22683
0
LINE
8
BLACK
6
CONTINUOUS
10
2.51703
20
-7.22683
11
2.51735
21
-7.2267
0
LINE
8
BLACK
6
CONTINUOUS
10
2.51735
20
-7.2267
11
2.51748
21
-7.22638
0
LINE
8
BLACK
6
CONTINUOUS
10
2.51748
20
-7.22638
11
2.51735
21
-7.22606
0
LINE
8
BLACK
6
CONTINUOUS
10
2.51735
20
-7.22606
11
2.51703
21
-7.22592
0
LINE
8
BLACK
6
CONTINUOUS
10
2.51703
20
-7.22592
11
2.5167
21
-7.22606
0
LINE
8
BLACK
6
CONTINUOUS
10
2.5167
20
-7.22606
11
2.51657
21
-7.22638
0
LINE
8
BLACK
6
CONTINUOUS
10
12.8244
20
-6.47638
11
12.8251
21
-6.4738
0
LINE
8
BLACK
6
CONTINUOUS
10
12.8251
20
-6.4738
11
12.827
21
-6.47192
0
LINE
8
BLACK
6
CONTINUOUS
10
12.827
20
-6.47192
11
12.8295
21
-6.47123
0
LINE
8
BLACK
6
CONTINUOUS
10
12.8295
20
-6.47123
11
12.8321
21
-6.47192
0
LINE
8
BLACK
6
CONTINUOUS
10
12.8321
20
-6.47192
11
12.834
21
-6.4738
0
LINE
8
BLACK
6
CONTINUOUS
10
12.834
20
-6.4738
11
12.8347
21
-6.47638
0
LINE
8
BLACK
6
CONTINUOUS
10
12.8347
20
-6.47638
11
12.834
21
-6.47895
0
LINE
8
BLACK
6
CONTINUOUS
10
12.834
20
-6.47895
11
12.8321
21
-6.48083
0
LINE
8
BLACK
6
CONTINUOUS
10
12.8321
20
-6.48083
11
12.8295
21
-6.48152
0
LINE
8
BLACK
6
CONTINUOUS
10
12.8295
20
-6.48152
11
12.827
21
-6.48083
0
LINE
8
BLACK
6
CONTINUOUS
10
12.827
20
-6.48083
11
12.8251
21
-6.47895
0
LINE
8
BLACK
6
CONTINUOUS
10
12.8251
20
-6.47895
11
12.8244
21
-6.47638
0
LINE
8
BLACK
6
CONTINUOUS
10
12.8291
20
-6.47638
11
12.8292
21
-6.4767
0
LINE
8
BLACK
6
CONTINUOUS
10
12.8292
20
-6.4767
11
12.8295
21
-6.47683
0
LINE
8
BLACK
6
CONTINUOUS
10
12.8295
20
-6.47683
11
12.8299
21
-6.4767
0
LINE
8
BLACK
6
CONTINUOUS
10
12.8299
20
-6.4767
11
12.83
21
-6.47638
0
LINE
8
BLACK
6
CONTINUOUS
10
12.83
20
-6.47638
11
12.8299
21
-6.47606
0
LINE
8
BLACK
6
CONTINUOUS
10
12.8299
20
-6.47606
11
12.8295
21
-6.47592
0
LINE
8
BLACK
6
CONTINUOUS
10
12.8295
20
-6.47592
11
12.8292
21
-6.47606
0
LINE
8
BLACK
6
CONTINUOUS
10
12.8292
20
-6.47606
11
12.8291
21
-6.47638
0
LINE
8
BLACK
6
CONTINUOUS
10
11.7931
20
-6.47638
11
11.7938
21
-6.4738
0
LINE
8
BLACK
6
CONTINUOUS
10
11.7938
20
-6.4738
11
11.7957
21
-6.47192
0
LINE
8
BLACK
6
CONTINUOUS
10
11.7957
20
-6.47192
11
11.7983
21
-6.47123
0
LINE
8
BLACK
6
CONTINUOUS
10
11.7983
20
-6.47123
11
11.8009
21
-6.47192
0
LINE
8
BLACK
6
CONTINUOUS
10
11.8009
20
-6.47192
11
11.8027
21
-6.4738
0
LINE
8
BLACK
6
CONTINUOUS
10
11.8027
20
-6.4738
11
11.8034
21
-6.47638
0
LINE
8
BLACK
6
CONTINUOUS
10
11.8034
20
-6.47638
11
11.8027
21
-6.47895
0
LINE
8
BLACK
6
CONTINUOUS
10
11.8027
20
-6.47895
11
11.8009
21
-6.48083
0
LINE
8
BLACK
6
CONTINUOUS
10
11.8009
20
-6.48083
11
11.7983
21
-6.48152
0
LINE
8
BLACK
6
CONTINUOUS
10
11.7983
20
-6.48152
11
11.7957
21
-6.48083
0
LINE
8
BLACK
6
CONTINUOUS
10
11.7957
20
-6.48083
11
11.7938
21
-6.47895
0
LINE
8
BLACK
6
CONTINUOUS
10
11.7938
20
-6.47895
11
11.7931
21
-6.47638
0
LINE
8
BLACK
6
CONTINUOUS
10
11.7978
20
-6.47638
11
11.798
21
-6.4767
0
LINE
8
BLACK
6
CONTINUOUS
10
11.798
20
-6.4767
11
11.7983
21
-6.47683
0
LINE
8
BLACK
6
CONTINUOUS
10
11.7983
20
-6.47683
11
11.7986
21
-6.4767
0
LINE
8
BLACK
6
CONTINUOUS
10
11.7986
20
-6.4767
11
11.7987
21
-6.47638
0
LINE
8
BLACK
6
CONTINUOUS
10
11.7987
20
-6.47638
11
11.7986
21
-6.47606
0
LINE
8
BLACK
6
CONTINUOUS
10
11.7986
20
-6.47606
11
11.7983
21
-6.47592
0
LINE
8
BLACK
6
CONTINUOUS
10
11.7983
20
-6.47592
11
11.798
21
-6.47606
0
LINE
8
BLACK
6
CONTINUOUS
10
11.798
20
-6.47606
11
11.7978
21
-6.47638
0
LINE
8
BLACK
6
CONTINUOUS
10
10.7619
20
-6.47638
11
10.7626
21
-6.4738
0
LINE
8
BLACK
6
CONTINUOUS
10
10.7626
20
-6.4738
11
10.7645
21
-6.47192
0
LINE
8
BLACK
6
CONTINUOUS
10
10.7645
20
-6.47192
11
10.767
21
-6.47123
0
LINE
8
BLACK
6
CONTINUOUS
10
10.767
20
-6.47123
11
10.7696
21
-6.47192
0
LINE
8
BLACK
6
CONTINUOUS
10
10.7696
20
-6.47192
11
10.7715
21
-6.4738
0
LINE
8
BLACK
6
CONTINUOUS
10
10.7715
20
-6.4738
11
10.7722
21
-6.47638
0
LINE
8
BLACK
6
CONTINUOUS
10
10.7722
20
-6.47638
11
10.7715
21
-6.47895
0
LINE
8
BLACK
6
CONTINUOUS
10
10.7715
20
-6.47895
11
10.7696
21
-6.48083
0
LINE
8
BLACK
6
CONTINUOUS
10
10.7696
20
-6.48083
11
10.767
21
-6.48152
0
LINE
8
BLACK
6
CONTINUOUS
10
10.767
20
-6.48152
11
10.7645
21
-6.48083
0
LINE
8
BLACK
6
CONTINUOUS
10
10.7645
20
-6.48083
11
10.7626
21
-6.47895
0
LINE
8
BLACK
6
CONTINUOUS
10
10.7626
20
-6.47895
11
10.7619
21
-6.47638
0
LINE
8
BLACK
6
CONTINUOUS
10
10.7666
20
-6.47638
11
10.7667
21
-6.4767
0
LINE
8
BLACK
6
CONTINUOUS
10
10.7667
20
-6.4767
11
10.767
21
-6.47683
0
LINE
8
BLACK
6
CONTINUOUS
10
10.767
20
-6.47683
11
10.7674
21
-6.4767
0
LINE
8
BLACK
6
CONTINUOUS
10
10.7674
20
-6.4767
11
10.7675
21
-6.47638
0
LINE
8
BLACK
6
CONTINUOUS
10
10.7675
20
-6.47638
11
10.7674
21
-6.47606
0
LINE
8
BLACK
6
CONTINUOUS
10
10.7674
20
-6.47606
11
10.767
21
-6.47592
0
LINE
8
BLACK
6
CONTINUOUS
10
10.767
20
-6.47592
11
10.7667
21
-6.47606
0
LINE
8
BLACK
6
CONTINUOUS
10
10.7667
20
-6.47606
11
10.7666
21
-6.47638
0
LINE
8
BLACK
6
CONTINUOUS
10
10.0119
20
-6.47638
11
10.0126
21
-6.4738
0
LINE
8
BLACK
6
CONTINUOUS
10
10.0126
20
-6.4738
11
10.0145
21
-6.47192
0
LINE
8
BLACK
6
CONTINUOUS
10
10.0145
20
-6.47192
11
10.017
21
-6.47123
0
LINE
8
BLACK
6
CONTINUOUS
10
10.017
20
-6.47123
11
10.0196
21
-6.47192
0
LINE
8
BLACK
6
CONTINUOUS
10
10.0196
20
-6.47192
11
10.0215
21
-6.4738
0
LINE
8
BLACK
6
CONTINUOUS
10
10.0215
20
-6.4738
11
10.0222
21
-6.47638
0
LINE
8
BLACK
6
CONTINUOUS
10
10.0222
20
-6.47638
11
10.0215
21
-6.47895
0
LINE
8
BLACK
6
CONTINUOUS
10
10.0215
20
-6.47895
11
10.0196
21
-6.48083
0
LINE
8
BLACK
6
CONTINUOUS
10
10.0196
20
-6.48083
11
10.017
21
-6.48152
0
LINE
8
BLACK
6
CONTINUOUS
10
10.017
20
-6.48152
11
10.0145
21
-6.48083
0
LINE
8
BLACK
6
CONTINUOUS
10
10.0145
20
-6.48083
11
10.0126
21
-6.47895
0
LINE
8
BLACK
6
CONTINUOUS
10
10.0126
20
-6.47895
11
10.0119
21
-6.47638
0
LINE
8
BLACK
6
CONTINUOUS
10
10.0166
20
-6.47638
11
10.0167
21
-6.4767
0
LINE
8
BLACK
6
CONTINUOUS
10
10.0167
20
-6.4767
11
10.017
21
-6.47683
0
LINE
8
BLACK
6
CONTINUOUS
10
10.017
20
-6.47683
11
10.0174
21
-6.4767
0
LINE
8
BLACK
6
CONTINUOUS
10
10.0174
20
-6.4767
11
10.0175
21
-6.47638
0
LINE
8
BLACK
6
CONTINUOUS
10
10.0175
20
-6.47638
11
10.0174
21
-6.47606
0
LINE
8
BLACK
6
CONTINUOUS
10
10.0174
20
-6.47606
11
10.017
21
-6.47592
0
LINE
8
BLACK
6
CONTINUOUS
10
10.017
20
-6.47592
11
10.0167
21
-6.47606
0
LINE
8
BLACK
6
CONTINUOUS
10
10.0167
20
-6.47606
11
10.0166
21
-6.47638
0
LINE
8
BLACK
6
CONTINUOUS
10
9.26188
20
-6.47638
11
9.26257
21
-6.4738
0
LINE
8
BLACK
6
CONTINUOUS
10
9.26257
20
-6.4738
11
9.26445
21
-6.47192
0
LINE
8
BLACK
6
CONTINUOUS
10
9.26445
20
-6.47192
11
9.26703
21
-6.47123
0
LINE
8
BLACK
6
CONTINUOUS
10
9.26703
20
-6.47123
11
9.2696
21
-6.47192
0
LINE
8
BLACK
6
CONTINUOUS
10
9.2696
20
-6.47192
11
9.27148
21
-6.4738
0
LINE
8
BLACK
6
CONTINUOUS
10
9.27148
20
-6.4738
11
9.27217
21
-6.47638
0
LINE
8
BLACK
6
CONTINUOUS
10
9.27217
20
-6.47638
11
9.27148
21
-6.47895
0
LINE
8
BLACK
6
CONTINUOUS
10
9.27148
20
-6.47895
11
9.2696
21
-6.48083
0
LINE
8
BLACK
6
CONTINUOUS
10
9.2696
20
-6.48083
11
9.26703
21
-6.48152
0
LINE
8
BLACK
6
CONTINUOUS
10
9.26703
20
-6.48152
11
9.26445
21
-6.48083
0
LINE
8
BLACK
6
CONTINUOUS
10
9.26445
20
-6.48083
11
9.26257
21
-6.47895
0
LINE
8
BLACK
6
CONTINUOUS
10
9.26257
20
-6.47895
11
9.26188
21
-6.47638
0
LINE
8
BLACK
6
CONTINUOUS
10
9.26657
20
-6.47638
11
9.2667
21
-6.4767
0
LINE
8
BLACK
6
CONTINUOUS
10
9.2667
20
-6.4767
11
9.26703
21
-6.47683
0
LINE
8
BLACK
6
CONTINUOUS
10
9.26703
20
-6.47683
11
9.26735
21
-6.4767
0
LINE
8
BLACK
6
CONTINUOUS
10
9.26735
20
-6.4767
11
9.26748
21
-6.47638
0
LINE
8
BLACK
6
CONTINUOUS
10
9.26748
20
-6.47638
11
9.26735
21
-6.47606
0
LINE
8
BLACK
6
CONTINUOUS
10
9.26735
20
-6.47606
11
9.26703
21
-6.47592
0
LINE
8
BLACK
6
CONTINUOUS
10
9.26703
20
-6.47592
11
9.2667
21
-6.47606
0
LINE
8
BLACK
6
CONTINUOUS
10
9.2667
20
-6.47606
11
9.26657
21
-6.47638
0
LINE
8
BLACK
6
CONTINUOUS
10
8.51188
20
-6.47638
11
8.51257
21
-6.4738
0
LINE
8
BLACK
6
CONTINUOUS
10
8.51257
20
-6.4738
11
8.51445
21
-6.47192
0
LINE
8
BLACK
6
CONTINUOUS
10
8.51445
20
-6.47192
11
8.51703
21
-6.47123
0
LINE
8
BLACK
6
CONTINUOUS
10
8.51703
20
-6.47123
11
8.5196
21
-6.47192
0
LINE
8
BLACK
6
CONTINUOUS
10
8.5196
20
-6.47192
11
8.52148
21
-6.4738
0
LINE
8
BLACK
6
CONTINUOUS
10
8.52148
20
-6.4738
11
8.52217
21
-6.47638
0
LINE
8
BLACK
6
CONTINUOUS
10
8.52217
20
-6.47638
11
8.52148
21
-6.47895
0
LINE
8
BLACK
6
CONTINUOUS
10
8.52148
20
-6.47895
11
8.5196
21
-6.48083
0
LINE
8
BLACK
6
CONTINUOUS
10
8.5196
20
-6.48083
11
8.51703
21
-6.48152
0
LINE
8
BLACK
6
CONTINUOUS
10
8.51703
20
-6.48152
11
8.51445
21
-6.48083
0
LINE
8
BLACK
6
CONTINUOUS
10
8.51445
20
-6.48083
11
8.51257
21
-6.47895
0
LINE
8
BLACK
6
CONTINUOUS
10
8.51257
20
-6.47895
11
8.51188
21
-6.47638
0
LINE
8
BLACK
6
CONTINUOUS
10
8.51657
20
-6.47638
11
8.5167
21
-6.4767
0
LINE
8
BLACK
6
CONTINUOUS
10
8.5167
20
-6.4767
11
8.51703
21
-6.47683
0
LINE
8
BLACK
6
CONTINUOUS
10
8.51703
20
-6.47683
11
8.51735
21
-6.4767
0
LINE
8
BLACK
6
CONTINUOUS
10
8.51735
20
-6.4767
11
8.51748
21
-6.47638
0
LINE
8
BLACK
6
CONTINUOUS
10
8.51748
20
-6.47638
11
8.51735
21
-6.47606
0
LINE
8
BLACK
6
CONTINUOUS
10
8.51735
20
-6.47606
11
8.51703
21
-6.47592
0
LINE
8
BLACK
6
CONTINUOUS
10
8.51703
20
-6.47592
11
8.5167
21
-6.47606
0
LINE
8
BLACK
6
CONTINUOUS
10
8.5167
20
-6.47606
11
8.51657
21
-6.47638
0
LINE
8
BLACK
6
CONTINUOUS
10
7.76188
20
-6.47638
11
7.76257
21
-6.4738
0
LINE
8
BLACK
6
CONTINUOUS
10
7.76257
20
-6.4738
11
7.76445
21
-6.47192
0
LINE
8
BLACK
6
CONTINUOUS
10
7.76445
20
-6.47192
11
7.76703
21
-6.47123
0
LINE
8
BLACK
6
CONTINUOUS
10
7.76703
20
-6.47123
11
7.7696
21
-6.47192
0
LINE
8
BLACK
6
CONTINUOUS
10
7.7696
20
-6.47192
11
7.77148
21
-6.4738
0
LINE
8
BLACK
6
CONTINUOUS
10
7.77148
20
-6.4738
11
7.77217
21
-6.47638
0
LINE
8
BLACK
6
CONTINUOUS
10
7.77217
20
-6.47638
11
7.77148
21
-6.47895
0
LINE
8
BLACK
6
CONTINUOUS
10
7.77148
20
-6.47895
11
7.7696
21
-6.48083
0
LINE
8
BLACK
6
CONTINUOUS
10
7.7696
20
-6.48083
11
7.76703
21
-6.48152
0
LINE
8
BLACK
6
CONTINUOUS
10
7.76703
20
-6.48152
11
7.76445
21
-6.48083
0
LINE
8
BLACK
6
CONTINUOUS
10
7.76445
20
-6.48083
11
7.76257
21
-6.47895
0
LINE
8
BLACK
6
CONTINUOUS
10
7.76257
20
-6.47895
11
7.76188
21
-6.47638
0
LINE
8
BLACK
6
CONTINUOUS
10
7.76657
20
-6.47638
11
7.7667
21
-6.4767
0
LINE
8
BLACK
6
CONTINUOUS
10
7.7667
20
-6.4767
11
7.76703
21
-6.47683
0
LINE
8
BLACK
6
CONTINUOUS
10
7.76703
20
-6.47683
11
7.76735
21
-6.4767
0
LINE
8
BLACK
6
CONTINUOUS
10
7.76735
20
-6.4767
11
7.76748
21
-6.47638
0
LINE
8
BLACK
6
CONTINUOUS
10
7.76748
20
-6.47638
11
7.76735
21
-6.47606
0
LINE
8
BLACK
6
CONTINUOUS
10
7.76735
20
-6.47606
11
7.76703
21
-6.47592
0
LINE
8
BLACK
6
CONTINUOUS
10
7.76703
20
-6.47592
11
7.7667
21
-6.47606
0
LINE
8
BLACK
6
CONTINUOUS
10
7.7667
20
-6.47606
11
7.76657
21
-6.47638
0
LINE
8
BLACK
6
CONTINUOUS
10
6.26188
20
-6.47638
11
6.26257
21
-6.4738
0
LINE
8
BLACK
6
CONTINUOUS
10
6.26257
20
-6.4738
11
6.26445
21
-6.47192
0
LINE
8
BLACK
6
CONTINUOUS
10
6.26445
20
-6.47192
11
6.26703
21
-6.47123
0
LINE
8
BLACK
6
CONTINUOUS
10
6.26703
20
-6.47123
11
6.2696
21
-6.47192
0
LINE
8
BLACK
6
CONTINUOUS
10
6.2696
20
-6.47192
11
6.27148
21
-6.4738
0
LINE
8
BLACK
6
CONTINUOUS
10
6.27148
20
-6.4738
11
6.27217
21
-6.47638
0
LINE
8
BLACK
6
CONTINUOUS
10
6.27217
20
-6.47638
11
6.27148
21
-6.47895
0
LINE
8
BLACK
6
CONTINUOUS
10
6.27148
20
-6.47895
11
6.2696
21
-6.48083
0
LINE
8
BLACK
6
CONTINUOUS
10
6.2696
20
-6.48083
11
6.26703
21
-6.48152
0
LINE
8
BLACK
6
CONTINUOUS
10
6.26703
20
-6.48152
11
6.26445
21
-6.48083
0
LINE
8
BLACK
6
CONTINUOUS
10
6.26445
20
-6.48083
11
6.26257
21
-6.47895
0
LINE
8
BLACK
6
CONTINUOUS
10
6.26257
20
-6.47895
11
6.26188
21
-6.47638
0
LINE
8
BLACK
6
CONTINUOUS
10
6.26657
20
-6.47638
11
6.2667
21
-6.4767
0
LINE
8
BLACK
6
CONTINUOUS
10
6.2667
20
-6.4767
11
6.26703
21
-6.47683
0
LINE
8
BLACK
6
CONTINUOUS
10
6.26703
20
-6.47683
11
6.26735
21
-6.4767
0
LINE
8
BLACK
6
CONTINUOUS
10
6.26735
20
-6.4767
11
6.26748
21
-6.47638
0
LINE
8
BLACK
6
CONTINUOUS
10
6.26748
20
-6.47638
11
6.26735
21
-6.47606
0
LINE
8
BLACK
6
CONTINUOUS
10
6.26735
20
-6.47606
11
6.26703
21
-6.47592
0
LINE
8
BLACK
6
CONTINUOUS
10
6.26703
20
-6.47592
11
6.2667
21
-6.47606
0
LINE
8
BLACK
6
CONTINUOUS
10
6.2667
20
-6.47606
11
6.26657
21
-6.47638
0
LINE
8
BLACK
6
CONTINUOUS
10
7.01188
20
-6.47638
11
7.01257
21
-6.4738
0
LINE
8
BLACK
6
CONTINUOUS
10
7.01257
20
-6.4738
11
7.01445
21
-6.47192
0
LINE
8
BLACK
6
CONTINUOUS
10
7.01445
20
-6.47192
11
7.01703
21
-6.47123
0
LINE
8
BLACK
6
CONTINUOUS
10
7.01703
20
-6.47123
11
7.0196
21
-6.47192
0
LINE
8
BLACK
6
CONTINUOUS
10
7.0196
20
-6.47192
11
7.02148
21
-6.4738
0
LINE
8
BLACK
6
CONTINUOUS
10
7.02148
20
-6.4738
11
7.02217
21
-6.47638
0
LINE
8
BLACK
6
CONTINUOUS
10
7.02217
20
-6.47638
11
7.02148
21
-6.47895
0
LINE
8
BLACK
6
CONTINUOUS
10
7.02148
20
-6.47895
11
7.0196
21
-6.48083
0
LINE
8
BLACK
6
CONTINUOUS
10
7.0196
20
-6.48083
11
7.01703
21
-6.48152
0
LINE
8
BLACK
6
CONTINUOUS
10
7.01703
20
-6.48152
11
7.01445
21
-6.48083
0
LINE
8
BLACK
6
CONTINUOUS
10
7.01445
20
-6.48083
11
7.01257
21
-6.47895
0
LINE
8
BLACK
6
CONTINUOUS
10
7.01257
20
-6.47895
11
7.01188
21
-6.47638
0
LINE
8
BLACK
6
CONTINUOUS
10
7.01657
20
-6.47638
11
7.0167
21
-6.4767
0
LINE
8
BLACK
6
CONTINUOUS
10
7.0167
20
-6.4767
11
7.01703
21
-6.47683
0
LINE
8
BLACK
6
CONTINUOUS
10
7.01703
20
-6.47683
11
7.01735
21
-6.4767
0
LINE
8
BLACK
6
CONTINUOUS
10
7.01735
20
-6.4767
11
7.01748
21
-6.47638
0
LINE
8
BLACK
6
CONTINUOUS
10
7.01748
20
-6.47638
11
7.01735
21
-6.47606
0
LINE
8
BLACK
6
CONTINUOUS
10
7.01735
20
-6.47606
11
7.01703
21
-6.47592
0
LINE
8
BLACK
6
CONTINUOUS
10
7.01703
20
-6.47592
11
7.0167
21
-6.47606
0
LINE
8
BLACK
6
CONTINUOUS
10
7.0167
20
-6.47606
11
7.01657
21
-6.47638
0
LINE
8
BLACK
6
CONTINUOUS
10
5.51188
20
-6.47638
11
5.51257
21
-6.4738
0
LINE
8
BLACK
6
CONTINUOUS
10
5.51257
20
-6.4738
11
5.51445
21
-6.47192
0
LINE
8
BLACK
6
CONTINUOUS
10
5.51445
20
-6.47192
11
5.51703
21
-6.47123
0
LINE
8
BLACK
6
CONTINUOUS
10
5.51703
20
-6.47123
11
5.5196
21
-6.47192
0
LINE
8
BLACK
6
CONTINUOUS
10
5.5196
20
-6.47192
11
5.52148
21
-6.4738
0
LINE
8
BLACK
6
CONTINUOUS
10
5.52148
20
-6.4738
11
5.52217
21
-6.47638
0
LINE
8
BLACK
6
CONTINUOUS
10
5.52217
20
-6.47638
11
5.52148
21
-6.47895
0
LINE
8
BLACK
6
CONTINUOUS
10
5.52148
20
-6.47895
11
5.5196
21
-6.48083
0
LINE
8
BLACK
6
CONTINUOUS
10
5.5196
20
-6.48083
11
5.51703
21
-6.48152
0
LINE
8
BLACK
6
CONTINUOUS
10
5.51703
20
-6.48152
11
5.51445
21
-6.48083
0
LINE
8
BLACK
6
CONTINUOUS
10
5.51445
20
-6.48083
11
5.51257
21
-6.47895
0
LINE
8
BLACK
6
CONTINUOUS
10
5.51257
20
-6.47895
11
5.51188
21
-6.47638
0
LINE
8
BLACK
6
CONTINUOUS
10
5.51657
20
-6.47638
11
5.5167
21
-6.4767
0
LINE
8
BLACK
6
CONTINUOUS
10
5.5167
20
-6.4767
11
5.51703
21
-6.47683
0
LINE
8
BLACK
6
CONTINUOUS
10
5.51703
20
-6.47683
11
5.51735
21
-6.4767
0
LINE
8
BLACK
6
CONTINUOUS
10
5.51735
20
-6.4767
11
5.51748
21
-6.47638
0
LINE
8
BLACK
6
CONTINUOUS
10
5.51748
20
-6.47638
11
5.51735
21
-6.47606
0
LINE
8
BLACK
6
CONTINUOUS
10
5.51735
20
-6.47606
11
5.51703
21
-6.47592
0
LINE
8
BLACK
6
CONTINUOUS
10
5.51703
20
-6.47592
11
5.5167
21
-6.47606
0
LINE
8
BLACK
6
CONTINUOUS
10
5.5167
20
-6.47606
11
5.51657
21
-6.47638
0
LINE
8
BLACK
6
CONTINUOUS
10
4.76188
20
-6.47638
11
4.76257
21
-6.4738
0
LINE
8
BLACK
6
CONTINUOUS
10
4.76257
20
-6.4738
11
4.76445
21
-6.47192
0
LINE
8
BLACK
6
CONTINUOUS
10
4.76445
20
-6.47192
11
4.76703
21
-6.47123
0
LINE
8
BLACK
6
CONTINUOUS
10
4.76703
20
-6.47123
11
4.7696
21
-6.47192
0
LINE
8
BLACK
6
CONTINUOUS
10
4.7696
20
-6.47192
11
4.77148
21
-6.4738
0
LINE
8
BLACK
6
CONTINUOUS
10
4.77148
20
-6.4738
11
4.77217
21
-6.47638
0
LINE
8
BLACK
6
CONTINUOUS
10
4.77217
20
-6.47638
11
4.77148
21
-6.47895
0
LINE
8
BLACK
6
CONTINUOUS
10
4.77148
20
-6.47895
11
4.7696
21
-6.48083
0
LINE
8
BLACK
6
CONTINUOUS
10
4.7696
20
-6.48083
11
4.76703
21
-6.48152
0
LINE
8
BLACK
6
CONTINUOUS
10
4.76703
20
-6.48152
11
4.76445
21
-6.48083
0
LINE
8
BLACK
6
CONTINUOUS
10
4.76445
20
-6.48083
11
4.76257
21
-6.47895
0
LINE
8
BLACK
6
CONTINUOUS
10
4.76257
20
-6.47895
11
4.76188
21
-6.47638
0
LINE
8
BLACK
6
CONTINUOUS
10
4.76657
20
-6.47638
11
4.7667
21
-6.4767
0
LINE
8
BLACK
6
CONTINUOUS
10
4.7667
20
-6.4767
11
4.76703
21
-6.47683
0
LINE
8
BLACK
6
CONTINUOUS
10
4.76703
20
-6.47683
11
4.76735
21
-6.4767
0
LINE
8
BLACK
6
CONTINUOUS
10
4.76735
20
-6.4767
11
4.76748
21
-6.47638
0
LINE
8
BLACK
6
CONTINUOUS
10
4.76748
20
-6.47638
11
4.76735
21
-6.47606
0
LINE
8
BLACK
6
CONTINUOUS
10
4.76735
20
-6.47606
11
4.76703
21
-6.47592
0
LINE
8
BLACK
6
CONTINUOUS
10
4.76703
20
-6.47592
11
4.7667
21
-6.47606
0
LINE
8
BLACK
6
CONTINUOUS
10
4.7667
20
-6.47606
11
4.76657
21
-6.47638
0
LINE
8
BLACK
6
CONTINUOUS
10
4.01188
20
-6.47638
11
4.01257
21
-6.4738
0
LINE
8
BLACK
6
CONTINUOUS
10
4.01257
20
-6.4738
11
4.01445
21
-6.47192
0
LINE
8
BLACK
6
CONTINUOUS
10
4.01445
20
-6.47192
11
4.01703
21
-6.47123
0
LINE
8
BLACK
6
CONTINUOUS
10
4.01703
20
-6.47123
11
4.0196
21
-6.47192
0
LINE
8
BLACK
6
CONTINUOUS
10
4.0196
20
-6.47192
11
4.02148
21
-6.4738
0
LINE
8
BLACK
6
CONTINUOUS
10
4.02148
20
-6.4738
11
4.02217
21
-6.47638
0
LINE
8
BLACK
6
CONTINUOUS
10
4.02217
20
-6.47638
11
4.02148
21
-6.47895
0
LINE
8
BLACK
6
CONTINUOUS
10
4.02148
20
-6.47895
11
4.0196
21
-6.48083
0
LINE
8
BLACK
6
CONTINUOUS
10
4.0196
20
-6.48083
11
4.01703
21
-6.48152
0
LINE
8
BLACK
6
CONTINUOUS
10
4.01703
20
-6.48152
11
4.01445
21
-6.48083
0
LINE
8
BLACK
6
CONTINUOUS
10
4.01445
20
-6.48083
11
4.01257
21
-6.47895
0
LINE
8
BLACK
6
CONTINUOUS
10
4.01257
20
-6.47895
11
4.01188
21
-6.47638
0
LINE
8
BLACK
6
CONTINUOUS
10
4.01657
20
-6.47638
11
4.0167
21
-6.4767
0
LINE
8
BLACK
6
CONTINUOUS
10
4.0167
20
-6.4767
11
4.01703
21
-6.47683
0
LINE
8
BLACK
6
CONTINUOUS
10
4.01703
20
-6.47683
11
4.01735
21
-6.4767
0
LINE
8
BLACK
6
CONTINUOUS
10
4.01735
20
-6.4767
11
4.01748
21
-6.47638
0
LINE
8
BLACK
6
CONTINUOUS
10
4.01748
20
-6.47638
11
4.01735
21
-6.47606
0
LINE
8
BLACK
6
CONTINUOUS
10
4.01735
20
-6.47606
11
4.01703
21
-6.47592
0
LINE
8
BLACK
6
CONTINUOUS
10
4.01703
20
-6.47592
11
4.0167
21
-6.47606
0
LINE
8
BLACK
6
CONTINUOUS
10
4.0167
20
-6.47606
11
4.01657
21
-6.47638
0
LINE
8
BLACK
6
CONTINUOUS
10
2.79313
20
-6.47638
11
2.79382
21
-6.4738
0
LINE
8
BLACK
6
CONTINUOUS
10
2.79382
20
-6.4738
11
2.79571
21
-6.47192
0
LINE
8
BLACK
6
CONTINUOUS
10
2.79571
20
-6.47192
11
2.79828
21
-6.47123
0
LINE
8
BLACK
6
CONTINUOUS
10
2.79828
20
-6.47123
11
2.80085
21
-6.47192
0
LINE
8
BLACK
6
CONTINUOUS
10
2.80085
20
-6.47192
11
2.80274
21
-6.4738
0
LINE
8
BLACK
6
CONTINUOUS
10
2.80274
20
-6.4738
11
2.80343
21
-6.47638
0
LINE
8
BLACK
6
CONTINUOUS
10
2.80343
20
-6.47638
11
2.80274
21
-6.47895
0
LINE
8
BLACK
6
CONTINUOUS
10
2.80274
20
-6.47895
11
2.80085
21
-6.48083
0
LINE
8
BLACK
6
CONTINUOUS
10
2.80085
20
-6.48083
11
2.79828
21
-6.48152
0
LINE
8
BLACK
6
CONTINUOUS
10
2.79828
20
-6.48152
11
2.79571
21
-6.48083
0
LINE
8
BLACK
6
CONTINUOUS
10
2.79571
20
-6.48083
11
2.79382
21
-6.47895
0
LINE
8
BLACK
6
CONTINUOUS
10
2.79382
20
-6.47895
11
2.79313
21
-6.47638
0
LINE
8
BLACK
6
CONTINUOUS
10
2.79782
20
-6.47638
11
2.79796
21
-6.4767
0
LINE
8
BLACK
6
CONTINUOUS
10
2.79796
20
-6.4767
11
2.79828
21
-6.47683
0
LINE
8
BLACK
6
CONTINUOUS
10
2.79828
20
-6.47683
11
2.7986
21
-6.4767
0
LINE
8
BLACK
6
CONTINUOUS
10
2.7986
20
-6.4767
11
2.79874
21
-6.47638
0
LINE
8
BLACK
6
CONTINUOUS
10
2.79874
20
-6.47638
11
2.7986
21
-6.47606
0
LINE
8
BLACK
6
CONTINUOUS
10
2.7986
20
-6.47606
11
2.79828
21
-6.47592
0
LINE
8
BLACK
6
CONTINUOUS
10
2.79828
20
-6.47592
11
2.79796
21
-6.47606
0
LINE
8
BLACK
6
CONTINUOUS
10
2.79796
20
-6.47606
11
2.79782
21
-6.47638
0
LINE
8
BLACK
6
CONTINUOUS
10
12.7306
20
-5.35138
11
12.7313
21
-5.3488
0
LINE
8
BLACK
6
CONTINUOUS
10
12.7313
20
-5.3488
11
12.7332
21
-5.34692
0
LINE
8
BLACK
6
CONTINUOUS
10
12.7332
20
-5.34692
11
12.7358
21
-5.34623
0
LINE
8
BLACK
6
CONTINUOUS
10
12.7358
20
-5.34623
11
12.7384
21
-5.34692
0
LINE
8
BLACK
6
CONTINUOUS
10
12.7384
20
-5.34692
11
12.7402
21
-5.3488
0
LINE
8
BLACK
6
CONTINUOUS
10
12.7402
20
-5.3488
11
12.7409
21
-5.35138
0
LINE
8
BLACK
6
CONTINUOUS
10
12.7409
20
-5.35138
11
12.7402
21
-5.35395
0
LINE
8
BLACK
6
CONTINUOUS
10
12.7402
20
-5.35395
11
12.7384
21
-5.35583
0
LINE
8
BLACK
6
CONTINUOUS
10
12.7384
20
-5.35583
11
12.7358
21
-5.35652
0
LINE
8
BLACK
6
CONTINUOUS
10
12.7358
20
-5.35652
11
12.7332
21
-5.35583
0
LINE
8
BLACK
6
CONTINUOUS
10
12.7332
20
-5.35583
11
12.7313
21
-5.35395
0
LINE
8
BLACK
6
CONTINUOUS
10
12.7313
20
-5.35395
11
12.7306
21
-5.35138
0
LINE
8
BLACK
6
CONTINUOUS
10
12.7353
20
-5.35138
11
12.7355
21
-5.3517
0
LINE
8
BLACK
6
CONTINUOUS
10
12.7355
20
-5.3517
11
12.7358
21
-5.35183
0
LINE
8
BLACK
6
CONTINUOUS
10
12.7358
20
-5.35183
11
12.7361
21
-5.3517
0
LINE
8
BLACK
6
CONTINUOUS
10
12.7361
20
-5.3517
11
12.7362
21
-5.35138
0
LINE
8
BLACK
6
CONTINUOUS
10
12.7362
20
-5.35138
11
12.7361
21
-5.35106
0
LINE
8
BLACK
6
CONTINUOUS
10
12.7361
20
-5.35106
11
12.7358
21
-5.35092
0
LINE
8
BLACK
6
CONTINUOUS
10
12.7358
20
-5.35092
11
12.7355
21
-5.35106
0
LINE
8
BLACK
6
CONTINUOUS
10
12.7355
20
-5.35106
11
12.7353
21
-5.35138
0
LINE
8
BLACK
6
CONTINUOUS
10
11.8869
20
-5.72638
11
11.8876
21
-5.7238
0
LINE
8
BLACK
6
CONTINUOUS
10
11.8876
20
-5.7238
11
11.8895
21
-5.72192
0
LINE
8
BLACK
6
CONTINUOUS
10
11.8895
20
-5.72192
11
11.892
21
-5.72123
0
LINE
8
BLACK
6
CONTINUOUS
10
11.892
20
-5.72123
11
11.8946
21
-5.72192
0
LINE
8
BLACK
6
CONTINUOUS
10
11.8946
20
-5.72192
11
11.8965
21
-5.7238
0
LINE
8
BLACK
6
CONTINUOUS
10
11.8965
20
-5.7238
11
11.8972
21
-5.72638
0
LINE
8
BLACK
6
CONTINUOUS
10
11.8972
20
-5.72638
11
11.8965
21
-5.72895
0
LINE
8
BLACK
6
CONTINUOUS
10
11.8965
20
-5.72895
11
11.8946
21
-5.73083
0
LINE
8
BLACK
6
CONTINUOUS
10
11.8946
20
-5.73083
11
11.892
21
-5.73152
0
LINE
8
BLACK
6
CONTINUOUS
10
11.892
20
-5.73152
11
11.8895
21
-5.73083
0
LINE
8
BLACK
6
CONTINUOUS
10
11.8895
20
-5.73083
11
11.8876
21
-5.72895
0
LINE
8
BLACK
6
CONTINUOUS
10
11.8876
20
-5.72895
11
11.8869
21
-5.72638
0
LINE
8
BLACK
6
CONTINUOUS
10
11.8916
20
-5.72638
11
11.8917
21
-5.7267
0
LINE
8
BLACK
6
CONTINUOUS
10
11.8917
20
-5.7267
11
11.892
21
-5.72683
0
LINE
8
BLACK
6
CONTINUOUS
10
11.892
20
-5.72683
11
11.8924
21
-5.7267
0
LINE
8
BLACK
6
CONTINUOUS
10
11.8924
20
-5.7267
11
11.8925
21
-5.72638
0
LINE
8
BLACK
6
CONTINUOUS
10
11.8925
20
-5.72638
11
11.8924
21
-5.72606
0
LINE
8
BLACK
6
CONTINUOUS
10
11.8924
20
-5.72606
11
11.892
21
-5.72592
0
LINE
8
BLACK
6
CONTINUOUS
10
11.892
20
-5.72592
11
11.8917
21
-5.72606
0
LINE
8
BLACK
6
CONTINUOUS
10
11.8917
20
-5.72606
11
11.8916
21
-5.72638
0
LINE
8
BLACK
6
CONTINUOUS
10
11.1369
20
-5.72638
11
11.1376
21
-5.7238
0
LINE
8
BLACK
6
CONTINUOUS
10
11.1376
20
-5.7238
11
11.1395
21
-5.72192
0
LINE
8
BLACK
6
CONTINUOUS
10
11.1395
20
-5.72192
11
11.142
21
-5.72123
0
LINE
8
BLACK
6
CONTINUOUS
10
11.142
20
-5.72123
11
11.1446
21
-5.72192
0
LINE
8
BLACK
6
CONTINUOUS
10
11.1446
20
-5.72192
11
11.1465
21
-5.7238
0
LINE
8
BLACK
6
CONTINUOUS
10
11.1465
20
-5.7238
11
11.1472
21
-5.72638
0
LINE
8
BLACK
6
CONTINUOUS
10
11.1472
20
-5.72638
11
11.1465
21
-5.72895
0
LINE
8
BLACK
6
CONTINUOUS
10
11.1465
20
-5.72895
11
11.1446
21
-5.73083
0
LINE
8
BLACK
6
CONTINUOUS
10
11.1446
20
-5.73083
11
11.142
21
-5.73152
0
LINE
8
BLACK
6
CONTINUOUS
10
11.142
20
-5.73152
11
11.1395
21
-5.73083
0
LINE
8
BLACK
6
CONTINUOUS
10
11.1395
20
-5.73083
11
11.1376
21
-5.72895
0
LINE
8
BLACK
6
CONTINUOUS
10
11.1376
20
-5.72895
11
11.1369
21
-5.72638
0
LINE
8
BLACK
6
CONTINUOUS
10
11.1416
20
-5.72638
11
11.1417
21
-5.7267
0
LINE
8
BLACK
6
CONTINUOUS
10
11.1417
20
-5.7267
11
11.142
21
-5.72683
0
LINE
8
BLACK
6
CONTINUOUS
10
11.142
20
-5.72683
11
11.1424
21
-5.7267
0
LINE
8
BLACK
6
CONTINUOUS
10
11.1424
20
-5.7267
11
11.1425
21
-5.72638
0
LINE
8
BLACK
6
CONTINUOUS
10
11.1425
20
-5.72638
11
11.1424
21
-5.72606
0
LINE
8
BLACK
6
CONTINUOUS
10
11.1424
20
-5.72606
11
11.142
21
-5.72592
0
LINE
8
BLACK
6
CONTINUOUS
10
11.142
20
-5.72592
11
11.1417
21
-5.72606
0
LINE
8
BLACK
6
CONTINUOUS
10
11.1417
20
-5.72606
11
11.1416
21
-5.72638
0
LINE
8
BLACK
6
CONTINUOUS
10
10.3869
20
-5.72638
11
10.3876
21
-5.7238
0
LINE
8
BLACK
6
CONTINUOUS
10
10.3876
20
-5.7238
11
10.3895
21
-5.72192
0
LINE
8
BLACK
6
CONTINUOUS
10
10.3895
20
-5.72192
11
10.392
21
-5.72123
0
LINE
8
BLACK
6
CONTINUOUS
10
10.392
20
-5.72123
11
10.3946
21
-5.72192
0
LINE
8
BLACK
6
CONTINUOUS
10
10.3946
20
-5.72192
11
10.3965
21
-5.7238
0
LINE
8
BLACK
6
CONTINUOUS
10
10.3965
20
-5.7238
11
10.3972
21
-5.72638
0
LINE
8
BLACK
6
CONTINUOUS
10
10.3972
20
-5.72638
11
10.3965
21
-5.72895
0
LINE
8
BLACK
6
CONTINUOUS
10
10.3965
20
-5.72895
11
10.3946
21
-5.73083
0
LINE
8
BLACK
6
CONTINUOUS
10
10.3946
20
-5.73083
11
10.392
21
-5.73152
0
LINE
8
BLACK
6
CONTINUOUS
10
10.392
20
-5.73152
11
10.3895
21
-5.73083
0
LINE
8
BLACK
6
CONTINUOUS
10
10.3895
20
-5.73083
11
10.3876
21
-5.72895
0
LINE
8
BLACK
6
CONTINUOUS
10
10.3876
20
-5.72895
11
10.3869
21
-5.72638
0
LINE
8
BLACK
6
CONTINUOUS
10
10.3916
20
-5.72638
11
10.3917
21
-5.7267
0
LINE
8
BLACK
6
CONTINUOUS
10
10.3917
20
-5.7267
11
10.392
21
-5.72683
0
LINE
8
BLACK
6
CONTINUOUS
10
10.392
20
-5.72683
11
10.3924
21
-5.7267
0
LINE
8
BLACK
6
CONTINUOUS
10
10.3924
20
-5.7267
11
10.3925
21
-5.72638
0
LINE
8
BLACK
6
CONTINUOUS
10
10.3925
20
-5.72638
11
10.3924
21
-5.72606
0
LINE
8
BLACK
6
CONTINUOUS
10
10.3924
20
-5.72606
11
10.392
21
-5.72592
0
LINE
8
BLACK
6
CONTINUOUS
10
10.392
20
-5.72592
11
10.3917
21
-5.72606
0
LINE
8
BLACK
6
CONTINUOUS
10
10.3917
20
-5.72606
11
10.3916
21
-5.72638
0
LINE
8
BLACK
6
CONTINUOUS
10
9.63688
20
-5.72638
11
9.63757
21
-5.7238
0
LINE
8
BLACK
6
CONTINUOUS
10
9.63757
20
-5.7238
11
9.63945
21
-5.72192
0
LINE
8
BLACK
6
CONTINUOUS
10
9.63945
20
-5.72192
11
9.64203
21
-5.72123
0
LINE
8
BLACK
6
CONTINUOUS
10
9.64203
20
-5.72123
11
9.6446
21
-5.72192
0
LINE
8
BLACK
6
CONTINUOUS
10
9.6446
20
-5.72192
11
9.64648
21
-5.7238
0
LINE
8
BLACK
6
CONTINUOUS
10
9.64648
20
-5.7238
11
9.64717
21
-5.72638
0
LINE
8
BLACK
6
CONTINUOUS
10
9.64717
20
-5.72638
11
9.64648
21
-5.72895
0
LINE
8
BLACK
6
CONTINUOUS
10
9.64648
20
-5.72895
11
9.6446
21
-5.73083
0
LINE
8
BLACK
6
CONTINUOUS
10
9.6446
20
-5.73083
11
9.64203
21
-5.73152
0
LINE
8
BLACK
6
CONTINUOUS
10
9.64203
20
-5.73152
11
9.63945
21
-5.73083
0
LINE
8
BLACK
6
CONTINUOUS
10
9.63945
20
-5.73083
11
9.63757
21
-5.72895
0
LINE
8
BLACK
6
CONTINUOUS
10
9.63757
20
-5.72895
11
9.63688
21
-5.72638
0
LINE
8
BLACK
6
CONTINUOUS
10
9.64157
20
-5.72638
11
9.6417
21
-5.7267
0
LINE
8
BLACK
6
CONTINUOUS
10
9.6417
20
-5.7267
11
9.64203
21
-5.72683
0
LINE
8
BLACK
6
CONTINUOUS
10
9.64203
20
-5.72683
11
9.64235
21
-5.7267
0
LINE
8
BLACK
6
CONTINUOUS
10
9.64235
20
-5.7267
11
9.64248
21
-5.72638
0
LINE
8
BLACK
6
CONTINUOUS
10
9.64248
20
-5.72638
11
9.64235
21
-5.72606
0
LINE
8
BLACK
6
CONTINUOUS
10
9.64235
20
-5.72606
11
9.64203
21
-5.72592
0
LINE
8
BLACK
6
CONTINUOUS
10
9.64203
20
-5.72592
11
9.6417
21
-5.72606
0
LINE
8
BLACK
6
CONTINUOUS
10
9.6417
20
-5.72606
11
9.64157
21
-5.72638
0
LINE
8
BLACK
6
CONTINUOUS
10
8.88688
20
-5.72638
11
8.88757
21
-5.7238
0
LINE
8
BLACK
6
CONTINUOUS
10
8.88757
20
-5.7238
11
8.88945
21
-5.72192
0
LINE
8
BLACK
6
CONTINUOUS
10
8.88945
20
-5.72192
11
8.89203
21
-5.72123
0
LINE
8
BLACK
6
CONTINUOUS
10
8.89203
20
-5.72123
11
8.8946
21
-5.72192
0
LINE
8
BLACK
6
CONTINUOUS
10
8.8946
20
-5.72192
11
8.89648
21
-5.7238
0
LINE
8
BLACK
6
CONTINUOUS
10
8.89648
20
-5.7238
11
8.89717
21
-5.72638
0
LINE
8
BLACK
6
CONTINUOUS
10
8.89717
20
-5.72638
11
8.89648
21
-5.72895
0
LINE
8
BLACK
6
CONTINUOUS
10
8.89648
20
-5.72895
11
8.8946
21
-5.73083
0
LINE
8
BLACK
6
CONTINUOUS
10
8.8946
20
-5.73083
11
8.89203
21
-5.73152
0
LINE
8
BLACK
6
CONTINUOUS
10
8.89203
20
-5.73152
11
8.88945
21
-5.73083
0
LINE
8
BLACK
6
CONTINUOUS
10
8.88945
20
-5.73083
11
8.88757
21
-5.72895
0
LINE
8
BLACK
6
CONTINUOUS
10
8.88757
20
-5.72895
11
8.88688
21
-5.72638
0
LINE
8
BLACK
6
CONTINUOUS
10
8.89157
20
-5.72638
11
8.8917
21
-5.7267
0
LINE
8
BLACK
6
CONTINUOUS
10
8.8917
20
-5.7267
11
8.89203
21
-5.72683
0
LINE
8
BLACK
6
CONTINUOUS
10
8.89203
20
-5.72683
11
8.89235
21
-5.7267
0
LINE
8
BLACK
6
CONTINUOUS
10
8.89235
20
-5.7267
11
8.89248
21
-5.72638
0
LINE
8
BLACK
6
CONTINUOUS
10
8.89248
20
-5.72638
11
8.89235
21
-5.72606
0
LINE
8
BLACK
6
CONTINUOUS
10
8.89235
20
-5.72606
11
8.89203
21
-5.72592
0
LINE
8
BLACK
6
CONTINUOUS
10
8.89203
20
-5.72592
11
8.8917
21
-5.72606
0
LINE
8
BLACK
6
CONTINUOUS
10
8.8917
20
-5.72606
11
8.89157
21
-5.72638
0
LINE
8
BLACK
6
CONTINUOUS
10
8.13688
20
-5.72638
11
8.13757
21
-5.7238
0
LINE
8
BLACK
6
CONTINUOUS
10
8.13757
20
-5.7238
11
8.13945
21
-5.72192
0
LINE
8
BLACK
6
CONTINUOUS
10
8.13945
20
-5.72192
11
8.14203
21
-5.72123
0
LINE
8
BLACK
6
CONTINUOUS
10
8.14203
20
-5.72123
11
8.1446
21
-5.72192
0
LINE
8
BLACK
6
CONTINUOUS
10
8.1446
20
-5.72192
11
8.14648
21
-5.7238
0
LINE
8
BLACK
6
CONTINUOUS
10
8.14648
20
-5.7238
11
8.14717
21
-5.72638
0
LINE
8
BLACK
6
CONTINUOUS
10
8.14717
20
-5.72638
11
8.14648
21
-5.72895
0
LINE
8
BLACK
6
CONTINUOUS
10
8.14648
20
-5.72895
11
8.1446
21
-5.73083
0
LINE
8
BLACK
6
CONTINUOUS
10
8.1446
20
-5.73083
11
8.14203
21
-5.73152
0
LINE
8
BLACK
6
CONTINUOUS
10
8.14203
20
-5.73152
11
8.13945
21
-5.73083
0
LINE
8
BLACK
6
CONTINUOUS
10
8.13945
20
-5.73083
11
8.13757
21
-5.72895
0
LINE
8
BLACK
6
CONTINUOUS
10
8.13757
20
-5.72895
11
8.13688
21
-5.72638
0
LINE
8
BLACK
6
CONTINUOUS
10
8.14157
20
-5.72638
11
8.1417
21
-5.7267
0
LINE
8
BLACK
6
CONTINUOUS
10
8.1417
20
-5.7267
11
8.14203
21
-5.72683
0
LINE
8
BLACK
6
CONTINUOUS
10
8.14203
20
-5.72683
11
8.14235
21
-5.7267
0
LINE
8
BLACK
6
CONTINUOUS
10
8.14235
20
-5.7267
11
8.14248
21
-5.72638
0
LINE
8
BLACK
6
CONTINUOUS
10
8.14248
20
-5.72638
11
8.14235
21
-5.72606
0
LINE
8
BLACK
6
CONTINUOUS
10
8.14235
20
-5.72606
11
8.14203
21
-5.72592
0
LINE
8
BLACK
6
CONTINUOUS
10
8.14203
20
-5.72592
11
8.1417
21
-5.72606
0
LINE
8
BLACK
6
CONTINUOUS
10
8.1417
20
-5.72606
11
8.14157
21
-5.72638
0
LINE
8
BLACK
6
CONTINUOUS
10
7.38688
20
-5.72638
11
7.38757
21
-5.7238
0
LINE
8
BLACK
6
CONTINUOUS
10
7.38757
20
-5.7238
11
7.38945
21
-5.72192
0
LINE
8
BLACK
6
CONTINUOUS
10
7.38945
20
-5.72192
11
7.39203
21
-5.72123
0
LINE
8
BLACK
6
CONTINUOUS
10
7.39203
20
-5.72123
11
7.3946
21
-5.72192
0
LINE
8
BLACK
6
CONTINUOUS
10
7.3946
20
-5.72192
11
7.39648
21
-5.7238
0
LINE
8
BLACK
6
CONTINUOUS
10
7.39648
20
-5.7238
11
7.39717
21
-5.72638
0
LINE
8
BLACK
6
CONTINUOUS
10
7.39717
20
-5.72638
11
7.39648
21
-5.72895
0
LINE
8
BLACK
6
CONTINUOUS
10
7.39648
20
-5.72895
11
7.3946
21
-5.73083
0
LINE
8
BLACK
6
CONTINUOUS
10
7.3946
20
-5.73083
11
7.39203
21
-5.73152
0
LINE
8
BLACK
6
CONTINUOUS
10
7.39203
20
-5.73152
11
7.38945
21
-5.73083
0
LINE
8
BLACK
6
CONTINUOUS
10
7.38945
20
-5.73083
11
7.38757
21
-5.72895
0
LINE
8
BLACK
6
CONTINUOUS
10
7.38757
20
-5.72895
11
7.38688
21
-5.72638
0
LINE
8
BLACK
6
CONTINUOUS
10
7.39157
20
-5.72638
11
7.3917
21
-5.7267
0
LINE
8
BLACK
6
CONTINUOUS
10
7.3917
20
-5.7267
11
7.39203
21
-5.72683
0
LINE
8
BLACK
6
CONTINUOUS
10
7.39203
20
-5.72683
11
7.39235
21
-5.7267
0
LINE
8
BLACK
6
CONTINUOUS
10
7.39235
20
-5.7267
11
7.39248
21
-5.72638
0
LINE
8
BLACK
6
CONTINUOUS
10
7.39248
20
-5.72638
11
7.39235
21
-5.72606
0
LINE
8
BLACK
6
CONTINUOUS
10
7.39235
20
-5.72606
11
7.39203
21
-5.72592
0
LINE
8
BLACK
6
CONTINUOUS
10
7.39203
20
-5.72592
11
7.3917
21
-5.72606
0
LINE
8
BLACK
6
CONTINUOUS
10
7.3917
20
-5.72606
11
7.39157
21
-5.72638
0
LINE
8
BLACK
6
CONTINUOUS
10
6.63688
20
-5.72638
11
6.63757
21
-5.7238
0
LINE
8
BLACK
6
CONTINUOUS
10
6.63757
20
-5.7238
11
6.63945
21
-5.72192
0
LINE
8
BLACK
6
CONTINUOUS
10
6.63945
20
-5.72192
11
6.64203
21
-5.72123
0
LINE
8
BLACK
6
CONTINUOUS
10
6.64203
20
-5.72123
11
6.6446
21
-5.72192
0
LINE
8
BLACK
6
CONTINUOUS
10
6.6446
20
-5.72192
11
6.64648
21
-5.7238
0
LINE
8
BLACK
6
CONTINUOUS
10
6.64648
20
-5.7238
11
6.64717
21
-5.72638
0
LINE
8
BLACK
6
CONTINUOUS
10
6.64717
20
-5.72638
11
6.64648
21
-5.72895
0
LINE
8
BLACK
6
CONTINUOUS
10
6.64648
20
-5.72895
11
6.6446
21
-5.73083
0
LINE
8
BLACK
6
CONTINUOUS
10
6.6446
20
-5.73083
11
6.64203
21
-5.73152
0
LINE
8
BLACK
6
CONTINUOUS
10
6.64203
20
-5.73152
11
6.63945
21
-5.73083
0
LINE
8
BLACK
6
CONTINUOUS
10
6.63945
20
-5.73083
11
6.63757
21
-5.72895
0
LINE
8
BLACK
6
CONTINUOUS
10
6.63757
20
-5.72895
11
6.63688
21
-5.72638
0
LINE
8
BLACK
6
CONTINUOUS
10
6.64157
20
-5.72638
11
6.6417
21
-5.7267
0
LINE
8
BLACK
6
CONTINUOUS
10
6.6417
20
-5.7267
11
6.64203
21
-5.72683
0
LINE
8
BLACK
6
CONTINUOUS
10
6.64203
20
-5.72683
11
6.64235
21
-5.7267
0
LINE
8
BLACK
6
CONTINUOUS
10
6.64235
20
-5.7267
11
6.64248
21
-5.72638
0
LINE
8
BLACK
6
CONTINUOUS
10
6.64248
20
-5.72638
11
6.64235
21
-5.72606
0
LINE
8
BLACK
6
CONTINUOUS
10
6.64235
20
-5.72606
11
6.64203
21
-5.72592
0
LINE
8
BLACK
6
CONTINUOUS
10
6.64203
20
-5.72592
11
6.6417
21
-5.72606
0
LINE
8
BLACK
6
CONTINUOUS
10
6.6417
20
-5.72606
11
6.64157
21
-5.72638
0
LINE
8
BLACK
6
CONTINUOUS
10
5.88688
20
-5.72638
11
5.88757
21
-5.7238
0
LINE
8
BLACK
6
CONTINUOUS
10
5.88757
20
-5.7238
11
5.88945
21
-5.72192
0
LINE
8
BLACK
6
CONTINUOUS
10
5.88945
20
-5.72192
11
5.89203
21
-5.72123
0
LINE
8
BLACK
6
CONTINUOUS
10
5.89203
20
-5.72123
11
5.8946
21
-5.72192
0
LINE
8
BLACK
6
CONTINUOUS
10
5.8946
20
-5.72192
11
5.89648
21
-5.7238
0
LINE
8
BLACK
6
CONTINUOUS
10
5.89648
20
-5.7238
11
5.89717
21
-5.72638
0
LINE
8
BLACK
6
CONTINUOUS
10
5.89717
20
-5.72638
11
5.89648
21
-5.72895
0
LINE
8
BLACK
6
CONTINUOUS
10
5.89648
20
-5.72895
11
5.8946
21
-5.73083
0
LINE
8
BLACK
6
CONTINUOUS
10
5.8946
20
-5.73083
11
5.89203
21
-5.73152
0
LINE
8
BLACK
6
CONTINUOUS
10
5.89203
20
-5.73152
11
5.88945
21
-5.73083
0
LINE
8
BLACK
6
CONTINUOUS
10
5.88945
20
-5.73083
11
5.88757
21
-5.72895
0
LINE
8
BLACK
6
CONTINUOUS
10
5.88757
20
-5.72895
11
5.88688
21
-5.72638
0
LINE
8
BLACK
6
CONTINUOUS
10
5.89157
20
-5.72638
11
5.8917
21
-5.7267
0
LINE
8
BLACK
6
CONTINUOUS
10
5.8917
20
-5.7267
11
5.89203
21
-5.72683
0
LINE
8
BLACK
6
CONTINUOUS
10
5.89203
20
-5.72683
11
5.89235
21
-5.7267
0
LINE
8
BLACK
6
CONTINUOUS
10
5.89235
20
-5.7267
11
5.89248
21
-5.72638
0
LINE
8
BLACK
6
CONTINUOUS
10
5.89248
20
-5.72638
11
5.89235
21
-5.72606
0
LINE
8
BLACK
6
CONTINUOUS
10
5.89235
20
-5.72606
11
5.89203
21
-5.72592
0
LINE
8
BLACK
6
CONTINUOUS
10
5.89203
20
-5.72592
11
5.8917
21
-5.72606
0
LINE
8
BLACK
6
CONTINUOUS
10
5.8917
20
-5.72606
11
5.89157
21
-5.72638
0
LINE
8
BLACK
6
CONTINUOUS
10
5.13688
20
-5.72638
11
5.13757
21
-5.7238
0
LINE
8
BLACK
6
CONTINUOUS
10
5.13757
20
-5.7238
11
5.13945
21
-5.72192
0
LINE
8
BLACK
6
CONTINUOUS
10
5.13945
20
-5.72192
11
5.14203
21
-5.72123
0
LINE
8
BLACK
6
CONTINUOUS
10
5.14203
20
-5.72123
11
5.1446
21
-5.72192
0
LINE
8
BLACK
6
CONTINUOUS
10
5.1446
20
-5.72192
11
5.14648
21
-5.7238
0
LINE
8
BLACK
6
CONTINUOUS
10
5.14648
20
-5.7238
11
5.14717
21
-5.72638
0
LINE
8
BLACK
6
CONTINUOUS
10
5.14717
20
-5.72638
11
5.14648
21
-5.72895
0
LINE
8
BLACK
6
CONTINUOUS
10
5.14648
20
-5.72895
11
5.1446
21
-5.73083
0
LINE
8
BLACK
6
CONTINUOUS
10
5.1446
20
-5.73083
11
5.14203
21
-5.73152
0
LINE
8
BLACK
6
CONTINUOUS
10
5.14203
20
-5.73152
11
5.13945
21
-5.73083
0
LINE
8
BLACK
6
CONTINUOUS
10
5.13945
20
-5.73083
11
5.13757
21
-5.72895
0
LINE
8
BLACK
6
CONTINUOUS
10
5.13757
20
-5.72895
11
5.13688
21
-5.72638
0
LINE
8
BLACK
6
CONTINUOUS
10
5.14157
20
-5.72638
11
5.1417
21
-5.7267
0
LINE
8
BLACK
6
CONTINUOUS
10
5.1417
20
-5.7267
11
5.14203
21
-5.72683
0
LINE
8
BLACK
6
CONTINUOUS
10
5.14203
20
-5.72683
11
5.14235
21
-5.7267
0
LINE
8
BLACK
6
CONTINUOUS
10
5.14235
20
-5.7267
11
5.14248
21
-5.72638
0
LINE
8
BLACK
6
CONTINUOUS
10
5.14248
20
-5.72638
11
5.14235
21
-5.72606
0
LINE
8
BLACK
6
CONTINUOUS
10
5.14235
20
-5.72606
11
5.14203
21
-5.72592
0
LINE
8
BLACK
6
CONTINUOUS
10
5.14203
20
-5.72592
11
5.1417
21
-5.72606
0
LINE
8
BLACK
6
CONTINUOUS
10
5.1417
20
-5.72606
11
5.14157
21
-5.72638
0
LINE
8
BLACK
6
CONTINUOUS
10
4.38688
20
-5.72638
11
4.38757
21
-5.7238
0
LINE
8
BLACK
6
CONTINUOUS
10
4.38757
20
-5.7238
11
4.38945
21
-5.72192
0
LINE
8
BLACK
6
CONTINUOUS
10
4.38945
20
-5.72192
11
4.39203
21
-5.72123
0
LINE
8
BLACK
6
CONTINUOUS
10
4.39203
20
-5.72123
11
4.3946
21
-5.72192
0
LINE
8
BLACK
6
CONTINUOUS
10
4.3946
20
-5.72192
11
4.39648
21
-5.7238
0
LINE
8
BLACK
6
CONTINUOUS
10
4.39648
20
-5.7238
11
4.39717
21
-5.72638
0
LINE
8
BLACK
6
CONTINUOUS
10
4.39717
20
-5.72638
11
4.39648
21
-5.72895
0
LINE
8
BLACK
6
CONTINUOUS
10
4.39648
20
-5.72895
11
4.3946
21
-5.73083
0
LINE
8
BLACK
6
CONTINUOUS
10
4.3946
20
-5.73083
11
4.39203
21
-5.73152
0
LINE
8
BLACK
6
CONTINUOUS
10
4.39203
20
-5.73152
11
4.38945
21
-5.73083
0
LINE
8
BLACK
6
CONTINUOUS
10
4.38945
20
-5.73083
11
4.38757
21
-5.72895
0
LINE
8
BLACK
6
CONTINUOUS
10
4.38757
20
-5.72895
11
4.38688
21
-5.72638
0
LINE
8
BLACK
6
CONTINUOUS
10
4.39157
20
-5.72638
11
4.3917
21
-5.7267
0
LINE
8
BLACK
6
CONTINUOUS
10
4.3917
20
-5.7267
11
4.39203
21
-5.72683
0
LINE
8
BLACK
6
CONTINUOUS
10
4.39203
20
-5.72683
11
4.39235
21
-5.7267
0
LINE
8
BLACK
6
CONTINUOUS
10
4.39235
20
-5.7267
11
4.39248
21
-5.72638
0
LINE
8
BLACK
6
CONTINUOUS
10
4.39248
20
-5.72638
11
4.39235
21
-5.72606
0
LINE
8
BLACK
6
CONTINUOUS
10
4.39235
20
-5.72606
11
4.39203
21
-5.72592
0
LINE
8
BLACK
6
CONTINUOUS
10
4.39203
20
-5.72592
11
4.3917
21
-5.72606
0
LINE
8
BLACK
6
CONTINUOUS
10
4.3917
20
-5.72606
11
4.39157
21
-5.72638
0
LINE
8
BLACK
6
CONTINUOUS
10
3.63688
20
-5.72638
11
3.63757
21
-5.7238
0
LINE
8
BLACK
6
CONTINUOUS
10
3.63757
20
-5.7238
11
3.63945
21
-5.72192
0
LINE
8
BLACK
6
CONTINUOUS
10
3.63945
20
-5.72192
11
3.64203
21
-5.72123
0
LINE
8
BLACK
6
CONTINUOUS
10
3.64203
20
-5.72123
11
3.6446
21
-5.72192
0
LINE
8
BLACK
6
CONTINUOUS
10
3.6446
20
-5.72192
11
3.64648
21
-5.7238
0
LINE
8
BLACK
6
CONTINUOUS
10
3.64648
20
-5.7238
11
3.64717
21
-5.72638
0
LINE
8
BLACK
6
CONTINUOUS
10
3.64717
20
-5.72638
11
3.64648
21
-5.72895
0
LINE
8
BLACK
6
CONTINUOUS
10
3.64648
20
-5.72895
11
3.6446
21
-5.73083
0
LINE
8
BLACK
6
CONTINUOUS
10
3.6446
20
-5.73083
11
3.64203
21
-5.73152
0
LINE
8
BLACK
6
CONTINUOUS
10
3.64203
20
-5.73152
11
3.63945
21
-5.73083
0
LINE
8
BLACK
6
CONTINUOUS
10
3.63945
20
-5.73083
11
3.63757
21
-5.72895
0
LINE
8
BLACK
6
CONTINUOUS
10
3.63757
20
-5.72895
11
3.63688
21
-5.72638
0
LINE
8
BLACK
6
CONTINUOUS
10
3.64157
20
-5.72638
11
3.6417
21
-5.7267
0
LINE
8
BLACK
6
CONTINUOUS
10
3.6417
20
-5.7267
11
3.64203
21
-5.72683
0
LINE
8
BLACK
6
CONTINUOUS
10
3.64203
20
-5.72683
11
3.64235
21
-5.7267
0
LINE
8
BLACK
6
CONTINUOUS
10
3.64235
20
-5.7267
11
3.64248
21
-5.72638
0
LINE
8
BLACK
6
CONTINUOUS
10
3.64248
20
-5.72638
11
3.64235
21
-5.72606
0
LINE
8
BLACK
6
CONTINUOUS
10
3.64235
20
-5.72606
11
3.64203
21
-5.72592
0
LINE
8
BLACK
6
CONTINUOUS
10
3.64203
20
-5.72592
11
3.6417
21
-5.72606
0
LINE
8
BLACK
6
CONTINUOUS
10
3.6417
20
-5.72606
11
3.64157
21
-5.72638
0
LINE
8
BLACK
6
CONTINUOUS
10
2.60563
20
-5.72638
11
2.60632
21
-5.7238
0
LINE
8
BLACK
6
CONTINUOUS
10
2.60632
20
-5.7238
11
2.60821
21
-5.72192
0
LINE
8
BLACK
6
CONTINUOUS
10
2.60821
20
-5.72192
11
2.61078
21
-5.72123
0
LINE
8
BLACK
6
CONTINUOUS
10
2.61078
20
-5.72123
11
2.61335
21
-5.72192
0
LINE
8
BLACK
6
CONTINUOUS
10
2.61335
20
-5.72192
11
2.61524
21
-5.7238
0
LINE
8
BLACK
6
CONTINUOUS
10
2.61524
20
-5.7238
11
2.61593
21
-5.72638
0
LINE
8
BLACK
6
CONTINUOUS
10
2.61593
20
-5.72638
11
2.61524
21
-5.72895
0
LINE
8
BLACK
6
CONTINUOUS
10
2.61524
20
-5.72895
11
2.61335
21
-5.73083
0
LINE
8
BLACK
6
CONTINUOUS
10
2.61335
20
-5.73083
11
2.61078
21
-5.73152
0
LINE
8
BLACK
6
CONTINUOUS
10
2.61078
20
-5.73152
11
2.60821
21
-5.73083
0
LINE
8
BLACK
6
CONTINUOUS
10
2.60821
20
-5.73083
11
2.60632
21
-5.72895
0
LINE
8
BLACK
6
CONTINUOUS
10
2.60632
20
-5.72895
11
2.60563
21
-5.72638
0
LINE
8
BLACK
6
CONTINUOUS
10
2.61032
20
-5.72638
11
2.61046
21
-5.7267
0
LINE
8
BLACK
6
CONTINUOUS
10
2.61046
20
-5.7267
11
2.61078
21
-5.72683
0
LINE
8
BLACK
6
CONTINUOUS
10
2.61078
20
-5.72683
11
2.6111
21
-5.7267
0
LINE
8
BLACK
6
CONTINUOUS
10
2.6111
20
-5.7267
11
2.61124
21
-5.72638
0
LINE
8
BLACK
6
CONTINUOUS
10
2.61124
20
-5.72638
11
2.6111
21
-5.72606
0
LINE
8
BLACK
6
CONTINUOUS
10
2.6111
20
-5.72606
11
2.61078
21
-5.72592
0
LINE
8
BLACK
6
CONTINUOUS
10
2.61078
20
-5.72592
11
2.61046
21
-5.72606
0
LINE
8
BLACK
6
CONTINUOUS
10
2.61046
20
-5.72606
11
2.61032
21
-5.72638
0
LINE
8
BLACK
6
CONTINUOUS
10
11.6994
20
-4.97638
11
11.7001
21
-4.9738
0
LINE
8
BLACK
6
CONTINUOUS
10
11.7001
20
-4.9738
11
11.702
21
-4.97192
0
LINE
8
BLACK
6
CONTINUOUS
10
11.702
20
-4.97192
11
11.7045
21
-4.97123
0
LINE
8
BLACK
6
CONTINUOUS
10
11.7045
20
-4.97123
11
11.7071
21
-4.97192
0
LINE
8
BLACK
6
CONTINUOUS
10
11.7071
20
-4.97192
11
11.709
21
-4.9738
0
LINE
8
BLACK
6
CONTINUOUS
10
11.709
20
-4.9738
11
11.7097
21
-4.97638
0
LINE
8
BLACK
6
CONTINUOUS
10
11.7097
20
-4.97638
11
11.709
21
-4.97895
0
LINE
8
BLACK
6
CONTINUOUS
10
11.709
20
-4.97895
11
11.7071
21
-4.98083
0
LINE
8
BLACK
6
CONTINUOUS
10
11.7071
20
-4.98083
11
11.7045
21
-4.98152
0
LINE
8
BLACK
6
CONTINUOUS
10
11.7045
20
-4.98152
11
11.702
21
-4.98083
0
LINE
8
BLACK
6
CONTINUOUS
10
11.702
20
-4.98083
11
11.7001
21
-4.97895
0
LINE
8
BLACK
6
CONTINUOUS
10
11.7001
20
-4.97895
11
11.6994
21
-4.97638
0
LINE
8
BLACK
6
CONTINUOUS
10
11.7041
20
-4.97638
11
11.7042
21
-4.9767
0
LINE
8
BLACK
6
CONTINUOUS
10
11.7042
20
-4.9767
11
11.7045
21
-4.97683
0
LINE
8
BLACK
6
CONTINUOUS
10
11.7045
20
-4.97683
11
11.7049
21
-4.9767
0
LINE
8
BLACK
6
CONTINUOUS
10
11.7049
20
-4.9767
11
11.705
21
-4.97638
0
LINE
8
BLACK
6
CONTINUOUS
10
11.705
20
-4.97638
11
11.7049
21
-4.97606
0
LINE
8
BLACK
6
CONTINUOUS
10
11.7049
20
-4.97606
11
11.7045
21
-4.97592
0
LINE
8
BLACK
6
CONTINUOUS
10
11.7045
20
-4.97592
11
11.7042
21
-4.97606
0
LINE
8
BLACK
6
CONTINUOUS
10
11.7042
20
-4.97606
11
11.7041
21
-4.97638
0
LINE
8
BLACK
6
CONTINUOUS
10
10.9494
20
-4.97638
11
10.9501
21
-4.9738
0
LINE
8
BLACK
6
CONTINUOUS
10
10.9501
20
-4.9738
11
10.952
21
-4.97192
0
LINE
8
BLACK
6
CONTINUOUS
10
10.952
20
-4.97192
11
10.9545
21
-4.97123
0
LINE
8
BLACK
6
CONTINUOUS
10
10.9545
20
-4.97123
11
10.9571
21
-4.97192
0
LINE
8
BLACK
6
CONTINUOUS
10
10.9571
20
-4.97192
11
10.959
21
-4.9738
0
LINE
8
BLACK
6
CONTINUOUS
10
10.959
20
-4.9738
11
10.9597
21
-4.97638
0
LINE
8
BLACK
6
CONTINUOUS
10
10.9597
20
-4.97638
11
10.959
21
-4.97895
0
LINE
8
BLACK
6
CONTINUOUS
10
10.959
20
-4.97895
11
10.9571
21
-4.98083
0
LINE
8
BLACK
6
CONTINUOUS
10
10.9571
20
-4.98083
11
10.9545
21
-4.98152
0
LINE
8
BLACK
6
CONTINUOUS
10
10.9545
20
-4.98152
11
10.952
21
-4.98083
0
LINE
8
BLACK
6
CONTINUOUS
10
10.952
20
-4.98083
11
10.9501
21
-4.97895
0
LINE
8
BLACK
6
CONTINUOUS
10
10.9501
20
-4.97895
11
10.9494
21
-4.97638
0
LINE
8
BLACK
6
CONTINUOUS
10
10.9541
20
-4.97638
11
10.9542
21
-4.9767
0
LINE
8
BLACK
6
CONTINUOUS
10
10.9542
20
-4.9767
11
10.9545
21
-4.97683
0
LINE
8
BLACK
6
CONTINUOUS
10
10.9545
20
-4.97683
11
10.9549
21
-4.9767
0
LINE
8
BLACK
6
CONTINUOUS
10
10.9549
20
-4.9767
11
10.955
21
-4.97638
0
LINE
8
BLACK
6
CONTINUOUS
10
10.955
20
-4.97638
11
10.9549
21
-4.97606
0
LINE
8
BLACK
6
CONTINUOUS
10
10.9549
20
-4.97606
11
10.9545
21
-4.97592
0
LINE
8
BLACK
6
CONTINUOUS
10
10.9545
20
-4.97592
11
10.9542
21
-4.97606
0
LINE
8
BLACK
6
CONTINUOUS
10
10.9542
20
-4.97606
11
10.9541
21
-4.97638
0
LINE
8
BLACK
6
CONTINUOUS
10
10.1994
20
-4.97638
11
10.2001
21
-4.9738
0
LINE
8
BLACK
6
CONTINUOUS
10
10.2001
20
-4.9738
11
10.202
21
-4.97192
0
LINE
8
BLACK
6
CONTINUOUS
10
10.202
20
-4.97192
11
10.2045
21
-4.97123
0
LINE
8
BLACK
6
CONTINUOUS
10
10.2045
20
-4.97123
11
10.2071
21
-4.97192
0
LINE
8
BLACK
6
CONTINUOUS
10
10.2071
20
-4.97192
11
10.209
21
-4.9738
0
LINE
8
BLACK
6
CONTINUOUS
10
10.209
20
-4.9738
11
10.2097
21
-4.97638
0
LINE
8
BLACK
6
CONTINUOUS
10
10.2097
20
-4.97638
11
10.209
21
-4.97895
0
LINE
8
BLACK
6
CONTINUOUS
10
10.209
20
-4.97895
11
10.2071
21
-4.98083
0
LINE
8
BLACK
6
CONTINUOUS
10
10.2071
20
-4.98083
11
10.2045
21
-4.98152
0
LINE
8
BLACK
6
CONTINUOUS
10
10.2045
20
-4.98152
11
10.202
21
-4.98083
0
LINE
8
BLACK
6
CONTINUOUS
10
10.202
20
-4.98083
11
10.2001
21
-4.97895
0
LINE
8
BLACK
6
CONTINUOUS
10
10.2001
20
-4.97895
11
10.1994
21
-4.97638
0
LINE
8
BLACK
6
CONTINUOUS
10
10.2041
20
-4.97638
11
10.2042
21
-4.9767
0
LINE
8
BLACK
6
CONTINUOUS
10
10.2042
20
-4.9767
11
10.2045
21
-4.97683
0
LINE
8
BLACK
6
CONTINUOUS
10
10.2045
20
-4.97683
11
10.2049
21
-4.9767
0
LINE
8
BLACK
6
CONTINUOUS
10
10.2049
20
-4.9767
11
10.205
21
-4.97638
0
LINE
8
BLACK
6
CONTINUOUS
10
10.205
20
-4.97638
11
10.2049
21
-4.97606
0
LINE
8
BLACK
6
CONTINUOUS
10
10.2049
20
-4.97606
11
10.2045
21
-4.97592
0
LINE
8
BLACK
6
CONTINUOUS
10
10.2045
20
-4.97592
11
10.2042
21
-4.97606
0
LINE
8
BLACK
6
CONTINUOUS
10
10.2042
20
-4.97606
11
10.2041
21
-4.97638
0
LINE
8
BLACK
6
CONTINUOUS
10
9.44938
20
-4.97638
11
9.45007
21
-4.9738
0
LINE
8
BLACK
6
CONTINUOUS
10
9.45007
20
-4.9738
11
9.45195
21
-4.97192
0
LINE
8
BLACK
6
CONTINUOUS
10
9.45195
20
-4.97192
11
9.45453
21
-4.97123
0
LINE
8
BLACK
6
CONTINUOUS
10
9.45453
20
-4.97123
11
9.4571
21
-4.97192
0
LINE
8
BLACK
6
CONTINUOUS
10
9.4571
20
-4.97192
11
9.45898
21
-4.9738
0
LINE
8
BLACK
6
CONTINUOUS
10
9.45898
20
-4.9738
11
9.45967
21
-4.97638
0
LINE
8
BLACK
6
CONTINUOUS
10
9.45967
20
-4.97638
11
9.45898
21
-4.97895
0
LINE
8
BLACK
6
CONTINUOUS
10
9.45898
20
-4.97895
11
9.4571
21
-4.98083
0
LINE
8
BLACK
6
CONTINUOUS
10
9.4571
20
-4.98083
11
9.45453
21
-4.98152
0
LINE
8
BLACK
6
CONTINUOUS
10
9.45453
20
-4.98152
11
9.45195
21
-4.98083
0
LINE
8
BLACK
6
CONTINUOUS
10
9.45195
20
-4.98083
11
9.45007
21
-4.97895
0
LINE
8
BLACK
6
CONTINUOUS
10
9.45007
20
-4.97895
11
9.44938
21
-4.97638
0
LINE
8
BLACK
6
CONTINUOUS
10
9.45407
20
-4.97638
11
9.4542
21
-4.9767
0
LINE
8
BLACK
6
CONTINUOUS
10
9.4542
20
-4.9767
11
9.45453
21
-4.97683
0
LINE
8
BLACK
6
CONTINUOUS
10
9.45453
20
-4.97683
11
9.45485
21
-4.9767
0
LINE
8
BLACK
6
CONTINUOUS
10
9.45485
20
-4.9767
11
9.45498
21
-4.97638
0
LINE
8
BLACK
6
CONTINUOUS
10
9.45498
20
-4.97638
11
9.45485
21
-4.97606
0
LINE
8
BLACK
6
CONTINUOUS
10
9.45485
20
-4.97606
11
9.45453
21
-4.97592
0
LINE
8
BLACK
6
CONTINUOUS
10
9.45453
20
-4.97592
11
9.4542
21
-4.97606
0
LINE
8
BLACK
6
CONTINUOUS
10
9.4542
20
-4.97606
11
9.45407
21
-4.97638
0
LINE
8
BLACK
6
CONTINUOUS
10
8.69938
20
-4.97638
11
8.70007
21
-4.9738
0
LINE
8
BLACK
6
CONTINUOUS
10
8.70007
20
-4.9738
11
8.70195
21
-4.97192
0
LINE
8
BLACK
6
CONTINUOUS
10
8.70195
20
-4.97192
11
8.70453
21
-4.97123
0
LINE
8
BLACK
6
CONTINUOUS
10
8.70453
20
-4.97123
11
8.7071
21
-4.97192
0
LINE
8
BLACK
6
CONTINUOUS
10
8.7071
20
-4.97192
11
8.70898
21
-4.9738
0
LINE
8
BLACK
6
CONTINUOUS
10
8.70898
20
-4.9738
11
8.70967
21
-4.97638
0
LINE
8
BLACK
6
CONTINUOUS
10
8.70967
20
-4.97638
11
8.70898
21
-4.97895
0
LINE
8
BLACK
6
CONTINUOUS
10
8.70898
20
-4.97895
11
8.7071
21
-4.98083
0
LINE
8
BLACK
6
CONTINUOUS
10
8.7071
20
-4.98083
11
8.70453
21
-4.98152
0
LINE
8
BLACK
6
CONTINUOUS
10
8.70453
20
-4.98152
11
8.70195
21
-4.98083
0
LINE
8
BLACK
6
CONTINUOUS
10
8.70195
20
-4.98083
11
8.70007
21
-4.97895
0
LINE
8
BLACK
6
CONTINUOUS
10
8.70007
20
-4.97895
11
8.69938
21
-4.97638
0
LINE
8
BLACK
6
CONTINUOUS
10
8.70407
20
-4.97638
11
8.7042
21
-4.9767
0
LINE
8
BLACK
6
CONTINUOUS
10
8.7042
20
-4.9767
11
8.70453
21
-4.97683
0
LINE
8
BLACK
6
CONTINUOUS
10
8.70453
20
-4.97683
11
8.70485
21
-4.9767
0
LINE
8
BLACK
6
CONTINUOUS
10
8.70485
20
-4.9767
11
8.70498
21
-4.97638
0
LINE
8
BLACK
6
CONTINUOUS
10
8.70498
20
-4.97638
11
8.70485
21
-4.97606
0
LINE
8
BLACK
6
CONTINUOUS
10
8.70485
20
-4.97606
11
8.70453
21
-4.97592
0
LINE
8
BLACK
6
CONTINUOUS
10
8.70453
20
-4.97592
11
8.7042
21
-4.97606
0
LINE
8
BLACK
6
CONTINUOUS
10
8.7042
20
-4.97606
11
8.70407
21
-4.97638
0
LINE
8
BLACK
6
CONTINUOUS
10
7.94938
20
-4.97638
11
7.95007
21
-4.9738
0
LINE
8
BLACK
6
CONTINUOUS
10
7.95007
20
-4.9738
11
7.95195
21
-4.97192
0
LINE
8
BLACK
6
CONTINUOUS
10
7.95195
20
-4.97192
11
7.95453
21
-4.97123
0
LINE
8
BLACK
6
CONTINUOUS
10
7.95453
20
-4.97123
11
7.9571
21
-4.97192
0
LINE
8
BLACK
6
CONTINUOUS
10
7.9571
20
-4.97192
11
7.95898
21
-4.9738
0
LINE
8
BLACK
6
CONTINUOUS
10
7.95898
20
-4.9738
11
7.95967
21
-4.97638
0
LINE
8
BLACK
6
CONTINUOUS
10
7.95967
20
-4.97638
11
7.95898
21
-4.97895
0
LINE
8
BLACK
6
CONTINUOUS
10
7.95898
20
-4.97895
11
7.9571
21
-4.98083
0
LINE
8
BLACK
6
CONTINUOUS
10
7.9571
20
-4.98083
11
7.95453
21
-4.98152
0
LINE
8
BLACK
6
CONTINUOUS
10
7.95453
20
-4.98152
11
7.95195
21
-4.98083
0
LINE
8
BLACK
6
CONTINUOUS
10
7.95195
20
-4.98083
11
7.95007
21
-4.97895
0
LINE
8
BLACK
6
CONTINUOUS
10
7.95007
20
-4.97895
11
7.94938
21
-4.97638
0
LINE
8
BLACK
6
CONTINUOUS
10
7.95407
20
-4.97638
11
7.9542
21
-4.9767
0
LINE
8
BLACK
6
CONTINUOUS
10
7.9542
20
-4.9767
11
7.95453
21
-4.97683
0
LINE
8
BLACK
6
CONTINUOUS
10
7.95453
20
-4.97683
11
7.95485
21
-4.9767
0
LINE
8
BLACK
6
CONTINUOUS
10
7.95485
20
-4.9767
11
7.95498
21
-4.97638
0
LINE
8
BLACK
6
CONTINUOUS
10
7.95498
20
-4.97638
11
7.95485
21
-4.97606
0
LINE
8
BLACK
6
CONTINUOUS
10
7.95485
20
-4.97606
11
7.95453
21
-4.97592
0
LINE
8
BLACK
6
CONTINUOUS
10
7.95453
20
-4.97592
11
7.9542
21
-4.97606
0
LINE
8
BLACK
6
CONTINUOUS
10
7.9542
20
-4.97606
11
7.95407
21
-4.97638
0
LINE
8
BLACK
6
CONTINUOUS
10
7.19938
20
-4.97638
11
7.20007
21
-4.9738
0
LINE
8
BLACK
6
CONTINUOUS
10
7.20007
20
-4.9738
11
7.20195
21
-4.97192
0
LINE
8
BLACK
6
CONTINUOUS
10
7.20195
20
-4.97192
11
7.20453
21
-4.97123
0
LINE
8
BLACK
6
CONTINUOUS
10
7.20453
20
-4.97123
11
7.2071
21
-4.97192
0
LINE
8
BLACK
6
CONTINUOUS
10
7.2071
20
-4.97192
11
7.20898
21
-4.9738
0
LINE
8
BLACK
6
CONTINUOUS
10
7.20898
20
-4.9738
11
7.20967
21
-4.97638
0
LINE
8
BLACK
6
CONTINUOUS
10
7.20967
20
-4.97638
11
7.20898
21
-4.97895
0
LINE
8
BLACK
6
CONTINUOUS
10
7.20898
20
-4.97895
11
7.2071
21
-4.98083
0
LINE
8
BLACK
6
CONTINUOUS
10
7.2071
20
-4.98083
11
7.20453
21
-4.98152
0
LINE
8
BLACK
6
CONTINUOUS
10
7.20453
20
-4.98152
11
7.20195
21
-4.98083
0
LINE
8
BLACK
6
CONTINUOUS
10
7.20195
20
-4.98083
11
7.20007
21
-4.97895
0
LINE
8
BLACK
6
CONTINUOUS
10
7.20007
20
-4.97895
11
7.19938
21
-4.97638
0
LINE
8
BLACK
6
CONTINUOUS
10
7.20407
20
-4.97638
11
7.2042
21
-4.9767
0
LINE
8
BLACK
6
CONTINUOUS
10
7.2042
20
-4.9767
11
7.20453
21
-4.97683
0
LINE
8
BLACK
6
CONTINUOUS
10
7.20453
20
-4.97683
11
7.20485
21
-4.9767
0
LINE
8
BLACK
6
CONTINUOUS
10
7.20485
20
-4.9767
11
7.20498
21
-4.97638
0
LINE
8
BLACK
6
CONTINUOUS
10
7.20498
20
-4.97638
11
7.20485
21
-4.97606
0
LINE
8
BLACK
6
CONTINUOUS
10
7.20485
20
-4.97606
11
7.20453
21
-4.97592
0
LINE
8
BLACK
6
CONTINUOUS
10
7.20453
20
-4.97592
11
7.2042
21
-4.97606
0
LINE
8
BLACK
6
CONTINUOUS
10
7.2042
20
-4.97606
11
7.20407
21
-4.97638
0
LINE
8
BLACK
6
CONTINUOUS
10
6.44938
20
-4.97638
11
6.45007
21
-4.9738
0
LINE
8
BLACK
6
CONTINUOUS
10
6.45007
20
-4.9738
11
6.45195
21
-4.97192
0
LINE
8
BLACK
6
CONTINUOUS
10
6.45195
20
-4.97192
11
6.45453
21
-4.97123
0
LINE
8
BLACK
6
CONTINUOUS
10
6.45453
20
-4.97123
11
6.4571
21
-4.97192
0
LINE
8
BLACK
6
CONTINUOUS
10
6.4571
20
-4.97192
11
6.45898
21
-4.9738
0
LINE
8
BLACK
6
CONTINUOUS
10
6.45898
20
-4.9738
11
6.45967
21
-4.97638
0
LINE
8
BLACK
6
CONTINUOUS
10
6.45967
20
-4.97638
11
6.45898
21
-4.97895
0
LINE
8
BLACK
6
CONTINUOUS
10
6.45898
20
-4.97895
11
6.4571
21
-4.98083
0
LINE
8
BLACK
6
CONTINUOUS
10
6.4571
20
-4.98083
11
6.45453
21
-4.98152
0
LINE
8
BLACK
6
CONTINUOUS
10
6.45453
20
-4.98152
11
6.45195
21
-4.98083
0
LINE
8
BLACK
6
CONTINUOUS
10
6.45195
20
-4.98083
11
6.45007
21
-4.97895
0
LINE
8
BLACK
6
CONTINUOUS
10
6.45007
20
-4.97895
11
6.44938
21
-4.97638
0
LINE
8
BLACK
6
CONTINUOUS
10
6.45407
20
-4.97638
11
6.4542
21
-4.9767
0
LINE
8
BLACK
6
CONTINUOUS
10
6.4542
20
-4.9767
11
6.45453
21
-4.97683
0
LINE
8
BLACK
6
CONTINUOUS
10
6.45453
20
-4.97683
11
6.45485
21
-4.9767
0
LINE
8
BLACK
6
CONTINUOUS
10
6.45485
20
-4.9767
11
6.45498
21
-4.97638
0
LINE
8
BLACK
6
CONTINUOUS
10
6.45498
20
-4.97638
11
6.45485
21
-4.97606
0
LINE
8
BLACK
6
CONTINUOUS
10
6.45485
20
-4.97606
11
6.45453
21
-4.97592
0
LINE
8
BLACK
6
CONTINUOUS
10
6.45453
20
-4.97592
11
6.4542
21
-4.97606
0
LINE
8
BLACK
6
CONTINUOUS
10
6.4542
20
-4.97606
11
6.45407
21
-4.97638
0
LINE
8
BLACK
6
CONTINUOUS
10
5.69938
20
-4.97638
11
5.70007
21
-4.9738
0
LINE
8
BLACK
6
CONTINUOUS
10
5.70007
20
-4.9738
11
5.70195
21
-4.97192
0
LINE
8
BLACK
6
CONTINUOUS
10
5.70195
20
-4.97192
11
5.70453
21
-4.97123
0
LINE
8
BLACK
6
CONTINUOUS
10
5.70453
20
-4.97123
11
5.7071
21
-4.97192
0
LINE
8
BLACK
6
CONTINUOUS
10
5.7071
20
-4.97192
11
5.70898
21
-4.9738
0
LINE
8
BLACK
6
CONTINUOUS
10
5.70898
20
-4.9738
11
5.70967
21
-4.97638
0
LINE
8
BLACK
6
CONTINUOUS
10
5.70967
20
-4.97638
11
5.70898
21
-4.97895
0
LINE
8
BLACK
6
CONTINUOUS
10
5.70898
20
-4.97895
11
5.7071
21
-4.98083
0
LINE
8
BLACK
6
CONTINUOUS
10
5.7071
20
-4.98083
11
5.70453
21
-4.98152
0
LINE
8
BLACK
6
CONTINUOUS
10
5.70453
20
-4.98152
11
5.70195
21
-4.98083
0
LINE
8
BLACK
6
CONTINUOUS
10
5.70195
20
-4.98083
11
5.70007
21
-4.97895
0
LINE
8
BLACK
6
CONTINUOUS
10
5.70007
20
-4.97895
11
5.69938
21
-4.97638
0
LINE
8
BLACK
6
CONTINUOUS
10
5.70407
20
-4.97638
11
5.7042
21
-4.9767
0
LINE
8
BLACK
6
CONTINUOUS
10
5.7042
20
-4.9767
11
5.70453
21
-4.97683
0
LINE
8
BLACK
6
CONTINUOUS
10
5.70453
20
-4.97683
11
5.70485
21
-4.9767
0
LINE
8
BLACK
6
CONTINUOUS
10
5.70485
20
-4.9767
11
5.70498
21
-4.97638
0
LINE
8
BLACK
6
CONTINUOUS
10
5.70498
20
-4.97638
11
5.70485
21
-4.97606
0
LINE
8
BLACK
6
CONTINUOUS
10
5.70485
20
-4.97606
11
5.70453
21
-4.97592
0
LINE
8
BLACK
6
CONTINUOUS
10
5.70453
20
-4.97592
11
5.7042
21
-4.97606
0
LINE
8
BLACK
6
CONTINUOUS
10
5.7042
20
-4.97606
11
5.70407
21
-4.97638
0
LINE
8
BLACK
6
CONTINUOUS
10
4.94938
20
-4.97638
11
4.95007
21
-4.9738
0
LINE
8
BLACK
6
CONTINUOUS
10
4.95007
20
-4.9738
11
4.95195
21
-4.97192
0
LINE
8
BLACK
6
CONTINUOUS
10
4.95195
20
-4.97192
11
4.95453
21
-4.97123
0
LINE
8
BLACK
6
CONTINUOUS
10
4.95453
20
-4.97123
11
4.9571
21
-4.97192
0
LINE
8
BLACK
6
CONTINUOUS
10
4.9571
20
-4.97192
11
4.95898
21
-4.9738
0
LINE
8
BLACK
6
CONTINUOUS
10
4.95898
20
-4.9738
11
4.95967
21
-4.97638
0
LINE
8
BLACK
6
CONTINUOUS
10
4.95967
20
-4.97638
11
4.95898
21
-4.97895
0
LINE
8
BLACK
6
CONTINUOUS
10
4.95898
20
-4.97895
11
4.9571
21
-4.98083
0
LINE
8
BLACK
6
CONTINUOUS
10
4.9571
20
-4.98083
11
4.95453
21
-4.98152
0
LINE
8
BLACK
6
CONTINUOUS
10
4.95453
20
-4.98152
11
4.95195
21
-4.98083
0
LINE
8
BLACK
6
CONTINUOUS
10
4.95195
20
-4.98083
11
4.95007
21
-4.97895
0
LINE
8
BLACK
6
CONTINUOUS
10
4.95007
20
-4.97895
11
4.94938
21
-4.97638
0
LINE
8
BLACK
6
CONTINUOUS
10
4.95407
20
-4.97638
11
4.9542
21
-4.9767
0
LINE
8
BLACK
6
CONTINUOUS
10
4.9542
20
-4.9767
11
4.95453
21
-4.97683
0
LINE
8
BLACK
6
CONTINUOUS
10
4.95453
20
-4.97683
11
4.95485
21
-4.9767
0
LINE
8
BLACK
6
CONTINUOUS
10
4.95485
20
-4.9767
11
4.95498
21
-4.97638
0
LINE
8
BLACK
6
CONTINUOUS
10
4.95498
20
-4.97638
11
4.95485
21
-4.97606
0
LINE
8
BLACK
6
CONTINUOUS
10
4.95485
20
-4.97606
11
4.95453
21
-4.97592
0
LINE
8
BLACK
6
CONTINUOUS
10
4.95453
20
-4.97592
11
4.9542
21
-4.97606
0
LINE
8
BLACK
6
CONTINUOUS
10
4.9542
20
-4.97606
11
4.95407
21
-4.97638
0
LINE
8
BLACK
6
CONTINUOUS
10
4.19938
20
-4.97638
11
4.20007
21
-4.9738
0
LINE
8
BLACK
6
CONTINUOUS
10
4.20007
20
-4.9738
11
4.20195
21
-4.97192
0
LINE
8
BLACK
6
CONTINUOUS
10
4.20195
20
-4.97192
11
4.20453
21
-4.97123
0
LINE
8
BLACK
6
CONTINUOUS
10
4.20453
20
-4.97123
11
4.2071
21
-4.97192
0
LINE
8
BLACK
6
CONTINUOUS
10
4.2071
20
-4.97192
11
4.20898
21
-4.9738
0
LINE
8
BLACK
6
CONTINUOUS
10
4.20898
20
-4.9738
11
4.20967
21
-4.97638
0
LINE
8
BLACK
6
CONTINUOUS
10
4.20967
20
-4.97638
11
4.20898
21
-4.97895
0
LINE
8
BLACK
6
CONTINUOUS
10
4.20898
20
-4.97895
11
4.2071
21
-4.98083
0
LINE
8
BLACK
6
CONTINUOUS
10
4.2071
20
-4.98083
11
4.20453
21
-4.98152
0
LINE
8
BLACK
6
CONTINUOUS
10
4.20453
20
-4.98152
11
4.20195
21
-4.98083
0
LINE
8
BLACK
6
CONTINUOUS
10
4.20195
20
-4.98083
11
4.20007
21
-4.97895
0
LINE
8
BLACK
6
CONTINUOUS
10
4.20007
20
-4.97895
11
4.19938
21
-4.97638
0
LINE
8
BLACK
6
CONTINUOUS
10
4.20407
20
-4.97638
11
4.2042
21
-4.9767
0
LINE
8
BLACK
6
CONTINUOUS
10
4.2042
20
-4.9767
11
4.20453
21
-4.97683
0
LINE
8
BLACK
6
CONTINUOUS
10
4.20453
20
-4.97683
11
4.20485
21
-4.9767
0
LINE
8
BLACK
6
CONTINUOUS
10
4.20485
20
-4.9767
11
4.20498
21
-4.97638
0
LINE
8
BLACK
6
CONTINUOUS
10
4.20498
20
-4.97638
11
4.20485
21
-4.97606
0
LINE
8
BLACK
6
CONTINUOUS
10
4.20485
20
-4.97606
11
4.20453
21
-4.97592
0
LINE
8
BLACK
6
CONTINUOUS
10
4.20453
20
-4.97592
11
4.2042
21
-4.97606
0
LINE
8
BLACK
6
CONTINUOUS
10
4.2042
20
-4.97606
11
4.20407
21
-4.97638
0
LINE
8
BLACK
6
CONTINUOUS
10
3.44938
20
-4.97638
11
3.45007
21
-4.9738
0
LINE
8
BLACK
6
CONTINUOUS
10
3.45007
20
-4.9738
11
3.45195
21
-4.97192
0
LINE
8
BLACK
6
CONTINUOUS
10
3.45195
20
-4.97192
11
3.45453
21
-4.97123
0
LINE
8
BLACK
6
CONTINUOUS
10
3.45453
20
-4.97123
11
3.4571
21
-4.97192
0
LINE
8
BLACK
6
CONTINUOUS
10
3.4571
20
-4.97192
11
3.45898
21
-4.9738
0
LINE
8
BLACK
6
CONTINUOUS
10
3.45898
20
-4.9738
11
3.45967
21
-4.97638
0
LINE
8
BLACK
6
CONTINUOUS
10
3.45967
20
-4.97638
11
3.45898
21
-4.97895
0
LINE
8
BLACK
6
CONTINUOUS
10
3.45898
20
-4.97895
11
3.4571
21
-4.98083
0
LINE
8
BLACK
6
CONTINUOUS
10
3.4571
20
-4.98083
11
3.45453
21
-4.98152
0
LINE
8
BLACK
6
CONTINUOUS
10
3.45453
20
-4.98152
11
3.45195
21
-4.98083
0
LINE
8
BLACK
6
CONTINUOUS
10
3.45195
20
-4.98083
11
3.45007
21
-4.97895
0
LINE
8
BLACK
6
CONTINUOUS
10
3.45007
20
-4.97895
11
3.44938
21
-4.97638
0
LINE
8
BLACK
6
CONTINUOUS
10
3.45407
20
-4.97638
11
3.4542
21
-4.9767
0
LINE
8
BLACK
6
CONTINUOUS
10
3.4542
20
-4.9767
11
3.45453
21
-4.97683
0
LINE
8
BLACK
6
CONTINUOUS
10
3.45453
20
-4.97683
11
3.45485
21
-4.9767
0
LINE
8
BLACK
6
CONTINUOUS
10
3.45485
20
-4.9767
11
3.45498
21
-4.97638
0
LINE
8
BLACK
6
CONTINUOUS
10
3.45498
20
-4.97638
11
3.45485
21
-4.97606
0
LINE
8
BLACK
6
CONTINUOUS
10
3.45485
20
-4.97606
11
3.45453
21
-4.97592
0
LINE
8
BLACK
6
CONTINUOUS
10
3.45453
20
-4.97592
11
3.4542
21
-4.97606
0
LINE
8
BLACK
6
CONTINUOUS
10
3.4542
20
-4.97606
11
3.45407
21
-4.97638
0
LINE
8
BLACK
6
CONTINUOUS
10
2.51188
20
-4.97638
11
2.51257
21
-4.9738
0
LINE
8
BLACK
6
CONTINUOUS
10
2.51257
20
-4.9738
11
2.51445
21
-4.97192
0
LINE
8
BLACK
6
CONTINUOUS
10
2.51445
20
-4.97192
11
2.51703
21
-4.97123
0
LINE
8
BLACK
6
CONTINUOUS
10
2.51703
20
-4.97123
11
2.5196
21
-4.97192
0
LINE
8
BLACK
6
CONTINUOUS
10
2.5196
20
-4.97192
11
2.52148
21
-4.9738
0
LINE
8
BLACK
6
CONTINUOUS
10
2.52148
20
-4.9738
11
2.52217
21
-4.97638
0
LINE
8
BLACK
6
CONTINUOUS
10
2.52217
20
-4.97638
11
2.52148
21
-4.97895
0
LINE
8
BLACK
6
CONTINUOUS
10
2.52148
20
-4.97895
11
2.5196
21
-4.98083
0
LINE
8
BLACK
6
CONTINUOUS
10
2.5196
20
-4.98083
11
2.51703
21
-4.98152
0
LINE
8
BLACK
6
CONTINUOUS
10
2.51703
20
-4.98152
11
2.51445
21
-4.98083
0
LINE
8
BLACK
6
CONTINUOUS
10
2.51445
20
-4.98083
11
2.51257
21
-4.97895
0
LINE
8
BLACK
6
CONTINUOUS
10
2.51257
20
-4.97895
11
2.51188
21
-4.97638
0
LINE
8
BLACK
6
CONTINUOUS
10
2.51657
20
-4.97638
11
2.5167
21
-4.9767
0
LINE
8
BLACK
6
CONTINUOUS
10
2.5167
20
-4.9767
11
2.51703
21
-4.97683
0
LINE
8
BLACK
6
CONTINUOUS
10
2.51703
20
-4.97683
11
2.51735
21
-4.9767
0
LINE
8
BLACK
6
CONTINUOUS
10
2.51735
20
-4.9767
11
2.51748
21
-4.97638
0
LINE
8
BLACK
6
CONTINUOUS
10
2.51748
20
-4.97638
11
2.51735
21
-4.97606
0
LINE
8
BLACK
6
CONTINUOUS
10
2.51735
20
-4.97606
11
2.51703
21
-4.97592
0
LINE
8
BLACK
6
CONTINUOUS
10
2.51703
20
-4.97592
11
2.5167
21
-4.97606
0
LINE
8
BLACK
6
CONTINUOUS
10
2.5167
20
-4.97606
11
2.51657
21
-4.97638
0
LINE
8
BLACK
6
CONTINUOUS
10
12.4494
20
-4.22638
11
12.4501
21
-4.2238
0
LINE
8
BLACK
6
CONTINUOUS
10
12.4501
20
-4.2238
11
12.452
21
-4.22192
0
LINE
8
BLACK
6
CONTINUOUS
10
12.452
20
-4.22192
11
12.4545
21
-4.22123
0
LINE
8
BLACK
6
CONTINUOUS
10
12.4545
20
-4.22123
11
12.4571
21
-4.22192
0
LINE
8
BLACK
6
CONTINUOUS
10
12.4571
20
-4.22192
11
12.459
21
-4.2238
0
LINE
8
BLACK
6
CONTINUOUS
10
12.459
20
-4.2238
11
12.4597
21
-4.22638
0
LINE
8
BLACK
6
CONTINUOUS
10
12.4597
20
-4.22638
11
12.459
21
-4.22895
0
LINE
8
BLACK
6
CONTINUOUS
10
12.459
20
-4.22895
11
12.4571
21
-4.23083
0
LINE
8
BLACK
6
CONTINUOUS
10
12.4571
20
-4.23083
11
12.4545
21
-4.23152
0
LINE
8
BLACK
6
CONTINUOUS
10
12.4545
20
-4.23152
11
12.452
21
-4.23083
0
LINE
8
BLACK
6
CONTINUOUS
10
12.452
20
-4.23083
11
12.4501
21
-4.22895
0
LINE
8
BLACK
6
CONTINUOUS
10
12.4501
20
-4.22895
11
12.4494
21
-4.22638
0
LINE
8
BLACK
6
CONTINUOUS
10
12.4541
20
-4.22638
11
12.4542
21
-4.2267
0
LINE
8
BLACK
6
CONTINUOUS
10
12.4542
20
-4.2267
11
12.4545
21
-4.22683
0
LINE
8
BLACK
6
CONTINUOUS
10
12.4545
20
-4.22683
11
12.4549
21
-4.2267
0
LINE
8
BLACK
6
CONTINUOUS
10
12.4549
20
-4.2267
11
12.455
21
-4.22638
0
LINE
8
BLACK
6
CONTINUOUS
10
12.455
20
-4.22638
11
12.4549
21
-4.22606
0
LINE
8
BLACK
6
CONTINUOUS
10
12.4549
20
-4.22606
11
12.4545
21
-4.22592
0
LINE
8
BLACK
6
CONTINUOUS
10
12.4545
20
-4.22592
11
12.4542
21
-4.22606
0
LINE
8
BLACK
6
CONTINUOUS
10
12.4542
20
-4.22606
11
12.4541
21
-4.22638
0
LINE
8
BLACK
6
CONTINUOUS
10
11.3244
20
-4.22638
11
11.3251
21
-4.2238
0
LINE
8
BLACK
6
CONTINUOUS
10
11.3251
20
-4.2238
11
11.327
21
-4.22192
0
LINE
8
BLACK
6
CONTINUOUS
10
11.327
20
-4.22192
11
11.3295
21
-4.22123
0
LINE
8
BLACK
6
CONTINUOUS
10
11.3295
20
-4.22123
11
11.3321
21
-4.22192
0
LINE
8
BLACK
6
CONTINUOUS
10
11.3321
20
-4.22192
11
11.334
21
-4.2238
0
LINE
8
BLACK
6
CONTINUOUS
10
11.334
20
-4.2238
11
11.3347
21
-4.22638
0
LINE
8
BLACK
6
CONTINUOUS
10
11.3347
20
-4.22638
11
11.334
21
-4.22895
0
LINE
8
BLACK
6
CONTINUOUS
10
11.334
20
-4.22895
11
11.3321
21
-4.23083
0
LINE
8
BLACK
6
CONTINUOUS
10
11.3321
20
-4.23083
11
11.3295
21
-4.23152
0
LINE
8
BLACK
6
CONTINUOUS
10
11.3295
20
-4.23152
11
11.327
21
-4.23083
0
LINE
8
BLACK
6
CONTINUOUS
10
11.327
20
-4.23083
11
11.3251
21
-4.22895
0
LINE
8
BLACK
6
CONTINUOUS
10
11.3251
20
-4.22895
11
11.3244
21
-4.22638
0
LINE
8
BLACK
6
CONTINUOUS
10
11.3291
20
-4.22638
11
11.3292
21
-4.2267
0
LINE
8
BLACK
6
CONTINUOUS
10
11.3292
20
-4.2267
11
11.3295
21
-4.22683
0
LINE
8
BLACK
6
CONTINUOUS
10
11.3295
20
-4.22683
11
11.3299
21
-4.2267
0
LINE
8
BLACK
6
CONTINUOUS
10
11.3299
20
-4.2267
11
11.33
21
-4.22638
0
LINE
8
BLACK
6
CONTINUOUS
10
11.33
20
-4.22638
11
11.3299
21
-4.22606
0
LINE
8
BLACK
6
CONTINUOUS
10
11.3299
20
-4.22606
11
11.3295
21
-4.22592
0
LINE
8
BLACK
6
CONTINUOUS
10
11.3295
20
-4.22592
11
11.3292
21
-4.22606
0
LINE
8
BLACK
6
CONTINUOUS
10
11.3292
20
-4.22606
11
11.3291
21
-4.22638
0
LINE
8
BLACK
6
CONTINUOUS
10
10.5744
20
-4.22638
11
10.5751
21
-4.2238
0
LINE
8
BLACK
6
CONTINUOUS
10
10.5751
20
-4.2238
11
10.577
21
-4.22192
0
LINE
8
BLACK
6
CONTINUOUS
10
10.577
20
-4.22192
11
10.5795
21
-4.22123
0
LINE
8
BLACK
6
CONTINUOUS
10
10.5795
20
-4.22123
11
10.5821
21
-4.22192
0
LINE
8
BLACK
6
CONTINUOUS
10
10.5821
20
-4.22192
11
10.584
21
-4.2238
0
LINE
8
BLACK
6
CONTINUOUS
10
10.584
20
-4.2238
11
10.5847
21
-4.22638
0
LINE
8
BLACK
6
CONTINUOUS
10
10.5847
20
-4.22638
11
10.584
21
-4.22895
0
LINE
8
BLACK
6
CONTINUOUS
10
10.584
20
-4.22895
11
10.5821
21
-4.23083
0
LINE
8
BLACK
6
CONTINUOUS
10
10.5821
20
-4.23083
11
10.5795
21
-4.23152
0
LINE
8
BLACK
6
CONTINUOUS
10
10.5795
20
-4.23152
11
10.577
21
-4.23083
0
LINE
8
BLACK
6
CONTINUOUS
10
10.577
20
-4.23083
11
10.5751
21
-4.22895
0
LINE
8
BLACK
6
CONTINUOUS
10
10.5751
20
-4.22895
11
10.5744
21
-4.22638
0
LINE
8
BLACK
6
CONTINUOUS
10
10.5791
20
-4.22638
11
10.5792
21
-4.2267
0
LINE
8
BLACK
6
CONTINUOUS
10
10.5792
20
-4.2267
11
10.5795
21
-4.22683
0
LINE
8
BLACK
6
CONTINUOUS
10
10.5795
20
-4.22683
11
10.5799
21
-4.2267
0
LINE
8
BLACK
6
CONTINUOUS
10
10.5799
20
-4.2267
11
10.58
21
-4.22638
0
LINE
8
BLACK
6
CONTINUOUS
10
10.58
20
-4.22638
11
10.5799
21
-4.22606
0
LINE
8
BLACK
6
CONTINUOUS
10
10.5799
20
-4.22606
11
10.5795
21
-4.22592
0
LINE
8
BLACK
6
CONTINUOUS
10
10.5795
20
-4.22592
11
10.5792
21
-4.22606
0
LINE
8
BLACK
6
CONTINUOUS
10
10.5792
20
-4.22606
11
10.5791
21
-4.22638
0
LINE
8
BLACK
6
CONTINUOUS
10
9.82438
20
-4.22638
11
9.82507
21
-4.2238
0
LINE
8
BLACK
6
CONTINUOUS
10
9.82507
20
-4.2238
11
9.82695
21
-4.22192
0
LINE
8
BLACK
6
CONTINUOUS
10
9.82695
20
-4.22192
11
9.82953
21
-4.22123
0
LINE
8
BLACK
6
CONTINUOUS
10
9.82953
20
-4.22123
11
9.8321
21
-4.22192
0
LINE
8
BLACK
6
CONTINUOUS
10
9.8321
20
-4.22192
11
9.83398
21
-4.2238
0
LINE
8
BLACK
6
CONTINUOUS
10
9.83398
20
-4.2238
11
9.83467
21
-4.22638
0
LINE
8
BLACK
6
CONTINUOUS
10
9.83467
20
-4.22638
11
9.83398
21
-4.22895
0
LINE
8
BLACK
6
CONTINUOUS
10
9.83398
20
-4.22895
11
9.8321
21
-4.23083
0
LINE
8
BLACK
6
CONTINUOUS
10
9.8321
20
-4.23083
11
9.82953
21
-4.23152
0
LINE
8
BLACK
6
CONTINUOUS
10
9.82953
20
-4.23152
11
9.82695
21
-4.23083
0
LINE
8
BLACK
6
CONTINUOUS
10
9.82695
20
-4.23083
11
9.82507
21
-4.22895
0
LINE
8
BLACK
6
CONTINUOUS
10
9.82507
20
-4.22895
11
9.82438
21
-4.22638
0
LINE
8
BLACK
6
CONTINUOUS
10
9.82907
20
-4.22638
11
9.8292
21
-4.2267
0
LINE
8
BLACK
6
CONTINUOUS
10
9.8292
20
-4.2267
11
9.82953
21
-4.22683
0
LINE
8
BLACK
6
CONTINUOUS
10
9.82953
20
-4.22683
11
9.82985
21
-4.2267
0
LINE
8
BLACK
6
CONTINUOUS
10
9.82985
20
-4.2267
11
9.82998
21
-4.22638
0
LINE
8
BLACK
6
CONTINUOUS
10
9.82998
20
-4.22638
11
9.82985
21
-4.22606
0
LINE
8
BLACK
6
CONTINUOUS
10
9.82985
20
-4.22606
11
9.82953
21
-4.22592
0
LINE
8
BLACK
6
CONTINUOUS
10
9.82953
20
-4.22592
11
9.8292
21
-4.22606
0
LINE
8
BLACK
6
CONTINUOUS
10
9.8292
20
-4.22606
11
9.82907
21
-4.22638
0
LINE
8
BLACK
6
CONTINUOUS
10
9.07438
20
-4.22638
11
9.07507
21
-4.2238
0
LINE
8
BLACK
6
CONTINUOUS
10
9.07507
20
-4.2238
11
9.07695
21
-4.22192
0
LINE
8
BLACK
6
CONTINUOUS
10
9.07695
20
-4.22192
11
9.07953
21
-4.22123
0
LINE
8
BLACK
6
CONTINUOUS
10
9.07953
20
-4.22123
11
9.0821
21
-4.22192
0
LINE
8
BLACK
6
CONTINUOUS
10
9.0821
20
-4.22192
11
9.08398
21
-4.2238
0
LINE
8
BLACK
6
CONTINUOUS
10
9.08398
20
-4.2238
11
9.08467
21
-4.22638
0
LINE
8
BLACK
6
CONTINUOUS
10
9.08467
20
-4.22638
11
9.08398
21
-4.22895
0
LINE
8
BLACK
6
CONTINUOUS
10
9.08398
20
-4.22895
11
9.0821
21
-4.23083
0
LINE
8
BLACK
6
CONTINUOUS
10
9.0821
20
-4.23083
11
9.07953
21
-4.23152
0
LINE
8
BLACK
6
CONTINUOUS
10
9.07953
20
-4.23152
11
9.07695
21
-4.23083
0
LINE
8
BLACK
6
CONTINUOUS
10
9.07695
20
-4.23083
11
9.07507
21
-4.22895
0
LINE
8
BLACK
6
CONTINUOUS
10
9.07507
20
-4.22895
11
9.07438
21
-4.22638
0
LINE
8
BLACK
6
CONTINUOUS
10
9.07907
20
-4.22638
11
9.0792
21
-4.2267
0
LINE
8
BLACK
6
CONTINUOUS
10
9.0792
20
-4.2267
11
9.07953
21
-4.22683
0
LINE
8
BLACK
6
CONTINUOUS
10
9.07953
20
-4.22683
11
9.07985
21
-4.2267
0
LINE
8
BLACK
6
CONTINUOUS
10
9.07985
20
-4.2267
11
9.07998
21
-4.22638
0
LINE
8
BLACK
6
CONTINUOUS
10
9.07998
20
-4.22638
11
9.07985
21
-4.22606
0
LINE
8
BLACK
6
CONTINUOUS
10
9.07985
20
-4.22606
11
9.07953
21
-4.22592
0
LINE
8
BLACK
6
CONTINUOUS
10
9.07953
20
-4.22592
11
9.0792
21
-4.22606
0
LINE
8
BLACK
6
CONTINUOUS
10
9.0792
20
-4.22606
11
9.07907
21
-4.22638
0
LINE
8
BLACK
6
CONTINUOUS
10
8.32438
20
-4.22638
11
8.32507
21
-4.2238
0
LINE
8
BLACK
6
CONTINUOUS
10
8.32507
20
-4.2238
11
8.32695
21
-4.22192
0
LINE
8
BLACK
6
CONTINUOUS
10
8.32695
20
-4.22192
11
8.32953
21
-4.22123
0
LINE
8
BLACK
6
CONTINUOUS
10
8.32953
20
-4.22123
11
8.3321
21
-4.22192
0
LINE
8
BLACK
6
CONTINUOUS
10
8.3321
20
-4.22192
11
8.33398
21
-4.2238
0
LINE
8
BLACK
6
CONTINUOUS
10
8.33398
20
-4.2238
11
8.33467
21
-4.22638
0
LINE
8
BLACK
6
CONTINUOUS
10
8.33467
20
-4.22638
11
8.33398
21
-4.22895
0
LINE
8
BLACK
6
CONTINUOUS
10
8.33398
20
-4.22895
11
8.3321
21
-4.23083
0
LINE
8
BLACK
6
CONTINUOUS
10
8.3321
20
-4.23083
11
8.32953
21
-4.23152
0
LINE
8
BLACK
6
CONTINUOUS
10
8.32953
20
-4.23152
11
8.32695
21
-4.23083
0
LINE
8
BLACK
6
CONTINUOUS
10
8.32695
20
-4.23083
11
8.32507
21
-4.22895
0
LINE
8
BLACK
6
CONTINUOUS
10
8.32507
20
-4.22895
11
8.32438
21
-4.22638
0
LINE
8
BLACK
6
CONTINUOUS
10
8.32907
20
-4.22638
11
8.3292
21
-4.2267
0
LINE
8
BLACK
6
CONTINUOUS
10
8.3292
20
-4.2267
11
8.32953
21
-4.22683
0
LINE
8
BLACK
6
CONTINUOUS
10
8.32953
20
-4.22683
11
8.32985
21
-4.2267
0
LINE
8
BLACK
6
CONTINUOUS
10
8.32985
20
-4.2267
11
8.32998
21
-4.22638
0
LINE
8
BLACK
6
CONTINUOUS
10
8.32998
20
-4.22638
11
8.32985
21
-4.22606
0
LINE
8
BLACK
6
CONTINUOUS
10
8.32985
20
-4.22606
11
8.32953
21
-4.22592
0
LINE
8
BLACK
6
CONTINUOUS
10
8.32953
20
-4.22592
11
8.3292
21
-4.22606
0
LINE
8
BLACK
6
CONTINUOUS
10
8.3292
20
-4.22606
11
8.32907
21
-4.22638
0
LINE
8
BLACK
6
CONTINUOUS
10
7.57438
20
-4.22638
11
7.57507
21
-4.2238
0
LINE
8
BLACK
6
CONTINUOUS
10
7.57507
20
-4.2238
11
7.57695
21
-4.22192
0
LINE
8
BLACK
6
CONTINUOUS
10
7.57695
20
-4.22192
11
7.57953
21
-4.22123
0
LINE
8
BLACK
6
CONTINUOUS
10
7.57953
20
-4.22123
11
7.5821
21
-4.22192
0
LINE
8
BLACK
6
CONTINUOUS
10
7.5821
20
-4.22192
11
7.58398
21
-4.2238
0
LINE
8
BLACK
6
CONTINUOUS
10
7.58398
20
-4.2238
11
7.58467
21
-4.22638
0
LINE
8
BLACK
6
CONTINUOUS
10
7.58467
20
-4.22638
11
7.58398
21
-4.22895
0
LINE
8
BLACK
6
CONTINUOUS
10
7.58398
20
-4.22895
11
7.5821
21
-4.23083
0
LINE
8
BLACK
6
CONTINUOUS
10
7.5821
20
-4.23083
11
7.57953
21
-4.23152
0
LINE
8
BLACK
6
CONTINUOUS
10
7.57953
20
-4.23152
11
7.57695
21
-4.23083
0
LINE
8
BLACK
6
CONTINUOUS
10
7.57695
20
-4.23083
11
7.57507
21
-4.22895
0
LINE
8
BLACK
6
CONTINUOUS
10
7.57507
20
-4.22895
11
7.57438
21
-4.22638
0
LINE
8
BLACK
6
CONTINUOUS
10
7.57907
20
-4.22638
11
7.5792
21
-4.2267
0
LINE
8
BLACK
6
CONTINUOUS
10
7.5792
20
-4.2267
11
7.57953
21
-4.22683
0
LINE
8
BLACK
6
CONTINUOUS
10
7.57953
20
-4.22683
11
7.57985
21
-4.2267
0
LINE
8
BLACK
6
CONTINUOUS
10
7.57985
20
-4.2267
11
7.57998
21
-4.22638
0
LINE
8
BLACK
6
CONTINUOUS
10
7.57998
20
-4.22638
11
7.57985
21
-4.22606
0
LINE
8
BLACK
6
CONTINUOUS
10
7.57985
20
-4.22606
11
7.57953
21
-4.22592
0
LINE
8
BLACK
6
CONTINUOUS
10
7.57953
20
-4.22592
11
7.5792
21
-4.22606
0
LINE
8
BLACK
6
CONTINUOUS
10
7.5792
20
-4.22606
11
7.57907
21
-4.22638
0
LINE
8
BLACK
6
CONTINUOUS
10
6.82438
20
-4.22638
11
6.82507
21
-4.2238
0
LINE
8
BLACK
6
CONTINUOUS
10
6.82507
20
-4.2238
11
6.82695
21
-4.22192
0
LINE
8
BLACK
6
CONTINUOUS
10
6.82695
20
-4.22192
11
6.82953
21
-4.22123
0
LINE
8
BLACK
6
CONTINUOUS
10
6.82953
20
-4.22123
11
6.8321
21
-4.22192
0
LINE
8
BLACK
6
CONTINUOUS
10
6.8321
20
-4.22192
11
6.83398
21
-4.2238
0
LINE
8
BLACK
6
CONTINUOUS
10
6.83398
20
-4.2238
11
6.83467
21
-4.22638
0
LINE
8
BLACK
6
CONTINUOUS
10
6.83467
20
-4.22638
11
6.83398
21
-4.22895
0
LINE
8
BLACK
6
CONTINUOUS
10
6.83398
20
-4.22895
11
6.8321
21
-4.23083
0
LINE
8
BLACK
6
CONTINUOUS
10
6.8321
20
-4.23083
11
6.82953
21
-4.23152
0
LINE
8
BLACK
6
CONTINUOUS
10
6.82953
20
-4.23152
11
6.82695
21
-4.23083
0
LINE
8
BLACK
6
CONTINUOUS
10
6.82695
20
-4.23083
11
6.82507
21
-4.22895
0
LINE
8
BLACK
6
CONTINUOUS
10
6.82507
20
-4.22895
11
6.82438
21
-4.22638
0
LINE
8
BLACK
6
CONTINUOUS
10
6.82907
20
-4.22638
11
6.8292
21
-4.2267
0
LINE
8
BLACK
6
CONTINUOUS
10
6.8292
20
-4.2267
11
6.82953
21
-4.22683
0
LINE
8
BLACK
6
CONTINUOUS
10
6.82953
20
-4.22683
11
6.82985
21
-4.2267
0
LINE
8
BLACK
6
CONTINUOUS
10
6.82985
20
-4.2267
11
6.82998
21
-4.22638
0
LINE
8
BLACK
6
CONTINUOUS
10
6.82998
20
-4.22638
11
6.82985
21
-4.22606
0
LINE
8
BLACK
6
CONTINUOUS
10
6.82985
20
-4.22606
11
6.82953
21
-4.22592
0
LINE
8
BLACK
6
CONTINUOUS
10
6.82953
20
-4.22592
11
6.8292
21
-4.22606
0
LINE
8
BLACK
6
CONTINUOUS
10
6.8292
20
-4.22606
11
6.82907
21
-4.22638
0
LINE
8
BLACK
6
CONTINUOUS
10
6.07438
20
-4.22638
11
6.07507
21
-4.2238
0
LINE
8
BLACK
6
CONTINUOUS
10
6.07507
20
-4.2238
11
6.07695
21
-4.22192
0
LINE
8
BLACK
6
CONTINUOUS
10
6.07695
20
-4.22192
11
6.07953
21
-4.22123
0
LINE
8
BLACK
6
CONTINUOUS
10
6.07953
20
-4.22123
11
6.0821
21
-4.22192
0
LINE
8
BLACK
6
CONTINUOUS
10
6.0821
20
-4.22192
11
6.08398
21
-4.2238
0
LINE
8
BLACK
6
CONTINUOUS
10
6.08398
20
-4.2238
11
6.08467
21
-4.22638
0
LINE
8
BLACK
6
CONTINUOUS
10
6.08467
20
-4.22638
11
6.08398
21
-4.22895
0
LINE
8
BLACK
6
CONTINUOUS
10
6.08398
20
-4.22895
11
6.0821
21
-4.23083
0
LINE
8
BLACK
6
CONTINUOUS
10
6.0821
20
-4.23083
11
6.07953
21
-4.23152
0
LINE
8
BLACK
6
CONTINUOUS
10
6.07953
20
-4.23152
11
6.07695
21
-4.23083
0
LINE
8
BLACK
6
CONTINUOUS
10
6.07695
20
-4.23083
11
6.07507
21
-4.22895
0
LINE
8
BLACK
6
CONTINUOUS
10
6.07507
20
-4.22895
11
6.07438
21
-4.22638
0
LINE
8
BLACK
6
CONTINUOUS
10
6.07907
20
-4.22638
11
6.0792
21
-4.2267
0
LINE
8
BLACK
6
CONTINUOUS
10
6.0792
20
-4.2267
11
6.07953
21
-4.22683
0
LINE
8
BLACK
6
CONTINUOUS
10
6.07953
20
-4.22683
11
6.07985
21
-4.2267
0
LINE
8
BLACK
6
CONTINUOUS
10
6.07985
20
-4.2267
11
6.07998
21
-4.22638
0
LINE
8
BLACK
6
CONTINUOUS
10
6.07998
20
-4.22638
11
6.07985
21
-4.22606
0
LINE
8
BLACK
6
CONTINUOUS
10
6.07985
20
-4.22606
11
6.07953
21
-4.22592
0
LINE
8
BLACK
6
CONTINUOUS
10
6.07953
20
-4.22592
11
6.0792
21
-4.22606
0
LINE
8
BLACK
6
CONTINUOUS
10
6.0792
20
-4.22606
11
6.07907
21
-4.22638
0
LINE
8
BLACK
6
CONTINUOUS
10
5.32438
20
-4.22638
11
5.32507
21
-4.2238
0
LINE
8
BLACK
6
CONTINUOUS
10
5.32507
20
-4.2238
11
5.32695
21
-4.22192
0
LINE
8
BLACK
6
CONTINUOUS
10
5.32695
20
-4.22192
11
5.32953
21
-4.22123
0
LINE
8
BLACK
6
CONTINUOUS
10
5.32953
20
-4.22123
11
5.3321
21
-4.22192
0
LINE
8
BLACK
6
CONTINUOUS
10
5.3321
20
-4.22192
11
5.33398
21
-4.2238
0
LINE
8
BLACK
6
CONTINUOUS
10
5.33398
20
-4.2238
11
5.33467
21
-4.22638
0
LINE
8
BLACK
6
CONTINUOUS
10
5.33467
20
-4.22638
11
5.33398
21
-4.22895
0
LINE
8
BLACK
6
CONTINUOUS
10
5.33398
20
-4.22895
11
5.3321
21
-4.23083
0
LINE
8
BLACK
6
CONTINUOUS
10
5.3321
20
-4.23083
11
5.32953
21
-4.23152
0
LINE
8
BLACK
6
CONTINUOUS
10
5.32953
20
-4.23152
11
5.32695
21
-4.23083
0
LINE
8
BLACK
6
CONTINUOUS
10
5.32695
20
-4.23083
11
5.32507
21
-4.22895
0
LINE
8
BLACK
6
CONTINUOUS
10
5.32507
20
-4.22895
11
5.32438
21
-4.22638
0
LINE
8
BLACK
6
CONTINUOUS
10
5.32907
20
-4.22638
11
5.3292
21
-4.2267
0
LINE
8
BLACK
6
CONTINUOUS
10
5.3292
20
-4.2267
11
5.32953
21
-4.22683
0
LINE
8
BLACK
6
CONTINUOUS
10
5.32953
20
-4.22683
11
5.32985
21
-4.2267
0
LINE
8
BLACK
6
CONTINUOUS
10
5.32985
20
-4.2267
11
5.32998
21
-4.22638
0
LINE
8
BLACK
6
CONTINUOUS
10
5.32998
20
-4.22638
11
5.32985
21
-4.22606
0
LINE
8
BLACK
6
CONTINUOUS
10
5.32985
20
-4.22606
11
5.32953
21
-4.22592
0
LINE
8
BLACK
6
CONTINUOUS
10
5.32953
20
-4.22592
11
5.3292
21
-4.22606
0
LINE
8
BLACK
6
CONTINUOUS
10
5.3292
20
-4.22606
11
5.32907
21
-4.22638
0
LINE
8
BLACK
6
CONTINUOUS
10
4.57438
20
-4.22638
11
4.57507
21
-4.2238
0
LINE
8
BLACK
6
CONTINUOUS
10
4.57507
20
-4.2238
11
4.57695
21
-4.22192
0
LINE
8
BLACK
6
CONTINUOUS
10
4.57695
20
-4.22192
11
4.57953
21
-4.22123
0
LINE
8
BLACK
6
CONTINUOUS
10
4.57953
20
-4.22123
11
4.5821
21
-4.22192
0
LINE
8
BLACK
6
CONTINUOUS
10
4.5821
20
-4.22192
11
4.58398
21
-4.2238
0
LINE
8
BLACK
6
CONTINUOUS
10
4.58398
20
-4.2238
11
4.58467
21
-4.22638
0
LINE
8
BLACK
6
CONTINUOUS
10
4.58467
20
-4.22638
11
4.58398
21
-4.22895
0
LINE
8
BLACK
6
CONTINUOUS
10
4.58398
20
-4.22895
11
4.5821
21
-4.23083
0
LINE
8
BLACK
6
CONTINUOUS
10
4.5821
20
-4.23083
11
4.57953
21
-4.23152
0
LINE
8
BLACK
6
CONTINUOUS
10
4.57953
20
-4.23152
11
4.57695
21
-4.23083
0
LINE
8
BLACK
6
CONTINUOUS
10
4.57695
20
-4.23083
11
4.57507
21
-4.22895
0
LINE
8
BLACK
6
CONTINUOUS
10
4.57507
20
-4.22895
11
4.57438
21
-4.22638
0
LINE
8
BLACK
6
CONTINUOUS
10
4.57907
20
-4.22638
11
4.5792
21
-4.2267
0
LINE
8
BLACK
6
CONTINUOUS
10
4.5792
20
-4.2267
11
4.57953
21
-4.22683
0
LINE
8
BLACK
6
CONTINUOUS
10
4.57953
20
-4.22683
11
4.57985
21
-4.2267
0
LINE
8
BLACK
6
CONTINUOUS
10
4.57985
20
-4.2267
11
4.57998
21
-4.22638
0
LINE
8
BLACK
6
CONTINUOUS
10
4.57998
20
-4.22638
11
4.57985
21
-4.22606
0
LINE
8
BLACK
6
CONTINUOUS
10
4.57985
20
-4.22606
11
4.57953
21
-4.22592
0
LINE
8
BLACK
6
CONTINUOUS
10
4.57953
20
-4.22592
11
4.5792
21
-4.22606
0
LINE
8
BLACK
6
CONTINUOUS
10
4.5792
20
-4.22606
11
4.57907
21
-4.22638
0
LINE
8
BLACK
6
CONTINUOUS
10
3.82438
20
-4.22638
11
3.82507
21
-4.2238
0
LINE
8
BLACK
6
CONTINUOUS
10
3.82507
20
-4.2238
11
3.82695
21
-4.22192
0
LINE
8
BLACK
6
CONTINUOUS
10
3.82695
20
-4.22192
11
3.82953
21
-4.22123
0
LINE
8
BLACK
6
CONTINUOUS
10
3.82953
20
-4.22123
11
3.8321
21
-4.22192
0
LINE
8
BLACK
6
CONTINUOUS
10
3.8321
20
-4.22192
11
3.83398
21
-4.2238
0
LINE
8
BLACK
6
CONTINUOUS
10
3.83398
20
-4.2238
11
3.83467
21
-4.22638
0
LINE
8
BLACK
6
CONTINUOUS
10
3.83467
20
-4.22638
11
3.83398
21
-4.22895
0
LINE
8
BLACK
6
CONTINUOUS
10
3.83398
20
-4.22895
11
3.8321
21
-4.23083
0
LINE
8
BLACK
6
CONTINUOUS
10
3.8321
20
-4.23083
11
3.82953
21
-4.23152
0
LINE
8
BLACK
6
CONTINUOUS
10
3.82953
20
-4.23152
11
3.82695
21
-4.23083
0
LINE
8
BLACK
6
CONTINUOUS
10
3.82695
20
-4.23083
11
3.82507
21
-4.22895
0
LINE
8
BLACK
6
CONTINUOUS
10
3.82507
20
-4.22895
11
3.82438
21
-4.22638
0
LINE
8
BLACK
6
CONTINUOUS
10
3.82907
20
-4.22638
11
3.8292
21
-4.2267
0
LINE
8
BLACK
6
CONTINUOUS
10
3.8292
20
-4.2267
11
3.82953
21
-4.22683
0
LINE
8
BLACK
6
CONTINUOUS
10
3.82953
20
-4.22683
11
3.82985
21
-4.2267
0
LINE
8
BLACK
6
CONTINUOUS
10
3.82985
20
-4.2267
11
3.82998
21
-4.22638
0
LINE
8
BLACK
6
CONTINUOUS
10
3.82998
20
-4.22638
11
3.82985
21
-4.22606
0
LINE
8
BLACK
6
CONTINUOUS
10
3.82985
20
-4.22606
11
3.82953
21
-4.22592
0
LINE
8
BLACK
6
CONTINUOUS
10
3.82953
20
-4.22592
11
3.8292
21
-4.22606
0
LINE
8
BLACK
6
CONTINUOUS
10
3.8292
20
-4.22606
11
3.82907
21
-4.22638
0
LINE
8
BLACK
6
CONTINUOUS
10
3.07438
20
-4.22638
11
3.07507
21
-4.2238
0
LINE
8
BLACK
6
CONTINUOUS
10
3.07507
20
-4.2238
11
3.07695
21
-4.22192
0
LINE
8
BLACK
6
CONTINUOUS
10
3.07695
20
-4.22192
11
3.07953
21
-4.22123
0
LINE
8
BLACK
6
CONTINUOUS
10
3.07953
20
-4.22123
11
3.0821
21
-4.22192
0
LINE
8
BLACK
6
CONTINUOUS
10
3.0821
20
-4.22192
11
3.08398
21
-4.2238
0
LINE
8
BLACK
6
CONTINUOUS
10
3.08398
20
-4.2238
11
3.08467
21
-4.22638
0
LINE
8
BLACK
6
CONTINUOUS
10
3.08467
20
-4.22638
11
3.08398
21
-4.22895
0
LINE
8
BLACK
6
CONTINUOUS
10
3.08398
20
-4.22895
11
3.0821
21
-4.23083
0
LINE
8
BLACK
6
CONTINUOUS
10
3.0821
20
-4.23083
11
3.07953
21
-4.23152
0
LINE
8
BLACK
6
CONTINUOUS
10
3.07953
20
-4.23152
11
3.07695
21
-4.23083
0
LINE
8
BLACK
6
CONTINUOUS
10
3.07695
20
-4.23083
11
3.07507
21
-4.22895
0
LINE
8
BLACK
6
CONTINUOUS
10
3.07507
20
-4.22895
11
3.07438
21
-4.22638
0
LINE
8
BLACK
6
CONTINUOUS
10
3.07907
20
-4.22638
11
3.0792
21
-4.2267
0
LINE
8
BLACK
6
CONTINUOUS
10
3.0792
20
-4.2267
11
3.07953
21
-4.22683
0
LINE
8
BLACK
6
CONTINUOUS
10
3.07953
20
-4.22683
11
3.07985
21
-4.2267
0
LINE
8
BLACK
6
CONTINUOUS
10
3.07985
20
-4.2267
11
3.07998
21
-4.22638
0
LINE
8
BLACK
6
CONTINUOUS
10
3.07998
20
-4.22638
11
3.07985
21
-4.22606
0
LINE
8
BLACK
6
CONTINUOUS
10
3.07985
20
-4.22606
11
3.07953
21
-4.22592
0
LINE
8
BLACK
6
CONTINUOUS
10
3.07953
20
-4.22592
11
3.0792
21
-4.22606
0
LINE
8
BLACK
6
CONTINUOUS
10
3.0792
20
-4.22606
11
3.07907
21
-4.22638
0
LINE
8
BLACK
6
CONTINUOUS
10
2.32438
20
-4.22638
11
2.32507
21
-4.2238
0
LINE
8
BLACK
6
CONTINUOUS
10
2.32507
20
-4.2238
11
2.32695
21
-4.22192
0
LINE
8
BLACK
6
CONTINUOUS
10
2.32695
20
-4.22192
11
2.32953
21
-4.22123
0
LINE
8
BLACK
6
CONTINUOUS
10
2.32953
20
-4.22123
11
2.3321
21
-4.22192
0
LINE
8
BLACK
6
CONTINUOUS
10
2.3321
20
-4.22192
11
2.33398
21
-4.2238
0
LINE
8
BLACK
6
CONTINUOUS
10
2.33398
20
-4.2238
11
2.33467
21
-4.22638
0
LINE
8
BLACK
6
CONTINUOUS
10
2.33467
20
-4.22638
11
2.33398
21
-4.22895
0
LINE
8
BLACK
6
CONTINUOUS
10
2.33398
20
-4.22895
11
2.3321
21
-4.23083
0
LINE
8
BLACK
6
CONTINUOUS
10
2.3321
20
-4.23083
11
2.32953
21
-4.23152
0
LINE
8
BLACK
6
CONTINUOUS
10
2.32953
20
-4.23152
11
2.32695
21
-4.23083
0
LINE
8
BLACK
6
CONTINUOUS
10
2.32695
20
-4.23083
11
2.32507
21
-4.22895
0
LINE
8
BLACK
6
CONTINUOUS
10
2.32507
20
-4.22895
11
2.32438
21
-4.22638
0
LINE
8
BLACK
6
CONTINUOUS
10
2.32907
20
-4.22638
11
2.3292
21
-4.2267
0
LINE
8
BLACK
6
CONTINUOUS
10
2.3292
20
-4.2267
11
2.32953
21
-4.22683
0
LINE
8
BLACK
6
CONTINUOUS
10
2.32953
20
-4.22683
11
2.32985
21
-4.2267
0
LINE
8
BLACK
6
CONTINUOUS
10
2.32985
20
-4.2267
11
2.32998
21
-4.22638
0
LINE
8
BLACK
6
CONTINUOUS
10
2.32998
20
-4.22638
11
2.32985
21
-4.22606
0
LINE
8
BLACK
6
CONTINUOUS
10
2.32985
20
-4.22606
11
2.32953
21
-4.22592
0
LINE
8
BLACK
6
CONTINUOUS
10
2.32953
20
-4.22592
11
2.3292
21
-4.22606
0
LINE
8
BLACK
6
CONTINUOUS
10
2.3292
20
-4.22606
11
2.32907
21
-4.22638
0
LINE
8
BLACK
6
CONTINUOUS
10
2.98012
20
-3.71358
11
3.73012
21
-3.71358
0
LINE
8
BLACK
6
CONTINUOUS
10
3.73012
20
-3.71358
11
4.48012
21
-3.71358
0
LINE
8
BLACK
6
CONTINUOUS
10
4.48012
20
-3.71358
11
5.23012
21
-3.71358
0
LINE
8
BLACK
6
CONTINUOUS
10
5.23012
20
-3.71358
11
5.98012
21
-3.71358
0
LINE
8
BLACK
6
CONTINUOUS
10
5.98012
20
-3.71358
11
6.73012
21
-3.71358
0
LINE
8
BLACK
6
CONTINUOUS
10
6.73012
20
-3.71358
11
7.48012
21
-3.71358
0
LINE
8
BLACK
6
CONTINUOUS
10
7.48012
20
-3.71358
11
8.23012
21
-3.71358
0
LINE
8
BLACK
6
CONTINUOUS
10
8.23012
20
-3.71358
11
8.98012
21
-3.71358
0
LINE
8
BLACK
6
CONTINUOUS
10
8.98012
20
-3.71358
11
9.73012
21
-3.71358
0
LINE
8
BLACK
6
CONTINUOUS
10
9.73012
20
-3.71358
11
10.4801
21
-3.71358
0
LINE
8
BLACK
6
CONTINUOUS
10
10.4801
20
-3.71358
11
11.2301
21
-3.71358
0
LINE
8
BLACK
6
CONTINUOUS
10
11.2301
20
-3.71358
11
11.9801
21
-3.71358
0
LINE
8
BLACK
6
CONTINUOUS
10
11.9801
20
-3.71358
11
13.4801
21
-3.71358
0
LINE
8
BLACK
6
CONTINUOUS
10
13.4801
20
-3.71358
11
13.4815
21
-3.71416
0
LINE
8
BLACK
6
CONTINUOUS
10
13.4815
20
-3.71416
11
13.4821
21
-3.71555
0
LINE
8
BLACK
6
CONTINUOUS
10
13.4821
20
-3.71555
11
13.4821
21
-4.46555
0
LINE
8
BLACK
6
CONTINUOUS
10
13.4821
20
-4.46555
11
13.4821
21
-4.46555
0
LINE
8
BLACK
6
CONTINUOUS
10
13.4821
20
-4.46555
11
13.4821
21
-5.96555
0
LINE
8
BLACK
6
CONTINUOUS
10
13.4821
20
-5.96555
11
13.4821
21
-5.96556
0
LINE
8
BLACK
6
CONTINUOUS
10
13.4821
20
-5.96556
11
13.4821
21
-6.71358
0
LINE
8
BLACK
6
CONTINUOUS
10
13.4821
20
-6.71358
11
14.2301
21
-6.71358
0
LINE
8
BLACK
6
CONTINUOUS
10
14.2301
20
-6.71358
11
14.2315
21
-6.71416
0
LINE
8
BLACK
6
CONTINUOUS
10
14.2315
20
-6.71416
11
14.2321
21
-6.71555
0
LINE
8
BLACK
6
CONTINUOUS
10
14.2321
20
-6.71555
11
14.2321
21
-7.46555
0
LINE
8
BLACK
6
CONTINUOUS
10
14.2321
20
-7.46555
11
14.2315
21
-7.46694
0
LINE
8
BLACK
6
CONTINUOUS
10
14.2315
20
-7.46694
11
14.2301
21
-7.46752
0
LINE
8
BLACK
6
CONTINUOUS
10
14.2301
20
-7.46752
11
13.4801
21
-7.46752
0
LINE
8
BLACK
6
CONTINUOUS
10
13.4801
20
-7.46752
11
12.7301
21
-7.46752
0
LINE
8
BLACK
6
CONTINUOUS
10
12.7301
20
-7.46752
11
11.9801
21
-7.46752
0
LINE
8
BLACK
6
CONTINUOUS
10
11.9801
20
-7.46752
11
11.2301
21
-7.46752
0
LINE
8
BLACK
6
CONTINUOUS
10
11.2301
20
-7.46752
11
10.4801
21
-7.46752
0
LINE
8
BLACK
6
CONTINUOUS
10
10.4801
20
-7.46752
11
10.4801
21
-7.46752
0
LINE
8
BLACK
6
CONTINUOUS
10
10.4801
20
-7.46752
11
8.79262
21
-7.46752
0
LINE
8
BLACK
6
CONTINUOUS
10
8.79262
20
-7.46752
11
7.85512
21
-7.46752
0
LINE
8
BLACK
6
CONTINUOUS
10
7.85512
20
-7.46752
11
5.79262
21
-7.46752
0
LINE
8
BLACK
6
CONTINUOUS
10
5.79262
20
-7.46752
11
4.85512
21
-7.46752
0
LINE
8
BLACK
6
CONTINUOUS
10
4.85512
20
-7.46752
11
4.85512
21
-7.46752
0
LINE
8
BLACK
6
CONTINUOUS
10
4.85512
20
-7.46752
11
4.85512
21
-7.46752
0
LINE
8
BLACK
6
CONTINUOUS
10
4.85512
20
-7.46752
11
4.10512
21
-7.46752
0
LINE
8
BLACK
6
CONTINUOUS
10
4.10512
20
-7.46752
11
3.35512
21
-7.46752
0
LINE
8
BLACK
6
CONTINUOUS
10
3.35512
20
-7.46752
11
2.23012
21
-7.46752
0
LINE
8
BLACK
6
CONTINUOUS
10
2.23012
20
-7.46752
11
2.22873
21
-7.46694
0
LINE
8
BLACK
6
CONTINUOUS
10
2.22873
20
-7.46694
11
2.22815
21
-7.46555
0
LINE
8
BLACK
6
CONTINUOUS
10
2.22815
20
-7.46555
11
2.22815
21
-6.71555
0
LINE
8
BLACK
6
CONTINUOUS
10
2.22815
20
-6.71555
11
2.22815
21
-6.71555
0
LINE
8
BLACK
6
CONTINUOUS
10
2.22815
20
-6.71555
11
2.22815
21
-5.96555
0
LINE
8
BLACK
6
CONTINUOUS
10
2.22815
20
-5.96555
11
2.22815
21
-5.21556
0
LINE
8
BLACK
6
CONTINUOUS
10
2.22815
20
-5.21556
11
2.22815
21
-5.21555
0
LINE
8
BLACK
6
CONTINUOUS
10
2.22815
20
-5.21555
11
2.22815
21
-4.46555
0
LINE
8
BLACK
6
CONTINUOUS
10
2.22815
20
-4.46555
11
2.22815
21
-3.71555
0
LINE
8
BLACK
6
CONTINUOUS
10
2.22815
20
-3.71555
11
2.22873
21
-3.71416
0
LINE
8
BLACK
6
CONTINUOUS
10
2.22873
20
-3.71416
11
2.23012
21
-3.71358
0
LINE
8
BLACK
6
CONTINUOUS
10
2.23012
20
-3.71358
11
2.98012
21
-3.71358
0
LINE
8
BLACK
6
CONTINUOUS
10
13.4821
20
-6.71752
11
13.4821
21
-7.46358
0
LINE
8
BLACK
6
CONTINUOUS
10
13.4821
20
-7.46358
11
14.2281
21
-7.46358
0
LINE
8
BLACK
6
CONTINUOUS
10
14.2281
20
-7.46358
11
14.2281
21
-6.71752
0
LINE
8
BLACK
6
CONTINUOUS
10
14.2281
20
-6.71752
11
13.4821
21
-6.71752
0
LINE
8
BLACK
6
CONTINUOUS
10
12.7321
20
-6.71752
11
12.7321
21
-7.46358
0
LINE
8
BLACK
6
CONTINUOUS
10
12.7321
20
-7.46358
11
13.4781
21
-7.46358
0
LINE
8
BLACK
6
CONTINUOUS
10
13.4781
20
-7.46358
11
13.4781
21
-6.71752
0
LINE
8
BLACK
6
CONTINUOUS
10
13.4781
20
-6.71752
11
12.7321
21
-6.71752
0
LINE
8
BLACK
6
CONTINUOUS
10
11.9821
20
-6.71752
11
11.9821
21
-7.46358
0
LINE
8
BLACK
6
CONTINUOUS
10
11.9821
20
-7.46358
11
12.7281
21
-7.46358
0
LINE
8
BLACK
6
CONTINUOUS
10
12.7281
20
-7.46358
11
12.7281
21
-6.71752
0
LINE
8
BLACK
6
CONTINUOUS
10
12.7281
20
-6.71752
11
11.9821
21
-6.71752
0
LINE
8
BLACK
6
CONTINUOUS
10
11.4176
20
-6.71752
11
11.4176
21
-6.71752
0
LINE
8
BLACK
6
CONTINUOUS
10
11.4176
20
-6.71752
11
11.2321
21
-6.71752
0
LINE
8
BLACK
6
CONTINUOUS
10
11.2321
20
-6.71752
11
11.2321
21
-7.46358
0
LINE
8
BLACK
6
CONTINUOUS
10
11.2321
20
-7.46358
11
11.9781
21
-7.46358
0
LINE
8
BLACK
6
CONTINUOUS
10
11.9781
20
-7.46358
11
11.9781
21
-6.71752
0
LINE
8
BLACK
6
CONTINUOUS
10
11.9781
20
-6.71752
11
11.4176
21
-6.71752
0
LINE
8
BLACK
6
CONTINUOUS
10
10.6676
20
-6.71752
11
10.4821
21
-6.71752
0
LINE
8
BLACK
6
CONTINUOUS
10
10.4821
20
-6.71752
11
10.4821
21
-7.46358
0
LINE
8
BLACK
6
CONTINUOUS
10
10.4821
20
-7.46358
11
11.2281
21
-7.46358
0
LINE
8
BLACK
6
CONTINUOUS
10
11.2281
20
-7.46358
11
11.2281
21
-6.71752
0
LINE
8
BLACK
6
CONTINUOUS
10
11.2281
20
-6.71752
11
10.6676
21
-6.71752
0
LINE
8
BLACK
6
CONTINUOUS
10
9.91762
20
-6.71752
11
9.16762
21
-6.71752
0
LINE
8
BLACK
6
CONTINUOUS
10
9.16762
20
-6.71752
11
8.79459
21
-6.71752
0
LINE
8
BLACK
6
CONTINUOUS
10
8.79459
20
-6.71752
11
8.79459
21
-7.46358
0
LINE
8
BLACK
6
CONTINUOUS
10
8.79459
20
-7.46358
11
10.4781
21
-7.46358
0
LINE
8
BLACK
6
CONTINUOUS
10
10.4781
20
-7.46358
11
10.4781
21
-6.71752
0
LINE
8
BLACK
6
CONTINUOUS
10
10.4781
20
-6.71752
11
9.91762
21
-6.71752
0
LINE
8
BLACK
6
CONTINUOUS
10
8.41762
20
-6.71752
11
7.85709
21
-6.71752
0
LINE
8
BLACK
6
CONTINUOUS
10
7.85709
20
-6.71752
11
7.85709
21
-7.46358
0
LINE
8
BLACK
6
CONTINUOUS
10
7.85709
20
-7.46358
11
8.79065
21
-7.46358
0
LINE
8
BLACK
6
CONTINUOUS
10
8.79065
20
-7.46358
11
8.79065
21
-6.71752
0
LINE
8
BLACK
6
CONTINUOUS
10
8.79065
20
-6.71752
11
8.41762
21
-6.71752
0
LINE
8
BLACK
6
CONTINUOUS
10
7.66762
20
-6.71752
11
6.91762
21
-6.71752
0
LINE
8
BLACK
6
CONTINUOUS
10
6.91762
20
-6.71752
11
6.16762
21
-6.71752
0
LINE
8
BLACK
6
CONTINUOUS
10
6.16762
20
-6.71752
11
5.79459
21
-6.71752
0
LINE
8
BLACK
6
CONTINUOUS
10
5.79459
20
-6.71752
11
5.79459
21
-7.46358
0
LINE
8
BLACK
6
CONTINUOUS
10
5.79459
20
-7.46358
11
7.85315
21
-7.46358
0
LINE
8
BLACK
6
CONTINUOUS
10
7.85315
20
-7.46358
11
7.85315
21
-6.71752
0
LINE
8
BLACK
6
CONTINUOUS
10
7.85315
20
-6.71752
11
7.66762
21
-6.71752
0
LINE
8
BLACK
6
CONTINUOUS
10
5.41762
20
-6.71752
11
4.85709
21
-6.71752
0
LINE
8
BLACK
6
CONTINUOUS
10
4.85709
20
-6.71752
11
4.85709
21
-7.46358
0
LINE
8
BLACK
6
CONTINUOUS
10
4.85709
20
-7.46358
11
5.79065
21
-7.46358
0
LINE
8
BLACK
6
CONTINUOUS
10
5.79065
20
-7.46358
11
5.79065
21
-6.71752
0
LINE
8
BLACK
6
CONTINUOUS
10
5.79065
20
-6.71752
11
5.41762
21
-6.71752
0
LINE
8
BLACK
6
CONTINUOUS
10
4.66762
20
-6.71752
11
4.10709
21
-6.71752
0
LINE
8
BLACK
6
CONTINUOUS
10
4.10709
20
-6.71752
11
4.10709
21
-7.46358
0
LINE
8
BLACK
6
CONTINUOUS
10
4.10709
20
-7.46358
11
4.85315
21
-7.46358
0
LINE
8
BLACK
6
CONTINUOUS
10
4.85315
20
-7.46358
11
4.85315
21
-6.71752
0
LINE
8
BLACK
6
CONTINUOUS
10
4.85315
20
-6.71752
11
4.66762
21
-6.71752
0
LINE
8
BLACK
6
CONTINUOUS
10
3.91762
20
-6.71752
11
3.91762
21
-6.71752
0
LINE
8
BLACK
6
CONTINUOUS
10
3.91762
20
-6.71752
11
3.35709
21
-6.71752
0
LINE
8
BLACK
6
CONTINUOUS
10
3.35709
20
-6.71752
11
3.35709
21
-7.46358
0
LINE
8
BLACK
6
CONTINUOUS
10
3.35709
20
-7.46358
11
4.10315
21
-7.46358
0
LINE
8
BLACK
6
CONTINUOUS
10
4.10315
20
-7.46358
11
4.10315
21
-6.71752
0
LINE
8
BLACK
6
CONTINUOUS
10
4.10315
20
-6.71752
11
3.91762
21
-6.71752
0
LINE
8
BLACK
6
CONTINUOUS
10
2.23209
20
-6.71752
11
2.23209
21
-7.46358
0
LINE
8
BLACK
6
CONTINUOUS
10
2.23209
20
-7.46358
11
3.35315
21
-7.46358
0
LINE
8
BLACK
6
CONTINUOUS
10
3.35315
20
-7.46358
11
3.35315
21
-6.71752
0
LINE
8
BLACK
6
CONTINUOUS
10
3.35315
20
-6.71752
11
2.23209
21
-6.71752
0
LINE
8
BLACK
6
CONTINUOUS
10
12.7321
20
-5.96752
11
12.7321
21
-6.71358
0
LINE
8
BLACK
6
CONTINUOUS
10
12.7321
20
-6.71358
11
13.4781
21
-6.71358
0
LINE
8
BLACK
6
CONTINUOUS
10
13.4781
20
-6.71358
11
13.4781
21
-5.96752
0
LINE
8
BLACK
6
CONTINUOUS
10
13.4781
20
-5.96752
11
12.7321
21
-5.96752
0
LINE
8
BLACK
6
CONTINUOUS
10
12.5426
20
-5.96752
11
12.5426
21
-5.96752
0
LINE
8
BLACK
6
CONTINUOUS
10
12.5426
20
-5.96752
11
11.7926
21
-5.96752
0
LINE
8
BLACK
6
CONTINUOUS
10
11.7926
20
-5.96752
11
11.4196
21
-5.96752
0
LINE
8
BLACK
6
CONTINUOUS
10
11.4196
20
-5.96752
11
11.4196
21
-6.71358
0
LINE
8
BLACK
6
CONTINUOUS
10
11.4196
20
-6.71358
11
11.9801
21
-6.71358
0
LINE
8
BLACK
6
CONTINUOUS
10
11.9801
20
-6.71358
11
12.7281
21
-6.71358
0
LINE
8
BLACK
6
CONTINUOUS
10
12.7281
20
-6.71358
11
12.7281
21
-5.96752
0
LINE
8
BLACK
6
CONTINUOUS
10
12.7281
20
-5.96752
11
12.5426
21
-5.96752
0
LINE
8
BLACK
6
CONTINUOUS
10
11.0426
20
-5.96752
11
10.6696
21
-5.96752
0
LINE
8
BLACK
6
CONTINUOUS
10
10.6696
20
-5.96752
11
10.6696
21
-6.71358
0
LINE
8
BLACK
6
CONTINUOUS
10
10.6696
20
-6.71358
11
11.2301
21
-6.71358
0
LINE
8
BLACK
6
CONTINUOUS
10
11.2301
20
-6.71358
11
11.4156
21
-6.71358
0
LINE
8
BLACK
6
CONTINUOUS
10
11.4156
20
-6.71358
11
11.4156
21
-5.96752
0
LINE
8
BLACK
6
CONTINUOUS
10
11.4156
20
-5.96752
11
11.0426
21
-5.96752
0
LINE
8
BLACK
6
CONTINUOUS
10
10.2926
20
-5.96752
11
9.91959
21
-5.96752
0
LINE
8
BLACK
6
CONTINUOUS
10
9.91959
20
-5.96752
11
9.91959
21
-6.71358
0
LINE
8
BLACK
6
CONTINUOUS
10
9.91959
20
-6.71358
11
10.4801
21
-6.71358
0
LINE
8
BLACK
6
CONTINUOUS
10
10.4801
20
-6.71358
11
10.6656
21
-6.71358
0
LINE
8
BLACK
6
CONTINUOUS
10
10.6656
20
-6.71358
11
10.6656
21
-5.96752
0
LINE
8
BLACK
6
CONTINUOUS
10
10.6656
20
-5.96752
11
10.2926
21
-5.96752
0
LINE
8
BLACK
6
CONTINUOUS
10
9.54262
20
-5.96752
11
9.16959
21
-5.96752
0
LINE
8
BLACK
6
CONTINUOUS
10
9.16959
20
-5.96752
11
9.16959
21
-6.71358
0
LINE
8
BLACK
6
CONTINUOUS
10
9.16959
20
-6.71358
11
9.91565
21
-6.71358
0
LINE
8
BLACK
6
CONTINUOUS
10
9.91565
20
-6.71358
11
9.91565
21
-5.96752
0
LINE
8
BLACK
6
CONTINUOUS
10
9.91565
20
-5.96752
11
9.54262
21
-5.96752
0
LINE
8
BLACK
6
CONTINUOUS
10
8.79262
20
-5.96752
11
8.41959
21
-5.96752
0
LINE
8
BLACK
6
CONTINUOUS
10
8.41959
20
-5.96752
11
8.41959
21
-6.71358
0
LINE
8
BLACK
6
CONTINUOUS
10
8.41959
20
-6.71358
11
8.79262
21
-6.71358
0
LINE
8
BLACK
6
CONTINUOUS
10
8.79262
20
-6.71358
11
9.16565
21
-6.71358
0
LINE
8
BLACK
6
CONTINUOUS
10
9.16565
20
-6.71358
11
9.16565
21
-5.96752
0
LINE
8
BLACK
6
CONTINUOUS
10
9.16565
20
-5.96752
11
8.79262
21
-5.96752
0
LINE
8
BLACK
6
CONTINUOUS
10
8.04262
20
-5.96752
11
7.66959
21
-5.96752
0
LINE
8
BLACK
6
CONTINUOUS
10
7.66959
20
-5.96752
11
7.66959
21
-6.71358
0
LINE
8
BLACK
6
CONTINUOUS
10
7.66959
20
-6.71358
11
7.85512
21
-6.71358
0
LINE
8
BLACK
6
CONTINUOUS
10
7.85512
20
-6.71358
11
8.41565
21
-6.71358
0
LINE
8
BLACK
6
CONTINUOUS
10
8.41565
20
-6.71358
11
8.41565
21
-5.96752
0
LINE
8
BLACK
6
CONTINUOUS
10
8.41565
20
-5.96752
11
8.04262
21
-5.96752
0
LINE
8
BLACK
6
CONTINUOUS
10
6.54262
20
-5.96752
11
6.16959
21
-5.96752
0
LINE
8
BLACK
6
CONTINUOUS
10
6.16959
20
-5.96752
11
6.16959
21
-6.71358
0
LINE
8
BLACK
6
CONTINUOUS
10
6.16959
20
-6.71358
11
6.91565
21
-6.71358
0
LINE
8
BLACK
6
CONTINUOUS
10
6.91565
20
-6.71358
11
6.91565
21
-5.96752
0
LINE
8
BLACK
6
CONTINUOUS
10
6.91565
20
-5.96752
11
6.54262
21
-5.96752
0
LINE
8
BLACK
6
CONTINUOUS
10
7.29262
20
-5.96752
11
6.91959
21
-5.96752
0
LINE
8
BLACK
6
CONTINUOUS
10
6.91959
20
-5.96752
11
6.91959
21
-6.71358
0
LINE
8
BLACK
6
CONTINUOUS
10
6.91959
20
-6.71358
11
7.66565
21
-6.71358
0
LINE
8
BLACK
6
CONTINUOUS
10
7.66565
20
-6.71358
11
7.66565
21
-5.96752
0
LINE
8
BLACK
6
CONTINUOUS
10
7.66565
20
-5.96752
11
7.29262
21
-5.96752
0
LINE
8
BLACK
6
CONTINUOUS
10
5.79262
20
-5.96752
11
5.41959
21
-5.96752
0
LINE
8
BLACK
6
CONTINUOUS
10
5.41959
20
-5.96752
11
5.41959
21
-6.71358
0
LINE
8
BLACK
6
CONTINUOUS
10
5.41959
20
-6.71358
11
5.79262
21
-6.71358
0
LINE
8
BLACK
6
CONTINUOUS
10
5.79262
20
-6.71358
11
6.16565
21
-6.71358
0
LINE
8
BLACK
6
CONTINUOUS
10
6.16565
20
-6.71358
11
6.16565
21
-5.96752
0
LINE
8
BLACK
6
CONTINUOUS
10
6.16565
20
-5.96752
11
5.79262
21
-5.96752
0
LINE
8
BLACK
6
CONTINUOUS
10
5.04262
20
-5.96752
11
4.66959
21
-5.96752
0
LINE
8
BLACK
6
CONTINUOUS
10
4.66959
20
-5.96752
11
4.66959
21
-6.71358
0
LINE
8
BLACK
6
CONTINUOUS
10
4.66959
20
-6.71358
11
4.85512
21
-6.71358
0
LINE
8
BLACK
6
CONTINUOUS
10
4.85512
20
-6.71358
11
5.41565
21
-6.71358
0
LINE
8
BLACK
6
CONTINUOUS
10
5.41565
20
-6.71358
11
5.41565
21
-5.96752
0
LINE
8
BLACK
6
CONTINUOUS
10
5.41565
20
-5.96752
11
5.04262
21
-5.96752
0
LINE
8
BLACK
6
CONTINUOUS
10
4.29262
20
-5.96752
11
3.91959
21
-5.96752
0
LINE
8
BLACK
6
CONTINUOUS
10
3.91959
20
-5.96752
11
3.91959
21
-6.71358
0
LINE
8
BLACK
6
CONTINUOUS
10
3.91959
20
-6.71358
11
4.10512
21
-6.71358
0
LINE
8
BLACK
6
CONTINUOUS
10
4.10512
20
-6.71358
11
4.66565
21
-6.71358
0
LINE
8
BLACK
6
CONTINUOUS
10
4.66565
20
-6.71358
11
4.66565
21
-5.96752
0
LINE
8
BLACK
6
CONTINUOUS
10
4.66565
20
-5.96752
11
4.29262
21
-5.96752
0
LINE
8
BLACK
6
CONTINUOUS
10
3.54262
20
-5.96752
11
3.54262
21
-5.96752
0
LINE
8
BLACK
6
CONTINUOUS
10
3.54262
20
-5.96752
11
2.23209
21
-5.96752
0
LINE
8
BLACK
6
CONTINUOUS
10
2.23209
20
-5.96752
11
2.23209
21
-6.71358
0
LINE
8
BLACK
6
CONTINUOUS
10
2.23209
20
-6.71358
11
3.35512
21
-6.71358
0
LINE
8
BLACK
6
CONTINUOUS
10
3.35512
20
-6.71358
11
3.91565
21
-6.71358
0
LINE
8
BLACK
6
CONTINUOUS
10
3.91565
20
-6.71358
11
3.91565
21
-5.96752
0
LINE
8
BLACK
6
CONTINUOUS
10
3.91565
20
-5.96752
11
3.54262
21
-5.96752
0
LINE
8
BLACK
6
CONTINUOUS
10
12.3571
20
-4.46752
11
12.3571
21
-5.21358
0
LINE
8
BLACK
6
CONTINUOUS
10
12.3571
20
-5.21358
11
12.5426
21
-5.21358
0
LINE
8
BLACK
6
CONTINUOUS
10
12.5426
20
-5.21358
11
12.5426
21
-5.21358
0
LINE
8
BLACK
6
CONTINUOUS
10
12.5426
20
-5.21358
11
12.544
21
-5.21416
0
LINE
8
BLACK
6
CONTINUOUS
10
12.544
20
-5.21416
11
12.5446
21
-5.21555
0
LINE
8
BLACK
6
CONTINUOUS
10
12.5446
20
-5.21555
11
12.5446
21
-5.96358
0
LINE
8
BLACK
6
CONTINUOUS
10
12.5446
20
-5.96358
11
12.7301
21
-5.96358
0
LINE
8
BLACK
6
CONTINUOUS
10
12.7301
20
-5.96358
11
13.4782
21
-5.96358
0
LINE
8
BLACK
6
CONTINUOUS
10
13.4782
20
-5.96358
11
13.4782
21
-4.46752
0
LINE
8
BLACK
6
CONTINUOUS
10
13.4782
20
-4.46752
11
12.3571
21
-4.46752
0
LINE
8
BLACK
6
CONTINUOUS
10
12.3551
20
-5.21752
11
12.3551
21
-5.21752
0
LINE
8
BLACK
6
CONTINUOUS
10
12.3551
20
-5.21752
11
11.7946
21
-5.21752
0
LINE
8
BLACK
6
CONTINUOUS
10
11.7946
20
-5.21752
11
11.7946
21
-5.96358
0
LINE
8
BLACK
6
CONTINUOUS
10
11.7946
20
-5.96358
11
12.5406
21
-5.96358
0
LINE
8
BLACK
6
CONTINUOUS
10
12.5406
20
-5.96358
11
12.5406
21
-5.21752
0
LINE
8
BLACK
6
CONTINUOUS
10
12.5406
20
-5.21752
11
12.3551
21
-5.21752
0
LINE
8
BLACK
6
CONTINUOUS
10
11.6051
20
-5.21752
11
11.0446
21
-5.21752
0
LINE
8
BLACK
6
CONTINUOUS
10
11.0446
20
-5.21752
11
11.0446
21
-5.96358
0
LINE
8
BLACK
6
CONTINUOUS
10
11.0446
20
-5.96358
11
11.4176
21
-5.96358
0
LINE
8
BLACK
6
CONTINUOUS
10
11.4176
20
-5.96358
11
11.7906
21
-5.96358
0
LINE
8
BLACK
6
CONTINUOUS
10
11.7906
20
-5.96358
11
11.7906
21
-5.21752
0
LINE
8
BLACK
6
CONTINUOUS
10
11.7906
20
-5.21752
11
11.6051
21
-5.21752
0
LINE
8
BLACK
6
CONTINUOUS
10
10.8551
20
-5.21752
11
10.2946
21
-5.21752
0
LINE
8
BLACK
6
CONTINUOUS
10
10.2946
20
-5.21752
11
10.2946
21
-5.96358
0
LINE
8
BLACK
6
CONTINUOUS
10
10.2946
20
-5.96358
11
10.6676
21
-5.96358
0
LINE
8
BLACK
6
CONTINUOUS
10
10.6676
20
-5.96358
11
11.0406
21
-5.96358
0
LINE
8
BLACK
6
CONTINUOUS
10
11.0406
20
-5.96358
11
11.0406
21
-5.21752
0
LINE
8
BLACK
6
CONTINUOUS
10
11.0406
20
-5.21752
11
10.8551
21
-5.21752
0
LINE
8
BLACK
6
CONTINUOUS
10
10.1051
20
-5.21752
11
9.54459
21
-5.21752
0
LINE
8
BLACK
6
CONTINUOUS
10
9.54459
20
-5.21752
11
9.54459
21
-5.96358
0
LINE
8
BLACK
6
CONTINUOUS
10
9.54459
20
-5.96358
11
9.91762
21
-5.96358
0
LINE
8
BLACK
6
CONTINUOUS
10
9.91762
20
-5.96358
11
10.2906
21
-5.96358
0
LINE
8
BLACK
6
CONTINUOUS
10
10.2906
20
-5.96358
11
10.2906
21
-5.21752
0
LINE
8
BLACK
6
CONTINUOUS
10
10.2906
20
-5.21752
11
10.1051
21
-5.21752
0
LINE
8
BLACK
6
CONTINUOUS
10
9.35512
20
-5.21752
11
8.79459
21
-5.21752
0
LINE
8
BLACK
6
CONTINUOUS
10
8.79459
20
-5.21752
11
8.79459
21
-5.96358
0
LINE
8
BLACK
6
CONTINUOUS
10
8.79459
20
-5.96358
11
9.16762
21
-5.96358
0
LINE
8
BLACK
6
CONTINUOUS
10
9.16762
20
-5.96358
11
9.54065
21
-5.96358
0
LINE
8
BLACK
6
CONTINUOUS
10
9.54065
20
-5.96358
11
9.54065
21
-5.21752
0
LINE
8
BLACK
6
CONTINUOUS
10
9.54065
20
-5.21752
11
9.35512
21
-5.21752
0
LINE
8
BLACK
6
CONTINUOUS
10
8.60512
20
-5.21752
11
8.04459
21
-5.21752
0
LINE
8
BLACK
6
CONTINUOUS
10
8.04459
20
-5.21752
11
8.04459
21
-5.96358
0
LINE
8
BLACK
6
CONTINUOUS
10
8.04459
20
-5.96358
11
8.41762
21
-5.96358
0
LINE
8
BLACK
6
CONTINUOUS
10
8.41762
20
-5.96358
11
8.79065
21
-5.96358
0
LINE
8
BLACK
6
CONTINUOUS
10
8.79065
20
-5.96358
11
8.79065
21
-5.21752
0
LINE
8
BLACK
6
CONTINUOUS
10
8.79065
20
-5.21752
11
8.60512
21
-5.21752
0
LINE
8
BLACK
6
CONTINUOUS
10
7.85512
20
-5.21752
11
7.29459
21
-5.21752
0
LINE
8
BLACK
6
CONTINUOUS
10
7.29459
20
-5.21752
11
7.29459
21
-5.96358
0
LINE
8
BLACK
6
CONTINUOUS
10
7.29459
20
-5.96358
11
7.66762
21
-5.96358
0
LINE
8
BLACK
6
CONTINUOUS
10
7.66762
20
-5.96358
11
8.04065
21
-5.96358
0
LINE
8
BLACK
6
CONTINUOUS
10
8.04065
20
-5.96358
11
8.04065
21
-5.21752
0
LINE
8
BLACK
6
CONTINUOUS
10
8.04065
20
-5.21752
11
7.85512
21
-5.21752
0
LINE
8
BLACK
6
CONTINUOUS
10
7.10512
20
-5.21752
11
6.54459
21
-5.21752
0
LINE
8
BLACK
6
CONTINUOUS
10
6.54459
20
-5.21752
11
6.54459
21
-5.96358
0
LINE
8
BLACK
6
CONTINUOUS
10
6.54459
20
-5.96358
11
6.91762
21
-5.96358
0
LINE
8
BLACK
6
CONTINUOUS
10
6.91762
20
-5.96358
11
7.29065
21
-5.96358
0
LINE
8
BLACK
6
CONTINUOUS
10
7.29065
20
-5.96358
11
7.29065
21
-5.21752
0
LINE
8
BLACK
6
CONTINUOUS
10
7.29065
20
-5.21752
11
7.10512
21
-5.21752
0
LINE
8
BLACK
6
CONTINUOUS
10
6.35512
20
-5.21752
11
5.79459
21
-5.21752
0
LINE
8
BLACK
6
CONTINUOUS
10
5.79459
20
-5.21752
11
5.79459
21
-5.96358
0
LINE
8
BLACK
6
CONTINUOUS
10
5.79459
20
-5.96358
11
6.16762
21
-5.96358
0
LINE
8
BLACK
6
CONTINUOUS
10
6.16762
20
-5.96358
11
6.54065
21
-5.96358
0
LINE
8
BLACK
6
CONTINUOUS
10
6.54065
20
-5.96358
11
6.54065
21
-5.21752
0
LINE
8
BLACK
6
CONTINUOUS
10
6.54065
20
-5.21752
11
6.35512
21
-5.21752
0
LINE
8
BLACK
6
CONTINUOUS
10
5.60512
20
-5.21752
11
5.04459
21
-5.21752
0
LINE
8
BLACK
6
CONTINUOUS
10
5.04459
20
-5.21752
11
5.04459
21
-5.96358
0
LINE
8
BLACK
6
CONTINUOUS
10
5.04459
20
-5.96358
11
5.41762
21
-5.96358
0
LINE
8
BLACK
6
CONTINUOUS
10
5.41762
20
-5.96358
11
5.79065
21
-5.96358
0
LINE
8
BLACK
6
CONTINUOUS
10
5.79065
20
-5.96358
11
5.79065
21
-5.21752
0
LINE
8
BLACK
6
CONTINUOUS
10
5.79065
20
-5.21752
11
5.60512
21
-5.21752
0
LINE
8
BLACK
6
CONTINUOUS
10
4.85512
20
-5.21752
11
4.29459
21
-5.21752
0
LINE
8
BLACK
6
CONTINUOUS
10
4.29459
20
-5.21752
11
4.29459
21
-5.96358
0
LINE
8
BLACK
6
CONTINUOUS
10
4.29459
20
-5.96358
11
4.66762
21
-5.96358
0
LINE
8
BLACK
6
CONTINUOUS
10
4.66762
20
-5.96358
11
5.04065
21
-5.96358
0
LINE
8
BLACK
6
CONTINUOUS
10
5.04065
20
-5.96358
11
5.04065
21
-5.21752
0
LINE
8
BLACK
6
CONTINUOUS
10
5.04065
20
-5.21752
11
4.85512
21
-5.21752
0
LINE
8
BLACK
6
CONTINUOUS
10
4.10512
20
-5.21752
11
3.54459
21
-5.21752
0
LINE
8
BLACK
6
CONTINUOUS
10
3.54459
20
-5.21752
11
3.54459
21
-5.96358
0
LINE
8
BLACK
6
CONTINUOUS
10
3.54459
20
-5.96358
11
3.91762
21
-5.96358
0
LINE
8
BLACK
6
CONTINUOUS
10
3.91762
20
-5.96358
11
4.29065
21
-5.96358
0
LINE
8
BLACK
6
CONTINUOUS
10
4.29065
20
-5.96358
11
4.29065
21
-5.21752
0
LINE
8
BLACK
6
CONTINUOUS
10
4.29065
20
-5.21752
11
4.10512
21
-5.21752
0
LINE
8
BLACK
6
CONTINUOUS
10
3.35512
20
-5.21752
11
2.23209
21
-5.21752
0
LINE
8
BLACK
6
CONTINUOUS
10
2.23209
20
-5.21752
11
2.23209
21
-5.96358
0
LINE
8
BLACK
6
CONTINUOUS
10
2.23209
20
-5.96358
11
3.54065
21
-5.96358
0
LINE
8
BLACK
6
CONTINUOUS
10
3.54065
20
-5.96358
11
3.54065
21
-5.21752
0
LINE
8
BLACK
6
CONTINUOUS
10
3.54065
20
-5.21752
11
3.35512
21
-5.21752
0
LINE
8
BLACK
6
CONTINUOUS
10
11.9801
20
-4.46752
11
11.6071
21
-4.46752
0
LINE
8
BLACK
6
CONTINUOUS
10
11.6071
20
-4.46752
11
11.6071
21
-5.21358
0
LINE
8
BLACK
6
CONTINUOUS
10
11.6071
20
-5.21358
11
11.7926
21
-5.21358
0
LINE
8
BLACK
6
CONTINUOUS
10
11.7926
20
-5.21358
11
12.3531
21
-5.21358
0
LINE
8
BLACK
6
CONTINUOUS
10
12.3531
20
-5.21358
11
12.3531
21
-4.46752
0
LINE
8
BLACK
6
CONTINUOUS
10
12.3531
20
-4.46752
11
11.9801
21
-4.46752
0
LINE
8
BLACK
6
CONTINUOUS
10
11.2301
20
-4.46752
11
10.8571
21
-4.46752
0
LINE
8
BLACK
6
CONTINUOUS
10
10.8571
20
-4.46752
11
10.8571
21
-5.21358
0
LINE
8
BLACK
6
CONTINUOUS
10
10.8571
20
-5.21358
11
11.0426
21
-5.21358
0
LINE
8
BLACK
6
CONTINUOUS
10
11.0426
20
-5.21358
11
11.6031
21
-5.21358
0
LINE
8
BLACK
6
CONTINUOUS
10
11.6031
20
-5.21358
11
11.6031
21
-4.46752
0
LINE
8
BLACK
6
CONTINUOUS
10
11.6031
20
-4.46752
11
11.2301
21
-4.46752
0
LINE
8
BLACK
6
CONTINUOUS
10
10.4801
20
-4.46752
11
10.1071
21
-4.46752
0
LINE
8
BLACK
6
CONTINUOUS
10
10.1071
20
-4.46752
11
10.1071
21
-5.21358
0
LINE
8
BLACK
6
CONTINUOUS
10
10.1071
20
-5.21358
11
10.2926
21
-5.21358
0
LINE
8
BLACK
6
CONTINUOUS
10
10.2926
20
-5.21358
11
10.8531
21
-5.21358
0
LINE
8
BLACK
6
CONTINUOUS
10
10.8531
20
-5.21358
11
10.8531
21
-4.46752
0
LINE
8
BLACK
6
CONTINUOUS
10
10.8531
20
-4.46752
11
10.4801
21
-4.46752
0
LINE
8
BLACK
6
CONTINUOUS
10
9.73012
20
-4.46752
11
9.35709
21
-4.46752
0
LINE
8
BLACK
6
CONTINUOUS
10
9.35709
20
-4.46752
11
9.35709
21
-5.21358
0
LINE
8
BLACK
6
CONTINUOUS
10
9.35709
20
-5.21358
11
9.54262
21
-5.21358
0
LINE
8
BLACK
6
CONTINUOUS
10
9.54262
20
-5.21358
11
10.1031
21
-5.21358
0
LINE
8
BLACK
6
CONTINUOUS
10
10.1031
20
-5.21358
11
10.1031
21
-4.46752
0
LINE
8
BLACK
6
CONTINUOUS
10
10.1031
20
-4.46752
11
9.73012
21
-4.46752
0
LINE
8
BLACK
6
CONTINUOUS
10
8.98012
20
-4.46752
11
8.60709
21
-4.46752
0
LINE
8
BLACK
6
CONTINUOUS
10
8.60709
20
-4.46752
11
8.60709
21
-5.21358
0
LINE
8
BLACK
6
CONTINUOUS
10
8.60709
20
-5.21358
11
8.79262
21
-5.21358
0
LINE
8
BLACK
6
CONTINUOUS
10
8.79262
20
-5.21358
11
9.35315
21
-5.21358
0
LINE
8
BLACK
6
CONTINUOUS
10
9.35315
20
-5.21358
11
9.35315
21
-4.46752
0
LINE
8
BLACK
6
CONTINUOUS
10
9.35315
20
-4.46752
11
8.98012
21
-4.46752
0
LINE
8
BLACK
6
CONTINUOUS
10
8.23012
20
-4.46752
11
7.85709
21
-4.46752
0
LINE
8
BLACK
6
CONTINUOUS
10
7.85709
20
-4.46752
11
7.85709
21
-5.21358
0
LINE
8
BLACK
6
CONTINUOUS
10
7.85709
20
-5.21358
11
8.04262
21
-5.21358
0
LINE
8
BLACK
6
CONTINUOUS
10
8.04262
20
-5.21358
11
8.60315
21
-5.21358
0
LINE
8
BLACK
6
CONTINUOUS
10
8.60315
20
-5.21358
11
8.60315
21
-4.46752
0
LINE
8
BLACK
6
CONTINUOUS
10
8.60315
20
-4.46752
11
8.23012
21
-4.46752
0
LINE
8
BLACK
6
CONTINUOUS
10
7.48012
20
-4.46752
11
7.10709
21
-4.46752
0
LINE
8
BLACK
6
CONTINUOUS
10
7.10709
20
-4.46752
11
7.10709
21
-5.21358
0
LINE
8
BLACK
6
CONTINUOUS
10
7.10709
20
-5.21358
11
7.29262
21
-5.21358
0
LINE
8
BLACK
6
CONTINUOUS
10
7.29262
20
-5.21358
11
7.85315
21
-5.21358
0
LINE
8
BLACK
6
CONTINUOUS
10
7.85315
20
-5.21358
11
7.85315
21
-4.46752
0
LINE
8
BLACK
6
CONTINUOUS
10
7.85315
20
-4.46752
11
7.48012
21
-4.46752
0
LINE
8
BLACK
6
CONTINUOUS
10
6.73012
20
-4.46752
11
6.35709
21
-4.46752
0
LINE
8
BLACK
6
CONTINUOUS
10
6.35709
20
-4.46752
11
6.35709
21
-5.21358
0
LINE
8
BLACK
6
CONTINUOUS
10
6.35709
20
-5.21358
11
6.54262
21
-5.21358
0
LINE
8
BLACK
6
CONTINUOUS
10
6.54262
20
-5.21358
11
7.10315
21
-5.21358
0
LINE
8
BLACK
6
CONTINUOUS
10
7.10315
20
-5.21358
11
7.10315
21
-4.46752
0
LINE
8
BLACK
6
CONTINUOUS
10
7.10315
20
-4.46752
11
6.73012
21
-4.46752
0
LINE
8
BLACK
6
CONTINUOUS
10
5.98012
20
-4.46752
11
5.60709
21
-4.46752
0
LINE
8
BLACK
6
CONTINUOUS
10
5.60709
20
-4.46752
11
5.60709
21
-5.21358
0
LINE
8
BLACK
6
CONTINUOUS
10
5.60709
20
-5.21358
11
5.79262
21
-5.21358
0
LINE
8
BLACK
6
CONTINUOUS
10
5.79262
20
-5.21358
11
6.35315
21
-5.21358
0
LINE
8
BLACK
6
CONTINUOUS
10
6.35315
20
-5.21358
11
6.35315
21
-4.46752
0
LINE
8
BLACK
6
CONTINUOUS
10
6.35315
20
-4.46752
11
5.98012
21
-4.46752
0
LINE
8
BLACK
6
CONTINUOUS
10
5.23012
20
-4.46752
11
4.85709
21
-4.46752
0
LINE
8
BLACK
6
CONTINUOUS
10
4.85709
20
-4.46752
11
4.85709
21
-5.21358
0
LINE
8
BLACK
6
CONTINUOUS
10
4.85709
20
-5.21358
11
5.04262
21
-5.21358
0
LINE
8
BLACK
6
CONTINUOUS
10
5.04262
20
-5.21358
11
5.60315
21
-5.21358
0
LINE
8
BLACK
6
CONTINUOUS
10
5.60315
20
-5.21358
11
5.60315
21
-4.46752
0
LINE
8
BLACK
6
CONTINUOUS
10
5.60315
20
-4.46752
11
5.23012
21
-4.46752
0
LINE
8
BLACK
6
CONTINUOUS
10
4.48012
20
-4.46752
11
4.10709
21
-4.46752
0
LINE
8
BLACK
6
CONTINUOUS
10
4.10709
20
-4.46752
11
4.10709
21
-5.21358
0
LINE
8
BLACK
6
CONTINUOUS
10
4.10709
20
-5.21358
11
4.29262
21
-5.21358
0
LINE
8
BLACK
6
CONTINUOUS
10
4.29262
20
-5.21358
11
4.85315
21
-5.21358
0
LINE
8
BLACK
6
CONTINUOUS
10
4.85315
20
-5.21358
11
4.85315
21
-4.46752
0
LINE
8
BLACK
6
CONTINUOUS
10
4.85315
20
-4.46752
11
4.48012
21
-4.46752
0
LINE
8
BLACK
6
CONTINUOUS
10
3.73012
20
-4.46752
11
3.35709
21
-4.46752
0
LINE
8
BLACK
6
CONTINUOUS
10
3.35709
20
-4.46752
11
3.35709
21
-5.21358
0
LINE
8
BLACK
6
CONTINUOUS
10
3.35709
20
-5.21358
11
3.54262
21
-5.21358
0
LINE
8
BLACK
6
CONTINUOUS
10
3.54262
20
-5.21358
11
4.10315
21
-5.21358
0
LINE
8
BLACK
6
CONTINUOUS
10
4.10315
20
-5.21358
11
4.10315
21
-4.46752
0
LINE
8
BLACK
6
CONTINUOUS
10
4.10315
20
-4.46752
11
3.73012
21
-4.46752
0
LINE
8
BLACK
6
CONTINUOUS
10
2.98012
20
-4.46752
11
2.23209
21
-4.46752
0
LINE
8
BLACK
6
CONTINUOUS
10
2.23209
20
-4.46752
11
2.23209
21
-5.21358
0
LINE
8
BLACK
6
CONTINUOUS
10
2.23209
20
-5.21358
11
3.35315
21
-5.21358
0
LINE
8
BLACK
6
CONTINUOUS
10
3.35315
20
-5.21358
11
3.35315
21
-4.46752
0
LINE
8
BLACK
6
CONTINUOUS
10
3.35315
20
-4.46752
11
2.98012
21
-4.46752
0
LINE
8
BLACK
6
CONTINUOUS
10
11.9821
20
-3.71752
11
11.9821
21
-4.46358
0
LINE
8
BLACK
6
CONTINUOUS
10
11.9821
20
-4.46358
11
12.3551
21
-4.46358
0
LINE
8
BLACK
6
CONTINUOUS
10
12.3551
20
-4.46358
11
13.4781
21
-4.46358
0
LINE
8
BLACK
6
CONTINUOUS
10
13.4781
20
-4.46358
11
13.4781
21
-3.71752
0
LINE
8
BLACK
6
CONTINUOUS
10
13.4781
20
-3.71752
11
11.9821
21
-3.71752
0
LINE
8
BLACK
6
CONTINUOUS
10
11.2321
20
-3.71752
11
11.2321
21
-4.46358
0
LINE
8
BLACK
6
CONTINUOUS
10
11.2321
20
-4.46358
11
11.6051
21
-4.46358
0
LINE
8
BLACK
6
CONTINUOUS
10
11.6051
20
-4.46358
11
11.9781
21
-4.46358
0
LINE
8
BLACK
6
CONTINUOUS
10
11.9781
20
-4.46358
11
11.9781
21
-3.71752
0
LINE
8
BLACK
6
CONTINUOUS
10
11.9781
20
-3.71752
11
11.2321
21
-3.71752
0
LINE
8
BLACK
6
CONTINUOUS
10
10.4821
20
-3.71752
11
10.4821
21
-4.46358
0
LINE
8
BLACK
6
CONTINUOUS
10
10.4821
20
-4.46358
11
10.8551
21
-4.46358
0
LINE
8
BLACK
6
CONTINUOUS
10
10.8551
20
-4.46358
11
11.2281
21
-4.46358
0
LINE
8
BLACK
6
CONTINUOUS
10
11.2281
20
-4.46358
11
11.2281
21
-3.71752
0
LINE
8
BLACK
6
CONTINUOUS
10
11.2281
20
-3.71752
11
10.4821
21
-3.71752
0
LINE
8
BLACK
6
CONTINUOUS
10
9.73209
20
-3.71752
11
9.73209
21
-4.46358
0
LINE
8
BLACK
6
CONTINUOUS
10
9.73209
20
-4.46358
11
10.1051
21
-4.46358
0
LINE
8
BLACK
6
CONTINUOUS
10
10.1051
20
-4.46358
11
10.4781
21
-4.46358
0
LINE
8
BLACK
6
CONTINUOUS
10
10.4781
20
-4.46358
11
10.4781
21
-3.71752
0
LINE
8
BLACK
6
CONTINUOUS
10
10.4781
20
-3.71752
11
9.73209
21
-3.71752
0
LINE
8
BLACK
6
CONTINUOUS
10
8.98209
20
-3.71752
11
8.98209
21
-4.46358
0
LINE
8
BLACK
6
CONTINUOUS
10
8.98209
20
-4.46358
11
9.35512
21
-4.46358
0
LINE
8
BLACK
6
CONTINUOUS
10
9.35512
20
-4.46358
11
9.72815
21
-4.46358
0
LINE
8
BLACK
6
CONTINUOUS
10
9.72815
20
-4.46358
11
9.72815
21
-3.71752
0
LINE
8
BLACK
6
CONTINUOUS
10
9.72815
20
-3.71752
11
8.98209
21
-3.71752
0
LINE
8
BLACK
6
CONTINUOUS
10
8.23209
20
-3.71752
11
8.23209
21
-4.46358
0
LINE
8
BLACK
6
CONTINUOUS
10
8.23209
20
-4.46358
11
8.60512
21
-4.46358
0
LINE
8
BLACK
6
CONTINUOUS
10
8.60512
20
-4.46358
11
8.97815
21
-4.46358
0
LINE
8
BLACK
6
CONTINUOUS
10
8.97815
20
-4.46358
11
8.97815
21
-3.71752
0
LINE
8
BLACK
6
CONTINUOUS
10
8.97815
20
-3.71752
11
8.23209
21
-3.71752
0
LINE
8
BLACK
6
CONTINUOUS
10
7.48209
20
-3.71752
11
7.48209
21
-4.46358
0
LINE
8
BLACK
6
CONTINUOUS
10
7.48209
20
-4.46358
11
7.85512
21
-4.46358
0
LINE
8
BLACK
6
CONTINUOUS
10
7.85512
20
-4.46358
11
8.22815
21
-4.46358
0
LINE
8
BLACK
6
CONTINUOUS
10
8.22815
20
-4.46358
11
8.22815
21
-3.71752
0
LINE
8
BLACK
6
CONTINUOUS
10
8.22815
20
-3.71752
11
7.48209
21
-3.71752
0
LINE
8
BLACK
6
CONTINUOUS
10
6.73209
20
-3.71752
11
6.73209
21
-4.46358
0
LINE
8
BLACK
6
CONTINUOUS
10
6.73209
20
-4.46358
11
7.10512
21
-4.46358
0
LINE
8
BLACK
6
CONTINUOUS
10
7.10512
20
-4.46358
11
7.47815
21
-4.46358
0
LINE
8
BLACK
6
CONTINUOUS
10
7.47815
20
-4.46358
11
7.47815
21
-3.71752
0
LINE
8
BLACK
6
CONTINUOUS
10
7.47815
20
-3.71752
11
6.73209
21
-3.71752
0
LINE
8
BLACK
6
CONTINUOUS
10
5.98209
20
-3.71752
11
5.98209
21
-4.46358
0
LINE
8
BLACK
6
CONTINUOUS
10
5.98209
20
-4.46358
11
6.35512
21
-4.46358
0
LINE
8
BLACK
6
CONTINUOUS
10
6.35512
20
-4.46358
11
6.72815
21
-4.46358
0
LINE
8
BLACK
6
CONTINUOUS
10
6.72815
20
-4.46358
11
6.72815
21
-3.71752
0
LINE
8
BLACK
6
CONTINUOUS
10
6.72815
20
-3.71752
11
5.98209
21
-3.71752
0
LINE
8
BLACK
6
CONTINUOUS
10
5.23209
20
-3.71752
11
5.23209
21
-4.46358
0
LINE
8
BLACK
6
CONTINUOUS
10
5.23209
20
-4.46358
11
5.60512
21
-4.46358
0
LINE
8
BLACK
6
CONTINUOUS
10
5.60512
20
-4.46358
11
5.97815
21
-4.46358
0
LINE
8
BLACK
6
CONTINUOUS
10
5.97815
20
-4.46358
11
5.97815
21
-3.71752
0
LINE
8
BLACK
6
CONTINUOUS
10
5.97815
20
-3.71752
11
5.23209
21
-3.71752
0
LINE
8
BLACK
6
CONTINUOUS
10
4.48209
20
-3.71752
11
4.48209
21
-4.46358
0
LINE
8
BLACK
6
CONTINUOUS
10
4.48209
20
-4.46358
11
4.85512
21
-4.46358
0
LINE
8
BLACK
6
CONTINUOUS
10
4.85512
20
-4.46358
11
5.22815
21
-4.46358
0
LINE
8
BLACK
6
CONTINUOUS
10
5.22815
20
-4.46358
11
5.22815
21
-3.71752
0
LINE
8
BLACK
6
CONTINUOUS
10
5.22815
20
-3.71752
11
4.48209
21
-3.71752
0
LINE
8
BLACK
6
CONTINUOUS
10
3.73209
20
-3.71752
11
3.73209
21
-4.46358
0
LINE
8
BLACK
6
CONTINUOUS
10
3.73209
20
-4.46358
11
4.10512
21
-4.46358
0
LINE
8
BLACK
6
CONTINUOUS
10
4.10512
20
-4.46358
11
4.47815
21
-4.46358
0
LINE
8
BLACK
6
CONTINUOUS
10
4.47815
20
-4.46358
11
4.47815
21
-3.71752
0
LINE
8
BLACK
6
CONTINUOUS
10
4.47815
20
-3.71752
11
3.73209
21
-3.71752
0
LINE
8
BLACK
6
CONTINUOUS
10
2.98209
20
-3.71752
11
2.98209
21
-4.46358
0
LINE
8
BLACK
6
CONTINUOUS
10
2.98209
20
-4.46358
11
3.35512
21
-4.46358
0
LINE
8
BLACK
6
CONTINUOUS
10
3.35512
20
-4.46358
11
3.72815
21
-4.46358
0
LINE
8
BLACK
6
CONTINUOUS
10
3.72815
20
-4.46358
11
3.72815
21
-3.71752
0
LINE
8
BLACK
6
CONTINUOUS
10
3.72815
20
-3.71752
11
2.98209
21
-3.71752
0
LINE
8
BLACK
6
CONTINUOUS
10
2.23209
20
-3.71752
11
2.23209
21
-4.46358
0
LINE
8
BLACK
6
CONTINUOUS
10
2.23209
20
-4.46358
11
2.97815
21
-4.46358
0
LINE
8
BLACK
6
CONTINUOUS
10
2.97815
20
-4.46358
11
2.97815
21
-3.71752
0
LINE
8
BLACK
6
CONTINUOUS
10
2.97815
20
-3.71752
11
2.23209
21
-3.71752
0
LINE
8
BLACK
6
CONTINUOUS
10
14.3158
20
-5.35079
11
14.3172
21
-5.35136
0
LINE
8
BLACK
6
CONTINUOUS
10
14.3172
20
-5.35136
11
14.3178
21
-5.35276
0
LINE
8
BLACK
6
CONTINUOUS
10
14.3178
20
-5.35276
11
14.3178
21
-6.10079
0
LINE
8
BLACK
6
CONTINUOUS
10
14.3178
20
-6.10079
11
14.3172
21
-6.10218
0
LINE
8
BLACK
6
CONTINUOUS
10
14.3172
20
-6.10218
11
14.3158
21
-6.10276
0
LINE
8
BLACK
6
CONTINUOUS
10
14.3158
20
-6.10276
11
14.119
21
-6.10276
0
LINE
8
BLACK
6
CONTINUOUS
10
14.119
20
-6.10276
11
14.1176
21
-6.10218
0
LINE
8
BLACK
6
CONTINUOUS
10
14.1176
20
-6.10218
11
14.117
21
-6.10079
0
LINE
8
BLACK
6
CONTINUOUS
10
14.117
20
-6.10079
11
14.117
21
-5.35276
0
LINE
8
BLACK
6
CONTINUOUS
10
14.117
20
-5.35276
11
14.1176
21
-5.35136
0
LINE
8
BLACK
6
CONTINUOUS
10
14.1176
20
-5.35136
11
14.119
21
-5.35079
0
LINE
8
BLACK
6
CONTINUOUS
10
14.119
20
-5.35079
11
14.3158
21
-5.35079
0
LINE
8
BLACK
6
CONTINUOUS
10
14.121
20
-5.35472
11
14.121
21
-6.09882
0
LINE
8
BLACK
6
CONTINUOUS
10
14.121
20
-6.09882
11
14.3139
21
-6.09882
0
LINE
8
BLACK
6
CONTINUOUS
10
14.3139
20
-6.09882
11
14.3139
21
-5.35472
0
LINE
8
BLACK
6
CONTINUOUS
10
14.3139
20
-5.35472
11
14.121
21
-5.35472
0
LINE
8
BLACK
6
CONTINUOUS
10
14.2293
20
-4.91673
11
14.231
21
-4.91742
0
LINE
8
BLACK
6
CONTINUOUS
10
14.231
20
-4.91742
11
14.2317
21
-4.91909
0
LINE
8
BLACK
6
CONTINUOUS
10
14.2317
20
-4.91909
11
14.2317
21
-5.27539
0
LINE
8
BLACK
6
CONTINUOUS
10
14.2317
20
-5.27539
11
14.231
21
-5.27706
0
LINE
8
BLACK
6
CONTINUOUS
10
14.231
20
-5.27706
11
14.2293
21
-5.27776
0
LINE
8
BLACK
6
CONTINUOUS
10
14.2293
20
-5.27776
11
13.9695
21
-5.27776
0
LINE
8
BLACK
6
CONTINUOUS
10
13.9695
20
-5.27776
11
13.9678
21
-5.27706
0
LINE
8
BLACK
6
CONTINUOUS
10
13.9678
20
-5.27706
11
13.9671
21
-5.27539
0
LINE
8
BLACK
6
CONTINUOUS
10
13.9671
20
-5.27539
11
13.9671
21
-4.91909
0
LINE
8
BLACK
6
CONTINUOUS
10
13.9671
20
-4.91909
11
13.9678
21
-4.91742
0
LINE
8
BLACK
6
CONTINUOUS
10
13.9678
20
-4.91742
11
13.9695
21
-4.91673
0
LINE
8
BLACK
6
CONTINUOUS
10
13.9695
20
-4.91673
11
14.2293
21
-4.91673
0
LINE
8
BLACK
6
CONTINUOUS
10
13.9719
20
-4.92146
11
13.9719
21
-5.27303
0
LINE
8
BLACK
6
CONTINUOUS
10
13.9719
20
-5.27303
11
14.227
21
-5.27303
0
LINE
8
BLACK
6
CONTINUOUS
10
14.227
20
-5.27303
11
14.227
21
-4.92146
0
LINE
8
BLACK
6
CONTINUOUS
10
14.227
20
-4.92146
11
13.9719
21
-4.92146
0
LINE
8
BLACK
6
CONTINUOUS
10
14.1512
20
-3.71378
11
14.1617
21
-3.71447
0
LINE
8
BLACK
6
CONTINUOUS
10
14.1617
20
-3.71447
11
14.1721
21
-3.71653
0
LINE
8
BLACK
6
CONTINUOUS
10
14.1721
20
-3.71653
11
14.1821
21
-3.71992
0
LINE
8
BLACK
6
CONTINUOUS
10
14.1821
20
-3.71992
11
14.1915
21
-3.72459
0
LINE
8
BLACK
6
CONTINUOUS
10
14.1915
20
-3.72459
11
14.2003
21
-3.73046
0
LINE
8
BLACK
6
CONTINUOUS
10
14.2003
20
-3.73046
11
14.2083
21
-3.73742
0
LINE
8
BLACK
6
CONTINUOUS
10
14.2083
20
-3.73742
11
14.2152
21
-3.74536
0
LINE
8
BLACK
6
CONTINUOUS
10
14.2152
20
-3.74536
11
14.2211
21
-3.75413
0
LINE
8
BLACK
6
CONTINUOUS
10
14.2211
20
-3.75413
11
14.2257
21
-3.7636
0
LINE
8
BLACK
6
CONTINUOUS
10
14.2257
20
-3.7636
11
14.2291
21
-3.7736
0
LINE
8
BLACK
6
CONTINUOUS
10
14.2291
20
-3.7736
11
14.2312
21
-3.78395
0
LINE
8
BLACK
6
CONTINUOUS
10
14.2312
20
-3.78395
11
14.2319
21
-3.79449
0
LINE
8
BLACK
6
CONTINUOUS
10
14.2319
20
-3.79449
11
14.2319
21
-3.79449
0
LINE
8
BLACK
6
CONTINUOUS
10
14.2319
20
-3.79449
11
14.2319
21
-3.79449
0
LINE
8
BLACK
6
CONTINUOUS
10
14.2319
20
-3.79449
11
14.2317
21
-4.89921
0
LINE
8
BLACK
6
CONTINUOUS
10
14.2317
20
-4.89921
11
14.2317
21
-4.89921
0
LINE
8
BLACK
6
CONTINUOUS
10
14.2317
20
-4.89921
11
14.2311
21
-4.90411
0
LINE
8
BLACK
6
CONTINUOUS
10
14.2311
20
-4.90411
11
14.2295
21
-4.90875
0
LINE
8
BLACK
6
CONTINUOUS
10
14.2295
20
-4.90875
11
14.2269
21
-4.91292
0
LINE
8
BLACK
6
CONTINUOUS
10
14.2269
20
-4.91292
11
14.2234
21
-4.91638
0
LINE
8
BLACK
6
CONTINUOUS
10
14.2234
20
-4.91638
11
14.2192
21
-4.91897
0
LINE
8
BLACK
6
CONTINUOUS
10
14.2192
20
-4.91897
11
14.2145
21
-4.92056
0
LINE
8
BLACK
6
CONTINUOUS
10
14.2145
20
-4.92056
11
14.2096
21
-4.92106
0
LINE
8
BLACK
6
CONTINUOUS
10
14.2096
20
-4.92106
11
14.2096
21
-4.92106
0
LINE
8
BLACK
6
CONTINUOUS
10
14.2096
20
-4.92106
11
13.9715
21
-4.92106
0
LINE
8
BLACK
6
CONTINUOUS
10
13.9715
20
-4.92106
11
13.9715
21
-5.27342
0
LINE
8
BLACK
6
CONTINUOUS
10
13.9715
20
-5.27342
11
14.2098
21
-5.27303
0
LINE
8
BLACK
6
CONTINUOUS
10
14.2098
20
-5.27303
11
14.2098
21
-5.27303
0
LINE
8
BLACK
6
CONTINUOUS
10
14.2098
20
-5.27303
11
14.2098
21
-5.27303
0
LINE
8
BLACK
6
CONTINUOUS
10
14.2098
20
-5.27303
11
14.2147
21
-5.27359
0
LINE
8
BLACK
6
CONTINUOUS
10
14.2147
20
-5.27359
11
14.2194
21
-5.27522
0
LINE
8
BLACK
6
CONTINUOUS
10
14.2194
20
-5.27522
11
14.2235
21
-5.27786
0
LINE
8
BLACK
6
CONTINUOUS
10
14.2235
20
-5.27786
11
14.227
21
-5.28136
0
LINE
8
BLACK
6
CONTINUOUS
10
14.227
20
-5.28136
11
14.2296
21
-5.28555
0
LINE
8
BLACK
6
CONTINUOUS
10
14.2296
20
-5.28555
11
14.2312
21
-5.29022
0
LINE
8
BLACK
6
CONTINUOUS
10
14.2312
20
-5.29022
11
14.2317
21
-5.29508
0
LINE
8
BLACK
6
CONTINUOUS
10
14.2317
20
-5.29508
11
14.2317
21
-5.2951
0
LINE
8
BLACK
6
CONTINUOUS
10
14.2317
20
-5.2951
11
14.2319
21
-7.38701
0
LINE
8
BLACK
6
CONTINUOUS
10
14.2319
20
-7.38701
11
14.2319
21
-7.38701
0
LINE
8
BLACK
6
CONTINUOUS
10
14.2319
20
-7.38701
11
14.2319
21
-7.38701
0
LINE
8
BLACK
6
CONTINUOUS
10
14.2319
20
-7.38701
11
14.2312
21
-7.39754
0
LINE
8
BLACK
6
CONTINUOUS
10
14.2312
20
-7.39754
11
14.2291
21
-7.4079
0
LINE
8
BLACK
6
CONTINUOUS
10
14.2291
20
-7.4079
11
14.2257
21
-7.41789
0
LINE
8
BLACK
6
CONTINUOUS
10
14.2257
20
-7.41789
11
14.2211
21
-7.42736
0
LINE
8
BLACK
6
CONTINUOUS
10
14.2211
20
-7.42736
11
14.2152
21
-7.43614
0
LINE
8
BLACK
6
CONTINUOUS
10
14.2152
20
-7.43614
11
14.2083
21
-7.44408
0
LINE
8
BLACK
6
CONTINUOUS
10
14.2083
20
-7.44408
11
14.2003
21
-7.45104
0
LINE
8
BLACK
6
CONTINUOUS
10
14.2003
20
-7.45104
11
14.1915
21
-7.4569
0
LINE
8
BLACK
6
CONTINUOUS
10
14.1915
20
-7.4569
11
14.1821
21
-7.46157
0
LINE
8
BLACK
6
CONTINUOUS
10
14.1821
20
-7.46157
11
14.1721
21
-7.46497
0
LINE
8
BLACK
6
CONTINUOUS
10
14.1721
20
-7.46497
11
14.1617
21
-7.46703
0
LINE
8
BLACK
6
CONTINUOUS
10
14.1617
20
-7.46703
11
14.1512
21
-7.46772
0
LINE
8
BLACK
6
CONTINUOUS
10
14.1512
20
-7.46772
11
2.30866
21
-7.46772
0
LINE
8
BLACK
6
CONTINUOUS
10
2.30866
20
-7.46772
11
2.29813
21
-7.46703
0
LINE
8
BLACK
6
CONTINUOUS
10
2.29813
20
-7.46703
11
2.28777
21
-7.46497
0
LINE
8
BLACK
6
CONTINUOUS
10
2.28777
20
-7.46497
11
2.27778
21
-7.46157
0
LINE
8
BLACK
6
CONTINUOUS
10
2.27778
20
-7.46157
11
2.26831
21
-7.4569
0
LINE
8
BLACK
6
CONTINUOUS
10
2.26831
20
-7.4569
11
2.25953
21
-7.45104
0
LINE
8
BLACK
6
CONTINUOUS
10
2.25953
20
-7.45104
11
2.25159
21
-7.44408
0
LINE
8
BLACK
6
CONTINUOUS
10
2.25159
20
-7.44408
11
2.24463
21
-7.43614
0
LINE
8
BLACK
6
CONTINUOUS
10
2.24463
20
-7.43614
11
2.23877
21
-7.42736
0
LINE
8
BLACK
6
CONTINUOUS
10
2.23877
20
-7.42736
11
2.2341
21
-7.41789
0
LINE
8
BLACK
6
CONTINUOUS
10
2.2341
20
-7.41789
11
2.2307
21
-7.4079
0
LINE
8
BLACK
6
CONTINUOUS
10
2.2307
20
-7.4079
11
2.22864
21
-7.39754
0
LINE
8
BLACK
6
CONTINUOUS
10
2.22864
20
-7.39754
11
2.22795
21
-7.38701
0
LINE
8
BLACK
6
CONTINUOUS
10
2.22795
20
-7.38701
11
2.22795
21
-3.79449
0
LINE
8
BLACK
6
CONTINUOUS
10
2.22795
20
-3.79449
11
2.22864
21
-3.78395
0
LINE
8
BLACK
6
CONTINUOUS
10
2.22864
20
-3.78395
11
2.2307
21
-3.7736
0
LINE
8
BLACK
6
CONTINUOUS
10
2.2307
20
-3.7736
11
2.2341
21
-3.7636
0
LINE
8
BLACK
6
CONTINUOUS
10
2.2341
20
-3.7636
11
2.23877
21
-3.75413
0
LINE
8
BLACK
6
CONTINUOUS
10
2.23877
20
-3.75413
11
2.24463
21
-3.74536
0
LINE
8
BLACK
6
CONTINUOUS
10
2.24463
20
-3.74536
11
2.25159
21
-3.73742
0
LINE
8
BLACK
6
CONTINUOUS
10
2.25159
20
-3.73742
11
2.25953
21
-3.73046
0
LINE
8
BLACK
6
CONTINUOUS
10
2.25953
20
-3.73046
11
2.26831
21
-3.72459
0
LINE
8
BLACK
6
CONTINUOUS
10
2.26831
20
-3.72459
11
2.27778
21
-3.71992
0
LINE
8
BLACK
6
CONTINUOUS
10
2.27778
20
-3.71992
11
2.28777
21
-3.71653
0
LINE
8
BLACK
6
CONTINUOUS
10
2.28777
20
-3.71653
11
2.29813
21
-3.71447
0
LINE
8
BLACK
6
CONTINUOUS
10
2.29813
20
-3.71447
11
2.30866
21
-3.71378
0
LINE
8
BLACK
6
CONTINUOUS
10
2.30866
20
-3.71378
11
14.1512
21
-3.71378
0
LINE
8
BLACK
6
CONTINUOUS
10
2.30866
20
-3.71772
11
2.30363
21
-3.71772
0
LINE
8
BLACK
6
CONTINUOUS
10
2.30363
20
-3.71772
11
2.29365
21
-3.71903
0
LINE
8
BLACK
6
CONTINUOUS
10
2.29365
20
-3.71903
11
2.28393
21
-3.72163
0
LINE
8
BLACK
6
CONTINUOUS
10
2.28393
20
-3.72163
11
2.27463
21
-3.72549
0
LINE
8
BLACK
6
CONTINUOUS
10
2.27463
20
-3.72549
11
2.26592
21
-3.73052
0
LINE
8
BLACK
6
CONTINUOUS
10
2.26592
20
-3.73052
11
2.25793
21
-3.73664
0
LINE
8
BLACK
6
CONTINUOUS
10
2.25793
20
-3.73664
11
2.25082
21
-3.74376
0
LINE
8
BLACK
6
CONTINUOUS
10
2.25082
20
-3.74376
11
2.24469
21
-3.75174
0
LINE
8
BLACK
6
CONTINUOUS
10
2.24469
20
-3.75174
11
2.23966
21
-3.76046
0
LINE
8
BLACK
6
CONTINUOUS
10
2.23966
20
-3.76046
11
2.23581
21
-3.76976
0
LINE
8
BLACK
6
CONTINUOUS
10
2.23581
20
-3.76976
11
2.2332
21
-3.77948
0
LINE
8
BLACK
6
CONTINUOUS
10
2.2332
20
-3.77948
11
2.23189
21
-3.78946
0
LINE
8
BLACK
6
CONTINUOUS
10
2.23189
20
-3.78946
11
2.23189
21
-3.79449
0
LINE
8
BLACK
6
CONTINUOUS
10
2.23189
20
-3.79449
11
2.23189
21
-7.38701
0
LINE
8
BLACK
6
CONTINUOUS
10
2.23189
20
-7.38701
11
2.23189
21
-7.39204
0
LINE
8
BLACK
6
CONTINUOUS
10
2.23189
20
-7.39204
11
2.2332
21
-7.40202
0
LINE
8
BLACK
6
CONTINUOUS
10
2.2332
20
-7.40202
11
2.23581
21
-7.41174
0
LINE
8
BLACK
6
CONTINUOUS
10
2.23581
20
-7.41174
11
2.23966
21
-7.42104
0
LINE
8
BLACK
6
CONTINUOUS
10
2.23966
20
-7.42104
11
2.24469
21
-7.42975
0
LINE
8
BLACK
6
CONTINUOUS
10
2.24469
20
-7.42975
11
2.25082
21
-7.43774
0
LINE
8
BLACK
6
CONTINUOUS
10
2.25082
20
-7.43774
11
2.25793
21
-7.44485
0
LINE
8
BLACK
6
CONTINUOUS
10
2.25793
20
-7.44485
11
2.26592
21
-7.45098
0
LINE
8
BLACK
6
CONTINUOUS
10
2.26592
20
-7.45098
11
2.27463
21
-7.45601
0
LINE
8
BLACK
6
CONTINUOUS
10
2.27463
20
-7.45601
11
2.28393
21
-7.45986
0
LINE
8
BLACK
6
CONTINUOUS
10
2.28393
20
-7.45986
11
2.29365
21
-7.46247
0
LINE
8
BLACK
6
CONTINUOUS
10
2.29365
20
-7.46247
11
2.30363
21
-7.46378
0
LINE
8
BLACK
6
CONTINUOUS
10
2.30363
20
-7.46378
11
2.30866
21
-7.46378
0
LINE
8
BLACK
6
CONTINUOUS
10
2.30866
20
-7.46378
11
14.1512
21
-7.46378
0
LINE
8
BLACK
6
CONTINUOUS
10
14.1512
20
-7.46378
11
14.1562
21
-7.46378
0
LINE
8
BLACK
6
CONTINUOUS
10
14.1562
20
-7.46378
11
14.1662
21
-7.46247
0
LINE
8
BLACK
6
CONTINUOUS
10
14.1662
20
-7.46247
11
14.1759
21
-7.45986
0
LINE
8
BLACK
6
CONTINUOUS
10
14.1759
20
-7.45986
11
14.1852
21
-7.45601
0
LINE
8
BLACK
6
CONTINUOUS
10
14.1852
20
-7.45601
11
14.1939
21
-7.45098
0
LINE
8
BLACK
6
CONTINUOUS
10
14.1939
20
-7.45098
11
14.2019
21
-7.44485
0
LINE
8
BLACK
6
CONTINUOUS
10
14.2019
20
-7.44485
11
14.209
21
-7.43774
0
LINE
8
BLACK
6
CONTINUOUS
10
14.209
20
-7.43774
11
14.2152
21
-7.42975
0
LINE
8
BLACK
6
CONTINUOUS
10
14.2152
20
-7.42975
11
14.2202
21
-7.42104
0
LINE
8
BLACK
6
CONTINUOUS
10
14.2202
20
-7.42104
11
14.224
21
-7.41174
0
LINE
8
BLACK
6
CONTINUOUS
10
14.224
20
-7.41174
11
14.2266
21
-7.40202
0
LINE
8
BLACK
6
CONTINUOUS
10
14.2266
20
-7.40202
11
14.228
21
-7.39204
0
LINE
8
BLACK
6
CONTINUOUS
10
14.228
20
-7.39204
11
14.228
21
-7.38701
0
LINE
8
BLACK
6
CONTINUOUS
10
14.228
20
-7.38701
11
14.228
21
-7.38701
0
LINE
8
BLACK
6
CONTINUOUS
10
14.228
20
-7.38701
11
14.2278
21
-5.2951
0
LINE
8
BLACK
6
CONTINUOUS
10
14.2278
20
-5.2951
11
14.2278
21
-5.29509
0
LINE
8
BLACK
6
CONTINUOUS
10
14.2278
20
-5.29509
11
14.2278
21
-5.29507
0
LINE
8
BLACK
6
CONTINUOUS
10
14.2278
20
-5.29507
11
14.2278
21
-5.29507
0
LINE
8
BLACK
6
CONTINUOUS
10
14.2278
20
-5.29507
11
14.2278
21
-5.2927
0
LINE
8
BLACK
6
CONTINUOUS
10
14.2278
20
-5.2927
11
14.2266
21
-5.2881
0
LINE
8
BLACK
6
CONTINUOUS
10
14.2266
20
-5.2881
11
14.2242
21
-5.28397
0
LINE
8
BLACK
6
CONTINUOUS
10
14.2242
20
-5.28397
11
14.2209
21
-5.2806
0
LINE
8
BLACK
6
CONTINUOUS
10
14.2209
20
-5.2806
11
14.2168
21
-5.27821
0
LINE
8
BLACK
6
CONTINUOUS
10
14.2168
20
-5.27821
11
14.2122
21
-5.27697
0
LINE
8
BLACK
6
CONTINUOUS
10
14.2122
20
-5.27697
11
14.2098
21
-5.27697
0
LINE
8
BLACK
6
CONTINUOUS
10
14.2098
20
-5.27697
11
13.9695
21
-5.27736
0
LINE
8
BLACK
6
CONTINUOUS
10
13.9695
20
-5.27736
11
13.9695
21
-5.27736
0
LINE
8
BLACK
6
CONTINUOUS
10
13.9695
20
-5.27736
11
13.9695
21
-5.27736
0
LINE
8
BLACK
6
CONTINUOUS
10
13.9695
20
-5.27736
11
13.9688
21
-5.27708
0
LINE
8
BLACK
6
CONTINUOUS
10
13.9688
20
-5.27708
11
13.9681
21
-5.27679
0
LINE
8
BLACK
6
CONTINUOUS
10
13.9681
20
-5.27679
11
13.9681
21
-5.27679
0
LINE
8
BLACK
6
CONTINUOUS
10
13.9681
20
-5.27679
11
13.9681
21
-5.27679
0
LINE
8
BLACK
6
CONTINUOUS
10
13.9681
20
-5.27679
11
13.9678
21
-5.27609
0
LINE
8
BLACK
6
CONTINUOUS
10
13.9678
20
-5.27609
11
13.9675
21
-5.2754
0
LINE
8
BLACK
6
CONTINUOUS
10
13.9675
20
-5.2754
11
13.9675
21
-5.2754
0
LINE
8
BLACK
6
CONTINUOUS
10
13.9675
20
-5.2754
11
13.9675
21
-5.27539
0
LINE
8
BLACK
6
CONTINUOUS
10
13.9675
20
-5.27539
11
13.9675
21
-4.91909
0
LINE
8
BLACK
6
CONTINUOUS
10
13.9675
20
-4.91909
11
13.9681
21
-4.9177
0
LINE
8
BLACK
6
CONTINUOUS
10
13.9681
20
-4.9177
11
13.9695
21
-4.91713
0
LINE
8
BLACK
6
CONTINUOUS
10
13.9695
20
-4.91713
11
14.2096
21
-4.91713
0
LINE
8
BLACK
6
CONTINUOUS
10
14.2096
20
-4.91713
11
14.2096
21
-4.91713
0
LINE
8
BLACK
6
CONTINUOUS
10
14.2096
20
-4.91713
11
14.2096
21
-4.91713
0
LINE
8
BLACK
6
CONTINUOUS
10
14.2096
20
-4.91713
11
14.2096
21
-4.91712
0
LINE
8
BLACK
6
CONTINUOUS
10
14.2096
20
-4.91712
11
14.212
21
-4.91715
0
LINE
8
BLACK
6
CONTINUOUS
10
14.212
20
-4.91715
11
14.2166
21
-4.91596
0
LINE
8
BLACK
6
CONTINUOUS
10
14.2166
20
-4.91596
11
14.2208
21
-4.91362
0
LINE
8
BLACK
6
CONTINUOUS
10
14.2208
20
-4.91362
11
14.2241
21
-4.91028
0
LINE
8
BLACK
6
CONTINUOUS
10
14.2241
20
-4.91028
11
14.2265
21
-4.90617
0
LINE
8
BLACK
6
CONTINUOUS
10
14.2265
20
-4.90617
11
14.2278
21
-4.90159
0
LINE
8
BLACK
6
CONTINUOUS
10
14.2278
20
-4.90159
11
14.2278
21
-4.89921
0
LINE
8
BLACK
6
CONTINUOUS
10
14.2278
20
-4.89921
11
14.2278
21
-4.89921
0
LINE
8
BLACK
6
CONTINUOUS
10
14.2278
20
-4.89921
11
14.2278
21
-4.89921
0
LINE
8
BLACK
6
CONTINUOUS
10
14.2278
20
-4.89921
11
14.228
21
-3.79449
0
LINE
8
BLACK
6
CONTINUOUS
10
14.228
20
-3.79449
11
14.228
21
-3.78946
0
LINE
8
BLACK
6
CONTINUOUS
10
14.228
20
-3.78946
11
14.2266
21
-3.77948
0
LINE
8
BLACK
6
CONTINUOUS
10
14.2266
20
-3.77948
11
14.224
21
-3.76976
0
LINE
8
BLACK
6
CONTINUOUS
10
14.224
20
-3.76976
11
14.2202
21
-3.76046
0
LINE
8
BLACK
6
CONTINUOUS
10
14.2202
20
-3.76046
11
14.2152
21
-3.75174
0
LINE
8
BLACK
6
CONTINUOUS
10
14.2152
20
-3.75174
11
14.209
21
-3.74376
0
LINE
8
BLACK
6
CONTINUOUS
10
14.209
20
-3.74376
11
14.2019
21
-3.73664
0
LINE
8
BLACK
6
CONTINUOUS
10
14.2019
20
-3.73664
11
14.1939
21
-3.73052
0
LINE
8
BLACK
6
CONTINUOUS
10
14.1939
20
-3.73052
11
14.1852
21
-3.72549
0
LINE
8
BLACK
6
CONTINUOUS
10
14.1852
20
-3.72549
11
14.1759
21
-3.72163
0
LINE
8
BLACK
6
CONTINUOUS
10
14.1759
20
-3.72163
11
14.1662
21
-3.71903
0
LINE
8
BLACK
6
CONTINUOUS
10
14.1662
20
-3.71903
11
14.1562
21
-3.71772
0
LINE
8
BLACK
6
CONTINUOUS
10
14.1562
20
-3.71772
11
14.1512
21
-3.71772
0
LINE
8
BLACK
6
CONTINUOUS
10
14.1512
20
-3.71772
11
2.30866
21
-3.71772
  0
ENDSEC
  0
EOF
